<?xml version="1.0" encoding="UTF-8" standalone="no"?>
<!DOCTYPE svg PUBLIC "-//W3C//DTD SVG 1.1//EN"
 "http://www.w3.org/Graphics/SVG/1.1/DTD/svg11.dtd">
<!-- Generated by graphviz version 2.49.3 (20211023.0002)
 -->
<!-- Title: G Pages: 1 -->
<svg width="1547pt" height="727pt"
 viewBox="0.00 0.00 1547.00 727.00" xmlns="http://www.w3.org/2000/svg" xmlns:xlink="http://www.w3.org/1999/xlink">
<g id="graph0" class="graph" transform="scale(1 1) rotate(0) translate(4 723)">
<title>G</title>
<polygon fill="white" stroke="transparent" points="-4,4 -4,-723 1543,-723 1543,4 -4,4"/>
<!-- 0016.手推车 -->
<g id="node1" class="node">
<title>0016.手推车</title>
<polygon fill="#ffaa00" stroke="black" points="0,-126.5 0,-210.5 158,-210.5 158,-126.5 0,-126.5"/>
<text text-anchor="middle" x="79" y="-195.3" font-family="SimSun" font-size="14.00">0016.手推车</text>
<polyline fill="none" stroke="black" points="0,-187.5 158,-187.5 "/>
<text text-anchor="middle" x="23" y="-172.3" font-family="SimSun" font-size="14.00">20秒</text>
<polyline fill="none" stroke="black" points="46,-164.5 46,-187.5 "/>
<text text-anchor="middle" x="102" y="-172.3" font-family="SimSun" font-size="14.00">[10, 20] 黄金</text>
<polyline fill="none" stroke="black" points="0,-164.5 158,-164.5 "/>
<text text-anchor="start" x="8" y="-149.3" font-family="SimSun" font-size="14.00">提高工人速度</text>
<text text-anchor="start" x="8" y="-134.3" font-family="SimSun" font-size="14.00">减少卸货时间</text>
</g>
<!-- 0017.水利 -->
<g id="node2" class="node">
<title>0017.水利</title>
<polygon fill="#ffaa00" stroke="black" points="230,-229.5 230,-313.5 388,-313.5 388,-229.5 230,-229.5"/>
<text text-anchor="middle" x="309" y="-298.3" font-family="SimSun" font-size="14.00">0017.水利</text>
<polyline fill="none" stroke="black" points="230,-290.5 388,-290.5 "/>
<text text-anchor="middle" x="253" y="-275.3" font-family="SimSun" font-size="14.00">20秒</text>
<polyline fill="none" stroke="black" points="276,-267.5 276,-290.5 "/>
<text text-anchor="middle" x="332" y="-275.3" font-family="SimSun" font-size="14.00">[10, 20] 黄金</text>
<polyline fill="none" stroke="black" points="230,-267.5 388,-267.5 "/>
<text text-anchor="start" x="238" y="-252.3" font-family="SimSun" font-size="14.00">提高食物采集量</text>
<text text-anchor="start" x="238" y="-237.3" font-family="SimSun" font-size="14.00">降低食物采集时间</text>
</g>
<!-- 0016.手推车&#45;&gt;0017.水利 -->
<g id="edge1" class="edge">
<title>0016.手推车:e&#45;&gt;0017.水利:w</title>
<path fill="none" stroke="black" d="M158,-168.5C210.14,-168.5 179,-258.27 220.08,-270.2"/>
<polygon fill="black" stroke="black" points="219.63,-273.67 230,-271.5 220.54,-266.73 219.63,-273.67"/>
</g>
<!-- 0019.采矿 -->
<g id="node3" class="node">
<title>0019.采矿</title>
<polygon fill="#ffaa00" stroke="black" points="230,-126.5 230,-210.5 388,-210.5 388,-126.5 230,-126.5"/>
<text text-anchor="middle" x="309" y="-195.3" font-family="SimSun" font-size="14.00">0019.采矿</text>
<polyline fill="none" stroke="black" points="230,-187.5 388,-187.5 "/>
<text text-anchor="middle" x="253" y="-172.3" font-family="SimSun" font-size="14.00">10秒</text>
<polyline fill="none" stroke="black" points="276,-164.5 276,-187.5 "/>
<text text-anchor="middle" x="332" y="-172.3" font-family="SimSun" font-size="14.00">[10, 20] 黄金</text>
<polyline fill="none" stroke="black" points="230,-164.5 388,-164.5 "/>
<text text-anchor="start" x="238" y="-149.3" font-family="SimSun" font-size="14.00">提高矿物采集量</text>
<text text-anchor="start" x="238" y="-134.3" font-family="SimSun" font-size="14.00">降低矿物采集时间</text>
</g>
<!-- 0016.手推车&#45;&gt;0019.采矿 -->
<g id="edge2" class="edge">
<title>0016.手推车:e&#45;&gt;0019.采矿:w</title>
<path fill="none" stroke="black" d="M158,-168.5C186.38,-168.5 195.88,-168.5 219.98,-168.5"/>
<polygon fill="black" stroke="black" points="220,-172 230,-168.5 220,-165 220,-172"/>
</g>
<!-- 0018.行政机构 -->
<g id="node4" class="node">
<title>0018.行政机构</title>
<polygon fill="#ffaa00" stroke="black" points="230,-8 230,-107 388,-107 388,-8 230,-8"/>
<text text-anchor="middle" x="309" y="-91.8" font-family="SimSun" font-size="14.00">0018.行政机构</text>
<polyline fill="none" stroke="black" points="230,-84 388,-84 "/>
<text text-anchor="middle" x="253" y="-68.8" font-family="SimSun" font-size="14.00">10秒</text>
<polyline fill="none" stroke="black" points="276,-61 276,-84 "/>
<text text-anchor="middle" x="332" y="-68.8" font-family="SimSun" font-size="14.00">[10, 20] 黄金</text>
<polyline fill="none" stroke="black" points="230,-61 388,-61 "/>
<text text-anchor="start" x="238" y="-45.8" font-family="SimSun" font-size="14.00">提高工人人口上限</text>
<text text-anchor="start" x="238" y="-30.8" font-family="SimSun" font-size="14.00">提高工人生产速度</text>
<text text-anchor="start" x="238" y="-15.8" font-family="SimSun" font-size="14.00">+&gt;【仓库】</text>
</g>
<!-- 0016.手推车&#45;&gt;0018.行政机构 -->
<g id="edge3" class="edge">
<title>0016.手推车:e&#45;&gt;0018.行政机构:w</title>
<path fill="none" stroke="black" d="M158,-168.5C213.01,-168.5 176.64,-71.35 219.88,-58.82"/>
<polygon fill="black" stroke="black" points="220.54,-62.27 230,-57.5 219.63,-55.33 220.54,-62.27"/>
</g>
<!-- 0020.农学 -->
<g id="node5" class="node">
<title>0020.农学</title>
<polygon fill="#ffaa00" stroke="black" points="460,-181.5 460,-265.5 618,-265.5 618,-181.5 460,-181.5"/>
<text text-anchor="middle" x="539" y="-250.3" font-family="SimSun" font-size="14.00">0020.农学</text>
<polyline fill="none" stroke="black" points="460,-242.5 618,-242.5 "/>
<text text-anchor="middle" x="483" y="-227.3" font-family="SimSun" font-size="14.00">10秒</text>
<polyline fill="none" stroke="black" points="506,-219.5 506,-242.5 "/>
<text text-anchor="middle" x="562" y="-227.3" font-family="SimSun" font-size="14.00">[10, 20] 黄金</text>
<polyline fill="none" stroke="black" points="460,-219.5 618,-219.5 "/>
<text text-anchor="start" x="468" y="-204.3" font-family="SimSun" font-size="14.00">提高食物采集量</text>
<text text-anchor="start" x="468" y="-189.3" font-family="SimSun" font-size="14.00">+&gt;【农庄】</text>
</g>
<!-- 0017.水利&#45;&gt;0020.农学 -->
<g id="edge4" class="edge">
<title>0017.水利:e&#45;&gt;0020.农学:w</title>
<path fill="none" stroke="black" d="M388,-271.5C422.7,-271.5 422.09,-232.42 449.89,-224.78"/>
<polygon fill="black" stroke="black" points="450.52,-228.23 460,-223.5 449.64,-221.29 450.52,-228.23"/>
</g>
<!-- 0018.行政机构&#45;&gt;0020.农学 -->
<g id="edge5" class="edge">
<title>0018.行政机构:e&#45;&gt;0020.农学:w</title>
<path fill="none" stroke="black" d="M388,-57.5C464.65,-57.5 387.54,-208.3 449.77,-222.44"/>
<polygon fill="black" stroke="black" points="449.69,-225.95 460,-223.5 450.41,-218.99 449.69,-225.95"/>
</g>
<!-- 0024.经济 -->
<g id="node6" class="node">
<title>0024.经济</title>
<polygon fill="#ffaa00" stroke="black" points="460,-0.5 460,-114.5 618,-114.5 618,-0.5 460,-0.5"/>
<text text-anchor="middle" x="539" y="-99.3" font-family="SimSun" font-size="14.00">0024.经济</text>
<polyline fill="none" stroke="black" points="460,-91.5 618,-91.5 "/>
<text text-anchor="middle" x="483" y="-76.3" font-family="SimSun" font-size="14.00">10秒</text>
<polyline fill="none" stroke="black" points="506,-68.5 506,-91.5 "/>
<text text-anchor="middle" x="562" y="-76.3" font-family="SimSun" font-size="14.00">[10, 20] 黄金</text>
<polyline fill="none" stroke="black" points="460,-68.5 618,-68.5 "/>
<text text-anchor="start" x="468" y="-53.3" font-family="SimSun" font-size="14.00">提高工人人口上限</text>
<text text-anchor="start" x="468" y="-38.3" font-family="SimSun" font-size="14.00">提高军事人口上限</text>
<text text-anchor="start" x="468" y="-23.3" font-family="SimSun" font-size="14.00">提高单位生产力</text>
<text text-anchor="start" x="468" y="-8.3" font-family="SimSun" font-size="14.00">+&gt;【市场】</text>
</g>
<!-- 0018.行政机构&#45;&gt;0024.经济 -->
<g id="edge6" class="edge">
<title>0018.行政机构:e&#45;&gt;0024.经济:w</title>
<path fill="none" stroke="black" d="M388,-57.5C416.38,-57.5 425.88,-57.5 449.98,-57.5"/>
<polygon fill="black" stroke="black" points="450,-61 460,-57.5 450,-54 450,-61"/>
</g>
<!-- 0026.工程技术 -->
<g id="node7" class="node">
<title>0026.工程技术</title>
<polygon fill="#ffaa00" stroke="black" points="690,-0.5 690,-114.5 848,-114.5 848,-0.5 690,-0.5"/>
<text text-anchor="middle" x="769" y="-99.3" font-family="SimSun" font-size="14.00">0026.工程技术</text>
<polyline fill="none" stroke="black" points="690,-91.5 848,-91.5 "/>
<text text-anchor="middle" x="713" y="-76.3" font-family="SimSun" font-size="14.00">10秒</text>
<polyline fill="none" stroke="black" points="736,-68.5 736,-91.5 "/>
<text text-anchor="middle" x="792" y="-76.3" font-family="SimSun" font-size="14.00">[10, 20] 黄金</text>
<polyline fill="none" stroke="black" points="690,-68.5 848,-68.5 "/>
<text text-anchor="start" x="698" y="-53.3" font-family="SimSun" font-size="14.00">提高建筑速度</text>
<text text-anchor="start" x="698" y="-38.3" font-family="SimSun" font-size="14.00">提高单位生产力</text>
<text text-anchor="start" x="698" y="-23.3" font-family="SimSun" font-size="14.00">提高工人人口上限</text>
<text text-anchor="start" x="698" y="-8.3" font-family="SimSun" font-size="14.00">提高军事人口上限</text>
</g>
<!-- 0024.经济&#45;&gt;0026.工程技术 -->
<g id="edge7" class="edge">
<title>0024.经济:e&#45;&gt;0026.工程技术:w</title>
<path fill="none" stroke="black" d="M618,-57.5C646.38,-57.5 655.88,-57.5 679.98,-57.5"/>
<polygon fill="black" stroke="black" points="680,-61 690,-57.5 680,-54 680,-61"/>
</g>
<!-- 军事训练 -->
<g id="node8" class="node">
<title>军事训练</title>
<polygon fill="#228dff" stroke="black" points="0,-369 0,-468 158,-468 158,-369 0,-369"/>
<text text-anchor="middle" x="79" y="-452.8" font-family="SimSun" font-size="14.00">军事训练</text>
<polyline fill="none" stroke="black" points="0,-445 158,-445 "/>
<text text-anchor="middle" x="23" y="-429.8" font-family="SimSun" font-size="14.00">20秒</text>
<polyline fill="none" stroke="black" points="46,-422 46,-445 "/>
<text text-anchor="middle" x="102" y="-429.8" font-family="SimSun" font-size="14.00">[10, 20] 黄金</text>
<polyline fill="none" stroke="black" points="0,-422 158,-422 "/>
<text text-anchor="start" x="8" y="-406.8" font-family="SimSun" font-size="14.00">X&gt;【民兵】</text>
<text text-anchor="start" x="8" y="-391.8" font-family="SimSun" font-size="14.00">+&gt;【盾牌手】</text>
<text text-anchor="start" x="8" y="-376.8" font-family="SimSun" font-size="14.00">+&gt;【长矛兵】</text>
</g>
<!-- 0006.战术 -->
<g id="node9" class="node">
<title>0006.战术</title>
<polygon fill="#228dff" stroke="black" points="230,-443 230,-512 388,-512 388,-443 230,-443"/>
<text text-anchor="middle" x="309" y="-496.8" font-family="SimSun" font-size="14.00">0006.战术</text>
<polyline fill="none" stroke="black" points="230,-489 388,-489 "/>
<text text-anchor="middle" x="253" y="-473.8" font-family="SimSun" font-size="14.00">20秒</text>
<polyline fill="none" stroke="black" points="276,-466 276,-489 "/>
<text text-anchor="middle" x="332" y="-473.8" font-family="SimSun" font-size="14.00">[10, 20] 黄金</text>
<polyline fill="none" stroke="black" points="230,-466 388,-466 "/>
<text text-anchor="start" x="238" y="-450.8" font-family="SimSun" font-size="14.00">+&gt;【弓箭手】</text>
</g>
<!-- 军事训练&#45;&gt;0006.战术 -->
<g id="edge8" class="edge">
<title>军事训练:e&#45;&gt;0006.战术:w</title>
<path fill="none" stroke="black" d="M158,-418.5C195.65,-418.5 190.14,-467.37 220.04,-476.16"/>
<polygon fill="black" stroke="black" points="219.62,-479.63 230,-477.5 220.56,-472.7 219.62,-479.63"/>
</g>
<!-- 0008.马镫 -->
<g id="node10" class="node">
<title>0008.马镫</title>
<polygon fill="#228dff" stroke="black" points="230,-348 230,-417 388,-417 388,-348 230,-348"/>
<text text-anchor="middle" x="309" y="-401.8" font-family="SimSun" font-size="14.00">0008.马镫</text>
<polyline fill="none" stroke="black" points="230,-394 388,-394 "/>
<text text-anchor="middle" x="253" y="-378.8" font-family="SimSun" font-size="14.00">20秒</text>
<polyline fill="none" stroke="black" points="276,-371 276,-394 "/>
<text text-anchor="middle" x="332" y="-378.8" font-family="SimSun" font-size="14.00">[10, 20] 黄金</text>
<polyline fill="none" stroke="black" points="230,-371 388,-371 "/>
<text text-anchor="start" x="238" y="-355.8" font-family="SimSun" font-size="14.00">+&gt;【骑兵】</text>
</g>
<!-- 军事训练&#45;&gt;0008.马镫 -->
<g id="edge9" class="edge">
<title>军事训练:e&#45;&gt;0008.马镫:w</title>
<path fill="none" stroke="black" d="M158,-418.5C190,-418.5 193.74,-389.69 219.78,-383.62"/>
<polygon fill="black" stroke="black" points="220.44,-387.07 230,-382.5 219.68,-380.11 220.44,-387.07"/>
</g>
<!-- 0010.军事工程 -->
<g id="node13" class="node">
<title>0010.军事工程</title>
<polygon fill="#228dff" stroke="black" points="460,-447 460,-516 618,-516 618,-447 460,-447"/>
<text text-anchor="middle" x="539" y="-500.8" font-family="SimSun" font-size="14.00">0010.军事工程</text>
<polyline fill="none" stroke="black" points="460,-493 618,-493 "/>
<text text-anchor="middle" x="483" y="-477.8" font-family="SimSun" font-size="14.00">30秒</text>
<polyline fill="none" stroke="black" points="506,-470 506,-493 "/>
<text text-anchor="middle" x="562" y="-477.8" font-family="SimSun" font-size="14.00">[10, 20] 黄金</text>
<polyline fill="none" stroke="black" points="460,-470 618,-470 "/>
<text text-anchor="start" x="468" y="-454.8" font-family="SimSun" font-size="14.00">+&gt;【拒马】</text>
</g>
<!-- 0006.战术&#45;&gt;0010.军事工程 -->
<g id="edge12" class="edge">
<title>0006.战术:e&#45;&gt;0010.军事工程:w</title>
<path fill="none" stroke="black" d="M388,-477.5C416.42,-477.5 425.85,-480.65 449.97,-481.36"/>
<polygon fill="black" stroke="black" points="449.95,-484.86 460,-481.5 450.05,-477.86 449.95,-484.86"/>
</g>
<!-- 骑士制度 -->
<g id="node11" class="node">
<title>骑士制度</title>
<polygon fill="#228dff" stroke="black" points="460,-329 460,-428 618,-428 618,-329 460,-329"/>
<text text-anchor="middle" x="539" y="-412.8" font-family="SimSun" font-size="14.00">骑士制度</text>
<polyline fill="none" stroke="black" points="460,-405 618,-405 "/>
<text text-anchor="middle" x="483" y="-389.8" font-family="SimSun" font-size="14.00">20秒</text>
<polyline fill="none" stroke="black" points="506,-382 506,-405 "/>
<text text-anchor="middle" x="562" y="-389.8" font-family="SimSun" font-size="14.00">[10, 20] 黄金</text>
<polyline fill="none" stroke="black" points="460,-382 618,-382 "/>
<text text-anchor="start" x="468" y="-366.8" font-family="SimSun" font-size="14.00">X&gt;【骑兵】</text>
<text text-anchor="start" x="468" y="-351.8" font-family="SimSun" font-size="14.00">+&gt;【轻骑兵】</text>
<text text-anchor="start" x="468" y="-336.8" font-family="SimSun" font-size="14.00">+&gt;【重骑兵】</text>
</g>
<!-- 0008.马镫&#45;&gt;骑士制度 -->
<g id="edge10" class="edge">
<title>0008.马镫:e&#45;&gt;骑士制度:w</title>
<path fill="none" stroke="black" d="M388,-382.5C416.42,-382.5 425.85,-379.35 449.97,-378.64"/>
<polygon fill="black" stroke="black" points="450.05,-382.14 460,-378.5 449.95,-375.14 450.05,-382.14"/>
</g>
<!-- 宪兵连 -->
<g id="node12" class="node">
<title>宪兵连</title>
<polygon fill="#228dff" stroke="black" points="690,-336.5 690,-420.5 848,-420.5 848,-336.5 690,-336.5"/>
<text text-anchor="middle" x="769" y="-405.3" font-family="SimSun" font-size="14.00">宪兵连</text>
<polyline fill="none" stroke="black" points="690,-397.5 848,-397.5 "/>
<text text-anchor="middle" x="713" y="-382.3" font-family="SimSun" font-size="14.00">20秒</text>
<polyline fill="none" stroke="black" points="736,-374.5 736,-397.5 "/>
<text text-anchor="middle" x="792" y="-382.3" font-family="SimSun" font-size="14.00">[10, 20] 黄金</text>
<polyline fill="none" stroke="black" points="690,-374.5 848,-374.5 "/>
<text text-anchor="start" x="698" y="-359.3" font-family="SimSun" font-size="14.00">X&gt;【重骑兵】</text>
<text text-anchor="start" x="698" y="-344.3" font-family="SimSun" font-size="14.00">+&gt;【鸢尾花骑兵】</text>
</g>
<!-- 骑士制度&#45;&gt;宪兵连 -->
<g id="edge11" class="edge">
<title>骑士制度:e&#45;&gt;宪兵连:w</title>
<path fill="none" stroke="black" d="M618,-378.5C646.38,-378.5 655.88,-378.5 679.98,-378.5"/>
<polygon fill="black" stroke="black" points="680,-382 690,-378.5 680,-375 680,-382"/>
</g>
<!-- 0011.马匹育种 -->
<g id="node18" class="node">
<title>0011.马匹育种</title>
<polygon fill="#228dff" stroke="black" points="920,-329 920,-428 1078,-428 1078,-329 920,-329"/>
<text text-anchor="middle" x="999" y="-412.8" font-family="SimSun" font-size="14.00">0011.马匹育种</text>
<polyline fill="none" stroke="black" points="920,-405 1078,-405 "/>
<text text-anchor="middle" x="943" y="-389.8" font-family="SimSun" font-size="14.00">30秒</text>
<polyline fill="none" stroke="black" points="966,-382 966,-405 "/>
<text text-anchor="middle" x="1022" y="-389.8" font-family="SimSun" font-size="14.00">[10, 20] 黄金</text>
<polyline fill="none" stroke="black" points="920,-382 1078,-382 "/>
<text text-anchor="start" x="928" y="-366.8" font-family="SimSun" font-size="14.00">提高骑兵速度</text>
<text text-anchor="start" x="928" y="-351.8" font-family="SimSun" font-size="14.00">降低骑兵价格</text>
<text text-anchor="start" x="928" y="-336.8" font-family="SimSun" font-size="14.00">+&gt;【马厩】</text>
</g>
<!-- 宪兵连&#45;&gt;0011.马匹育种 -->
<g id="edge17" class="edge">
<title>宪兵连:e&#45;&gt;0011.马匹育种:w</title>
<path fill="none" stroke="black" d="M848,-378.5C876.38,-378.5 885.88,-378.5 909.98,-378.5"/>
<polygon fill="black" stroke="black" points="910,-382 920,-378.5 910,-375 910,-382"/>
</g>
<!-- 近卫兵团 -->
<g id="node14" class="node">
<title>近卫兵团</title>
<polygon fill="#228dff" stroke="black" points="690,-447 690,-516 848,-516 848,-447 690,-447"/>
<text text-anchor="middle" x="769" y="-500.8" font-family="SimSun" font-size="14.00">近卫兵团</text>
<polyline fill="none" stroke="black" points="690,-493 848,-493 "/>
<text text-anchor="middle" x="713" y="-477.8" font-family="SimSun" font-size="14.00">20秒</text>
<polyline fill="none" stroke="black" points="736,-470 736,-493 "/>
<text text-anchor="middle" x="792" y="-477.8" font-family="SimSun" font-size="14.00">[10, 20] 黄金</text>
<polyline fill="none" stroke="black" points="690,-470 848,-470 "/>
<text text-anchor="start" x="698" y="-454.8" font-family="SimSun" font-size="14.00">+&gt;【法兰西近卫兵】</text>
</g>
<!-- 0010.军事工程&#45;&gt;近卫兵团 -->
<g id="edge13" class="edge">
<title>0010.军事工程:e&#45;&gt;近卫兵团:w</title>
<path fill="none" stroke="black" d="M618,-481.5C646.38,-481.5 655.88,-481.5 679.98,-481.5"/>
<polygon fill="black" stroke="black" points="680,-485 690,-481.5 680,-478 680,-485"/>
</g>
<!-- 0013.火药 -->
<g id="node15" class="node">
<title>0013.火药</title>
<polygon fill="#228dff" stroke="black" points="920,-447 920,-516 1078,-516 1078,-447 920,-447"/>
<text text-anchor="middle" x="999" y="-500.8" font-family="SimSun" font-size="14.00">0013.火药</text>
<polyline fill="none" stroke="black" points="920,-493 1078,-493 "/>
<text text-anchor="middle" x="943" y="-477.8" font-family="SimSun" font-size="14.00">20秒</text>
<polyline fill="none" stroke="black" points="966,-470 966,-493 "/>
<text text-anchor="middle" x="1022" y="-477.8" font-family="SimSun" font-size="14.00">[10, 20] 黄金</text>
<polyline fill="none" stroke="black" points="920,-470 1078,-470 "/>
<text text-anchor="start" x="928" y="-454.8" font-family="SimSun" font-size="14.00">+&gt;【火枪手】</text>
</g>
<!-- 近卫兵团&#45;&gt;0013.火药 -->
<g id="edge14" class="edge">
<title>近卫兵团:e&#45;&gt;0013.火药:w</title>
<path fill="none" stroke="black" d="M848,-481.5C876.38,-481.5 885.88,-481.5 909.98,-481.5"/>
<polygon fill="black" stroke="black" points="910,-485 920,-481.5 910,-478 910,-485"/>
</g>
<!-- 刺刀 -->
<g id="node16" class="node">
<title>刺刀</title>
<polygon fill="#228dff" stroke="black" points="1150,-487.5 1150,-571.5 1308,-571.5 1308,-487.5 1150,-487.5"/>
<text text-anchor="middle" x="1229" y="-556.3" font-family="SimSun" font-size="14.00">刺刀</text>
<polyline fill="none" stroke="black" points="1150,-548.5 1308,-548.5 "/>
<text text-anchor="middle" x="1173" y="-533.3" font-family="SimSun" font-size="14.00">20秒</text>
<polyline fill="none" stroke="black" points="1196,-525.5 1196,-548.5 "/>
<text text-anchor="middle" x="1252" y="-533.3" font-family="SimSun" font-size="14.00">[10, 20] 黄金</text>
<polyline fill="none" stroke="black" points="1150,-525.5 1308,-525.5 "/>
<text text-anchor="start" x="1158" y="-510.3" font-family="SimSun" font-size="14.00">X&gt;【火枪手】</text>
<text text-anchor="start" x="1158" y="-495.3" font-family="SimSun" font-size="14.00">+&gt;【刺刀火枪手】</text>
</g>
<!-- 0013.火药&#45;&gt;刺刀 -->
<g id="edge15" class="edge">
<title>0013.火药:e&#45;&gt;刺刀:w</title>
<path fill="none" stroke="black" d="M1078,-481.5C1112.7,-481.5 1112.09,-520.58 1139.89,-528.22"/>
<polygon fill="black" stroke="black" points="1139.64,-531.71 1150,-529.5 1140.52,-524.77 1139.64,-531.71"/>
</g>
<!-- 0015.火炮 -->
<g id="node17" class="node">
<title>0015.火炮</title>
<polygon fill="#228dff" stroke="black" points="1150,-399 1150,-468 1308,-468 1308,-399 1150,-399"/>
<text text-anchor="middle" x="1229" y="-452.8" font-family="SimSun" font-size="14.00">0015.火炮</text>
<polyline fill="none" stroke="black" points="1150,-445 1308,-445 "/>
<text text-anchor="middle" x="1173" y="-429.8" font-family="SimSun" font-size="14.00">20秒</text>
<polyline fill="none" stroke="black" points="1196,-422 1196,-445 "/>
<text text-anchor="middle" x="1252" y="-429.8" font-family="SimSun" font-size="14.00">[10, 20] 黄金</text>
<polyline fill="none" stroke="black" points="1150,-422 1308,-422 "/>
<text text-anchor="start" x="1158" y="-406.8" font-family="SimSun" font-size="14.00">+&gt;【火炮】</text>
</g>
<!-- 0013.火药&#45;&gt;0015.火炮 -->
<g id="edge16" class="edge">
<title>0013.火药:e&#45;&gt;0015.火炮:w</title>
<path fill="none" stroke="black" d="M1078,-481.5C1112.7,-481.5 1112.09,-442.42 1139.89,-434.78"/>
<polygon fill="black" stroke="black" points="1140.52,-438.23 1150,-433.5 1139.64,-431.29 1140.52,-438.23"/>
</g>
<!-- 0014.军事技术 -->
<g id="node19" class="node">
<title>0014.军事技术</title>
<polygon fill="#228dff" stroke="black" points="1380,-443 1380,-542 1539,-542 1539,-443 1380,-443"/>
<text text-anchor="middle" x="1459.5" y="-526.8" font-family="SimSun" font-size="14.00">0014.军事技术</text>
<polyline fill="none" stroke="black" points="1380,-519 1539,-519 "/>
<text text-anchor="middle" x="1403" y="-503.8" font-family="SimSun" font-size="14.00">30秒</text>
<polyline fill="none" stroke="black" points="1426,-496 1426,-519 "/>
<text text-anchor="middle" x="1482.5" y="-503.8" font-family="SimSun" font-size="14.00">[10, 20] 黄金</text>
<polyline fill="none" stroke="black" points="1380,-496 1539,-496 "/>
<text text-anchor="start" x="1388" y="-480.8" font-family="SimSun" font-size="14.00">提高攻城器械生产速度</text>
<text text-anchor="start" x="1388" y="-465.8" font-family="SimSun" font-size="14.00">降低攻城器械价格</text>
<text text-anchor="start" x="1388" y="-450.8" font-family="SimSun" font-size="14.00">+&gt;【兵工厂】</text>
</g>
<!-- 0015.火炮&#45;&gt;0014.军事技术 -->
<g id="edge18" class="edge">
<title>0015.火炮:e&#45;&gt;0014.军事技术:w</title>
<path fill="none" stroke="black" d="M1308,-433.5C1345.65,-433.5 1340.14,-482.37 1370.04,-491.16"/>
<polygon fill="black" stroke="black" points="1369.62,-494.63 1380,-492.5 1370.56,-487.7 1369.62,-494.63"/>
</g>
<!-- 弹道学 -->
<g id="node20" class="node">
<title>弹道学</title>
<polygon fill="#228dff" stroke="black" points="1380.5,-325 1380.5,-424 1538.5,-424 1538.5,-325 1380.5,-325"/>
<text text-anchor="middle" x="1459.5" y="-408.8" font-family="SimSun" font-size="14.00">弹道学</text>
<polyline fill="none" stroke="black" points="1380.5,-401 1538.5,-401 "/>
<text text-anchor="middle" x="1403.5" y="-385.8" font-family="SimSun" font-size="14.00">30秒</text>
<polyline fill="none" stroke="black" points="1426.5,-378 1426.5,-401 "/>
<text text-anchor="middle" x="1482.5" y="-385.8" font-family="SimSun" font-size="14.00">[10, 20] 黄金</text>
<polyline fill="none" stroke="black" points="1380.5,-378 1538.5,-378 "/>
<text text-anchor="start" x="1388.5" y="-362.8" font-family="SimSun" font-size="14.00">提高火炮射程</text>
<text text-anchor="start" x="1388.5" y="-347.8" font-family="SimSun" font-size="14.00">提高火炮攻击力</text>
<text text-anchor="start" x="1388.5" y="-332.8" font-family="SimSun" font-size="14.00">提高火炮速度</text>
</g>
<!-- 0015.火炮&#45;&gt;弹道学 -->
<g id="edge19" class="edge">
<title>0015.火炮:e&#45;&gt;弹道学:w</title>
<path fill="none" stroke="black" d="M1308,-433.5C1345.65,-433.5 1340.14,-384.63 1370.04,-375.84"/>
<polygon fill="black" stroke="black" points="1370.56,-379.3 1380,-374.5 1369.62,-372.37 1370.56,-379.3"/>
</g>
<!-- 0000.手工业 -->
<g id="node21" class="node">
<title>0000.手工业</title>
<polygon fill="#65d84b" stroke="black" points="0,-575 0,-674 158,-674 158,-575 0,-575"/>
<text text-anchor="middle" x="79" y="-658.8" font-family="SimSun" font-size="14.00">0000.手工业</text>
<polyline fill="none" stroke="black" points="0,-651 158,-651 "/>
<text text-anchor="middle" x="23" y="-635.8" font-family="SimSun" font-size="14.00">30秒</text>
<polyline fill="none" stroke="black" points="46,-628 46,-651 "/>
<text text-anchor="middle" x="102" y="-635.8" font-family="SimSun" font-size="14.00">[10, 20] 黄金</text>
<polyline fill="none" stroke="black" points="0,-628 158,-628 "/>
<text text-anchor="start" x="8" y="-612.8" font-family="SimSun" font-size="14.00">提高攻击力</text>
<text text-anchor="start" x="8" y="-597.8" font-family="SimSun" font-size="14.00">提高防御力</text>
<text text-anchor="start" x="8" y="-582.8" font-family="SimSun" font-size="14.00">+&gt;【铁匠铺】</text>
</g>
<!-- 0001.铸造 -->
<g id="node22" class="node">
<title>0001.铸造</title>
<polygon fill="#65d84b" stroke="black" points="230,-634.5 230,-718.5 388,-718.5 388,-634.5 230,-634.5"/>
<text text-anchor="middle" x="309" y="-703.3" font-family="SimSun" font-size="14.00">0001.铸造</text>
<polyline fill="none" stroke="black" points="230,-695.5 388,-695.5 "/>
<text text-anchor="middle" x="253" y="-680.3" font-family="SimSun" font-size="14.00">30秒</text>
<polyline fill="none" stroke="black" points="276,-672.5 276,-695.5 "/>
<text text-anchor="middle" x="332" y="-680.3" font-family="SimSun" font-size="14.00">[10, 20] 黄金</text>
<polyline fill="none" stroke="black" points="230,-672.5 388,-672.5 "/>
<text text-anchor="start" x="238" y="-657.3" font-family="SimSun" font-size="14.00">提高攻击力</text>
<text text-anchor="start" x="238" y="-642.3" font-family="SimSun" font-size="14.00">提高攻击速度</text>
</g>
<!-- 0000.手工业&#45;&gt;0001.铸造 -->
<g id="edge20" class="edge">
<title>0000.手工业:e&#45;&gt;0001.铸造:w</title>
<path fill="none" stroke="black" d="M158,-624.5C193.77,-624.5 191.42,-667.21 220.05,-675.21"/>
<polygon fill="black" stroke="black" points="219.63,-678.69 230,-676.5 220.53,-671.75 219.63,-678.69"/>
</g>
<!-- 0003.锁子甲 -->
<g id="node24" class="node">
<title>0003.锁子甲</title>
<polygon fill="#65d84b" stroke="black" points="230,-531.5 230,-615.5 388,-615.5 388,-531.5 230,-531.5"/>
<text text-anchor="middle" x="309" y="-600.3" font-family="SimSun" font-size="14.00">0003.锁子甲</text>
<polyline fill="none" stroke="black" points="230,-592.5 388,-592.5 "/>
<text text-anchor="middle" x="253" y="-577.3" font-family="SimSun" font-size="14.00">30秒</text>
<polyline fill="none" stroke="black" points="276,-569.5 276,-592.5 "/>
<text text-anchor="middle" x="332" y="-577.3" font-family="SimSun" font-size="14.00">[10, 20] 黄金</text>
<polyline fill="none" stroke="black" points="230,-569.5 388,-569.5 "/>
<text text-anchor="start" x="238" y="-554.3" font-family="SimSun" font-size="14.00">提高防御力</text>
<text text-anchor="start" x="238" y="-539.3" font-family="SimSun" font-size="14.00">提高速度</text>
</g>
<!-- 0000.手工业&#45;&gt;0003.锁子甲 -->
<g id="edge22" class="edge">
<title>0000.手工业:e&#45;&gt;0003.锁子甲:w</title>
<path fill="none" stroke="black" d="M158,-624.5C193.38,-624.5 191.61,-582.97 219.73,-574.86"/>
<polygon fill="black" stroke="black" points="220.55,-578.29 230,-573.5 219.63,-571.35 220.55,-578.29"/>
</g>
<!-- 0002.冶金 -->
<g id="node23" class="node">
<title>0002.冶金</title>
<polygon fill="#65d84b" stroke="black" points="460,-642 460,-711 618,-711 618,-642 460,-642"/>
<text text-anchor="middle" x="539" y="-695.8" font-family="SimSun" font-size="14.00">0002.冶金</text>
<polyline fill="none" stroke="black" points="460,-688 618,-688 "/>
<text text-anchor="middle" x="483" y="-672.8" font-family="SimSun" font-size="14.00">30秒</text>
<polyline fill="none" stroke="black" points="506,-665 506,-688 "/>
<text text-anchor="middle" x="562" y="-672.8" font-family="SimSun" font-size="14.00">[10, 20] 黄金</text>
<polyline fill="none" stroke="black" points="460,-665 618,-665 "/>
<text text-anchor="start" x="468" y="-649.8" font-family="SimSun" font-size="14.00">提高攻击力</text>
</g>
<!-- 0001.铸造&#45;&gt;0002.冶金 -->
<g id="edge21" class="edge">
<title>0001.铸造:e&#45;&gt;0002.冶金:w</title>
<path fill="none" stroke="black" d="M388,-676.5C416.38,-676.5 425.88,-676.5 449.98,-676.5"/>
<polygon fill="black" stroke="black" points="450,-680 460,-676.5 450,-673 450,-680"/>
</g>
<!-- 0004.板甲 -->
<g id="node25" class="node">
<title>0004.板甲</title>
<polygon fill="#65d84b" stroke="black" points="460,-539 460,-608 618,-608 618,-539 460,-539"/>
<text text-anchor="middle" x="539" y="-592.8" font-family="SimSun" font-size="14.00">0004.板甲</text>
<polyline fill="none" stroke="black" points="460,-585 618,-585 "/>
<text text-anchor="middle" x="483" y="-569.8" font-family="SimSun" font-size="14.00">30秒</text>
<polyline fill="none" stroke="black" points="506,-562 506,-585 "/>
<text text-anchor="middle" x="562" y="-569.8" font-family="SimSun" font-size="14.00">[10, 20] 黄金</text>
<polyline fill="none" stroke="black" points="460,-562 618,-562 "/>
<text text-anchor="start" x="468" y="-546.8" font-family="SimSun" font-size="14.00">提高防御力</text>
</g>
<!-- 0003.锁子甲&#45;&gt;0004.板甲 -->
<g id="edge23" class="edge">
<title>0003.锁子甲:e&#45;&gt;0004.板甲:w</title>
<path fill="none" stroke="black" d="M388,-573.5C416.38,-573.5 425.88,-573.5 449.98,-573.5"/>
<polygon fill="black" stroke="black" points="450,-577 460,-573.5 450,-570 450,-577"/>
</g>
</g>
</svg>
