<?xml version="1.0" encoding="UTF-8" standalone="no"?>
<!DOCTYPE svg PUBLIC "-//W3C//DTD SVG 1.1//EN"
 "http://www.w3.org/Graphics/SVG/1.1/DTD/svg11.dtd">
<!-- Generated by graphviz version 2.49.3 (20211023.0002)
 -->
<!-- Title: G Pages: 1 -->
<svg width="1089pt" height="943pt"
 viewBox="0.00 0.00 1089.00 943.00" xmlns="http://www.w3.org/2000/svg" xmlns:xlink="http://www.w3.org/1999/xlink">
<g id="graph0" class="graph" transform="scale(1 1) rotate(0) translate(4 939)">
<title>G</title>
<polygon fill="white" stroke="transparent" points="-4,4 -4,-939 1085,-939 1085,4 -4,4"/>
<!-- 0016.手推车 -->
<g id="node1" class="node">
<title>0016.手推车</title>
<polygon fill="#ffaa00" stroke="black" points="0,-118.5 0,-202.5 158,-202.5 158,-118.5 0,-118.5"/>
<text text-anchor="middle" x="79" y="-187.3" font-family="SimSun" font-size="14.00">0016.手推车</text>
<polyline fill="none" stroke="black" points="0,-179.5 158,-179.5 "/>
<text text-anchor="middle" x="23" y="-164.3" font-family="SimSun" font-size="14.00">20秒</text>
<polyline fill="none" stroke="black" points="46,-156.5 46,-179.5 "/>
<text text-anchor="middle" x="102" y="-164.3" font-family="SimSun" font-size="14.00">[10, 20] 黄金</text>
<polyline fill="none" stroke="black" points="0,-156.5 158,-156.5 "/>
<text text-anchor="start" x="8" y="-141.3" font-family="SimSun" font-size="14.00">提高工人速度</text>
<text text-anchor="start" x="8" y="-126.3" font-family="SimSun" font-size="14.00">减少卸货时间</text>
</g>
<!-- 0017.水利 -->
<g id="node2" class="node">
<title>0017.水利</title>
<polygon fill="#ffaa00" stroke="black" points="230,-235.5 230,-319.5 388,-319.5 388,-235.5 230,-235.5"/>
<text text-anchor="middle" x="309" y="-304.3" font-family="SimSun" font-size="14.00">0017.水利</text>
<polyline fill="none" stroke="black" points="230,-296.5 388,-296.5 "/>
<text text-anchor="middle" x="253" y="-281.3" font-family="SimSun" font-size="14.00">20秒</text>
<polyline fill="none" stroke="black" points="276,-273.5 276,-296.5 "/>
<text text-anchor="middle" x="332" y="-281.3" font-family="SimSun" font-size="14.00">[10, 20] 黄金</text>
<polyline fill="none" stroke="black" points="230,-273.5 388,-273.5 "/>
<text text-anchor="start" x="238" y="-258.3" font-family="SimSun" font-size="14.00">提高食物采集量</text>
<text text-anchor="start" x="238" y="-243.3" font-family="SimSun" font-size="14.00">降低食物采集时间</text>
</g>
<!-- 0016.手推车&#45;&gt;0017.水利 -->
<g id="edge1" class="edge">
<title>0016.手推车:e&#45;&gt;0017.水利:w</title>
<path fill="none" stroke="black" d="M158,-160.5C215.24,-160.5 174.77,-263.33 219.8,-276.19"/>
<polygon fill="black" stroke="black" points="219.63,-279.69 230,-277.5 220.53,-272.75 219.63,-279.69"/>
</g>
<!-- 0018.行政机构 -->
<g id="node3" class="node">
<title>0018.行政机构</title>
<polygon fill="#ffaa00" stroke="black" points="230,-111 230,-210 388,-210 388,-111 230,-111"/>
<text text-anchor="middle" x="309" y="-194.8" font-family="SimSun" font-size="14.00">0018.行政机构</text>
<polyline fill="none" stroke="black" points="230,-187 388,-187 "/>
<text text-anchor="middle" x="253" y="-171.8" font-family="SimSun" font-size="14.00">10秒</text>
<polyline fill="none" stroke="black" points="276,-164 276,-187 "/>
<text text-anchor="middle" x="332" y="-171.8" font-family="SimSun" font-size="14.00">[10, 20] 黄金</text>
<polyline fill="none" stroke="black" points="230,-164 388,-164 "/>
<text text-anchor="start" x="238" y="-148.8" font-family="SimSun" font-size="14.00">提高工人人口上限</text>
<text text-anchor="start" x="238" y="-133.8" font-family="SimSun" font-size="14.00">提高工人生产速度</text>
<text text-anchor="start" x="238" y="-118.8" font-family="SimSun" font-size="14.00">+&gt;【仓库】</text>
</g>
<!-- 0016.手推车&#45;&gt;0018.行政机构 -->
<g id="edge2" class="edge">
<title>0016.手推车:e&#45;&gt;0018.行政机构:w</title>
<path fill="none" stroke="black" d="M158,-160.5C186.38,-160.5 195.88,-160.5 219.98,-160.5"/>
<polygon fill="black" stroke="black" points="220,-164 230,-160.5 220,-157 220,-164"/>
</g>
<!-- 0019.采矿 -->
<g id="node4" class="node">
<title>0019.采矿</title>
<polygon fill="#ffaa00" stroke="black" points="230,-4.5 230,-88.5 388,-88.5 388,-4.5 230,-4.5"/>
<text text-anchor="middle" x="309" y="-73.3" font-family="SimSun" font-size="14.00">0019.采矿</text>
<polyline fill="none" stroke="black" points="230,-65.5 388,-65.5 "/>
<text text-anchor="middle" x="253" y="-50.3" font-family="SimSun" font-size="14.00">10秒</text>
<polyline fill="none" stroke="black" points="276,-42.5 276,-65.5 "/>
<text text-anchor="middle" x="332" y="-50.3" font-family="SimSun" font-size="14.00">[10, 20] 黄金</text>
<polyline fill="none" stroke="black" points="230,-42.5 388,-42.5 "/>
<text text-anchor="start" x="238" y="-27.3" font-family="SimSun" font-size="14.00">提高矿物采集量</text>
<text text-anchor="start" x="238" y="-12.3" font-family="SimSun" font-size="14.00">降低矿物采集时间</text>
</g>
<!-- 0016.手推车&#45;&gt;0019.采矿 -->
<g id="edge3" class="edge">
<title>0016.手推车:e&#45;&gt;0019.采矿:w</title>
<path fill="none" stroke="black" d="M158,-160.5C214.18,-160.5 175.63,-60.3 219.97,-47.78"/>
<polygon fill="black" stroke="black" points="220.52,-51.24 230,-46.5 219.64,-44.29 220.52,-51.24"/>
</g>
<!-- 0020.农学 -->
<g id="node5" class="node">
<title>0020.农学</title>
<polygon fill="#ffaa00" stroke="black" points="460,-236.5 460,-320.5 618,-320.5 618,-236.5 460,-236.5"/>
<text text-anchor="middle" x="539" y="-305.3" font-family="SimSun" font-size="14.00">0020.农学</text>
<polyline fill="none" stroke="black" points="460,-297.5 618,-297.5 "/>
<text text-anchor="middle" x="483" y="-282.3" font-family="SimSun" font-size="14.00">10秒</text>
<polyline fill="none" stroke="black" points="506,-274.5 506,-297.5 "/>
<text text-anchor="middle" x="562" y="-282.3" font-family="SimSun" font-size="14.00">[10, 20] 黄金</text>
<polyline fill="none" stroke="black" points="460,-274.5 618,-274.5 "/>
<text text-anchor="start" x="468" y="-259.3" font-family="SimSun" font-size="14.00">提高食物采集量</text>
<text text-anchor="start" x="468" y="-244.3" font-family="SimSun" font-size="14.00">+&gt;【农庄】</text>
</g>
<!-- 0017.水利&#45;&gt;0020.农学 -->
<g id="edge4" class="edge">
<title>0017.水利:e&#45;&gt;0020.农学:w</title>
<path fill="none" stroke="black" d="M388,-277.5C416.38,-277.5 425.88,-278.29 449.98,-278.46"/>
<polygon fill="black" stroke="black" points="449.99,-281.96 460,-278.5 450.01,-274.96 449.99,-281.96"/>
</g>
<!-- 0018.行政机构&#45;&gt;0020.农学 -->
<g id="edge5" class="edge">
<title>0018.行政机构:e&#45;&gt;0020.农学:w</title>
<path fill="none" stroke="black" d="M388,-160.5C445.72,-160.5 404.31,-264.64 450.03,-277.25"/>
<polygon fill="black" stroke="black" points="449.64,-280.73 460,-278.5 450.51,-273.79 449.64,-280.73"/>
</g>
<!-- 0022.矿井勘探 -->
<g id="node6" class="node">
<title>0022.矿井勘探</title>
<polygon fill="#ffaa00" stroke="black" points="460,-0.5 460,-84.5 618,-84.5 618,-0.5 460,-0.5"/>
<text text-anchor="middle" x="539" y="-69.3" font-family="SimSun" font-size="14.00">0022.矿井勘探</text>
<polyline fill="none" stroke="black" points="460,-61.5 618,-61.5 "/>
<text text-anchor="middle" x="483" y="-46.3" font-family="SimSun" font-size="14.00">10秒</text>
<polyline fill="none" stroke="black" points="506,-38.5 506,-61.5 "/>
<text text-anchor="middle" x="562" y="-46.3" font-family="SimSun" font-size="14.00">[10, 20] 黄金</text>
<polyline fill="none" stroke="black" points="460,-38.5 618,-38.5 "/>
<text text-anchor="start" x="468" y="-23.3" font-family="SimSun" font-size="14.00">提高矿物采集量</text>
<text text-anchor="start" x="468" y="-8.3" font-family="SimSun" font-size="14.00">+&gt;【矿场】</text>
</g>
<!-- 0018.行政机构&#45;&gt;0022.矿井勘探 -->
<g id="edge7" class="edge">
<title>0018.行政机构:e&#45;&gt;0022.矿井勘探:w</title>
<path fill="none" stroke="black" d="M388,-160.5C445.72,-160.5 404.31,-56.36 450.03,-43.75"/>
<polygon fill="black" stroke="black" points="450.51,-47.21 460,-42.5 449.64,-40.27 450.51,-47.21"/>
</g>
<!-- 0024.经济 -->
<g id="node7" class="node">
<title>0024.经济</title>
<polygon fill="#ffaa00" stroke="black" points="460,-103.5 460,-217.5 618,-217.5 618,-103.5 460,-103.5"/>
<text text-anchor="middle" x="539" y="-202.3" font-family="SimSun" font-size="14.00">0024.经济</text>
<polyline fill="none" stroke="black" points="460,-194.5 618,-194.5 "/>
<text text-anchor="middle" x="483" y="-179.3" font-family="SimSun" font-size="14.00">10秒</text>
<polyline fill="none" stroke="black" points="506,-171.5 506,-194.5 "/>
<text text-anchor="middle" x="562" y="-179.3" font-family="SimSun" font-size="14.00">[10, 20] 黄金</text>
<polyline fill="none" stroke="black" points="460,-171.5 618,-171.5 "/>
<text text-anchor="start" x="468" y="-156.3" font-family="SimSun" font-size="14.00">提高工人人口上限</text>
<text text-anchor="start" x="468" y="-141.3" font-family="SimSun" font-size="14.00">提高军事人口上限</text>
<text text-anchor="start" x="468" y="-126.3" font-family="SimSun" font-size="14.00">提高单位生产力</text>
<text text-anchor="start" x="468" y="-111.3" font-family="SimSun" font-size="14.00">+&gt;【市场】</text>
</g>
<!-- 0018.行政机构&#45;&gt;0024.经济 -->
<g id="edge8" class="edge">
<title>0018.行政机构:e&#45;&gt;0024.经济:w</title>
<path fill="none" stroke="black" d="M388,-160.5C416.38,-160.5 425.88,-160.5 449.98,-160.5"/>
<polygon fill="black" stroke="black" points="450,-164 460,-160.5 450,-157 450,-164"/>
</g>
<!-- 0019.采矿&#45;&gt;0022.矿井勘探 -->
<g id="edge6" class="edge">
<title>0019.采矿:e&#45;&gt;0022.矿井勘探:w</title>
<path fill="none" stroke="black" d="M388,-46.5C416.42,-46.5 425.85,-43.35 449.97,-42.64"/>
<polygon fill="black" stroke="black" points="450.05,-46.14 460,-42.5 449.95,-39.14 450.05,-46.14"/>
</g>
<!-- 世界渴望之城 -->
<g id="node9" class="node">
<title>世界渴望之城</title>
<polygon fill="#ffaa00" stroke="black" points="921,-96 921,-225 1081,-225 1081,-96 921,-96"/>
<text text-anchor="middle" x="1001" y="-209.8" font-family="SimSun" font-size="14.00">世界渴望之城</text>
<polyline fill="none" stroke="black" points="921,-202 1081,-202 "/>
<text text-anchor="middle" x="944.5" y="-186.8" font-family="SimSun" font-size="14.00">10秒</text>
<polyline fill="none" stroke="black" points="968,-179 968,-202 "/>
<text text-anchor="middle" x="1024.5" y="-186.8" font-family="SimSun" font-size="14.00">[10, 20] 黄金</text>
<polyline fill="none" stroke="black" points="921,-179 1081,-179 "/>
<text text-anchor="start" x="929" y="-163.8" font-family="SimSun" font-size="14.00">提高建筑速度</text>
<text text-anchor="start" x="929" y="-148.8" font-family="SimSun" font-size="14.00">提高单位生产力</text>
<text text-anchor="start" x="929" y="-133.8" font-family="SimSun" font-size="14.00">提高工人人口上限</text>
<text text-anchor="start" x="929" y="-118.8" font-family="SimSun" font-size="14.00">提高军事人口上限</text>
<text text-anchor="start" x="929" y="-103.8" font-family="SimSun" font-size="14.00">+&gt;【圣索菲亚大教堂】</text>
</g>
<!-- 0020.农学&#45;&gt;世界渴望之城 -->
<g id="edge11" class="edge">
<title>0020.农学:e&#45;&gt;世界渴望之城:w</title>
<path fill="none" stroke="black" d="M618,-278.5C723.24,-278.5 755.74,-275.25 849,-226.5 884.16,-208.12 878.93,-168.2 910.92,-161.47"/>
<polygon fill="black" stroke="black" points="911.38,-164.94 921,-160.5 910.71,-157.98 911.38,-164.94"/>
</g>
<!-- 0022.矿井勘探&#45;&gt;世界渴望之城 -->
<g id="edge12" class="edge">
<title>0022.矿井勘探:e&#45;&gt;世界渴望之城:w</title>
<path fill="none" stroke="black" d="M618,-42.5C723.14,-42.5 755.91,-44.64 849,-93.5 884.38,-112.07 878.72,-152.67 910.86,-159.51"/>
<polygon fill="black" stroke="black" points="910.71,-163.01 921,-160.5 911.39,-156.05 910.71,-163.01"/>
</g>
<!-- 0026.工程技术 -->
<g id="node8" class="node">
<title>0026.工程技术</title>
<polygon fill="#ffaa00" stroke="black" points="690.5,-103.5 690.5,-217.5 848.5,-217.5 848.5,-103.5 690.5,-103.5"/>
<text text-anchor="middle" x="769.5" y="-202.3" font-family="SimSun" font-size="14.00">0026.工程技术</text>
<polyline fill="none" stroke="black" points="690.5,-194.5 848.5,-194.5 "/>
<text text-anchor="middle" x="713.5" y="-179.3" font-family="SimSun" font-size="14.00">10秒</text>
<polyline fill="none" stroke="black" points="736.5,-171.5 736.5,-194.5 "/>
<text text-anchor="middle" x="792.5" y="-179.3" font-family="SimSun" font-size="14.00">[10, 20] 黄金</text>
<polyline fill="none" stroke="black" points="690.5,-171.5 848.5,-171.5 "/>
<text text-anchor="start" x="698.5" y="-156.3" font-family="SimSun" font-size="14.00">提高建筑速度</text>
<text text-anchor="start" x="698.5" y="-141.3" font-family="SimSun" font-size="14.00">提高单位生产力</text>
<text text-anchor="start" x="698.5" y="-126.3" font-family="SimSun" font-size="14.00">提高工人人口上限</text>
<text text-anchor="start" x="698.5" y="-111.3" font-family="SimSun" font-size="14.00">提高军事人口上限</text>
</g>
<!-- 0024.经济&#45;&gt;0026.工程技术 -->
<g id="edge9" class="edge">
<title>0024.经济:e&#45;&gt;0026.工程技术:w</title>
<path fill="none" stroke="black" d="M618,-160.5C646.38,-160.5 655.88,-160.5 679.98,-160.5"/>
<polygon fill="black" stroke="black" points="680,-164 690,-160.5 680,-157 680,-164"/>
</g>
<!-- 0026.工程技术&#45;&gt;世界渴望之城 -->
<g id="edge10" class="edge">
<title>0026.工程技术:e&#45;&gt;世界渴望之城:w</title>
<path fill="none" stroke="black" d="M849,-160.5C877.38,-160.5 886.88,-160.5 910.98,-160.5"/>
<polygon fill="black" stroke="black" points="911,-164 921,-160.5 911,-157 911,-164"/>
</g>
<!-- 军事训练 -->
<g id="node10" class="node">
<title>军事训练</title>
<polygon fill="#228dff" stroke="black" points="0,-482 0,-581 158,-581 158,-482 0,-482"/>
<text text-anchor="middle" x="79" y="-565.8" font-family="SimSun" font-size="14.00">军事训练</text>
<polyline fill="none" stroke="black" points="0,-558 158,-558 "/>
<text text-anchor="middle" x="23" y="-542.8" font-family="SimSun" font-size="14.00">20秒</text>
<polyline fill="none" stroke="black" points="46,-535 46,-558 "/>
<text text-anchor="middle" x="102" y="-542.8" font-family="SimSun" font-size="14.00">[10, 20] 黄金</text>
<polyline fill="none" stroke="black" points="0,-535 158,-535 "/>
<text text-anchor="start" x="8" y="-519.8" font-family="SimSun" font-size="14.00">X&gt;【民兵】</text>
<text text-anchor="start" x="8" y="-504.8" font-family="SimSun" font-size="14.00">+&gt;【刀剑手】</text>
<text text-anchor="start" x="8" y="-489.8" font-family="SimSun" font-size="14.00">+&gt;【盾牌手】</text>
</g>
<!-- 千夫队 -->
<g id="node11" class="node">
<title>千夫队</title>
<polygon fill="#228dff" stroke="black" points="230,-629 230,-728 388,-728 388,-629 230,-629"/>
<text text-anchor="middle" x="309" y="-712.8" font-family="SimSun" font-size="14.00">千夫队</text>
<polyline fill="none" stroke="black" points="230,-705 388,-705 "/>
<text text-anchor="middle" x="253" y="-689.8" font-family="SimSun" font-size="14.00">30秒</text>
<polyline fill="none" stroke="black" points="276,-682 276,-705 "/>
<text text-anchor="middle" x="332" y="-689.8" font-family="SimSun" font-size="14.00">[10, 20] 黄金</text>
<polyline fill="none" stroke="black" points="230,-682 388,-682 "/>
<text text-anchor="start" x="238" y="-666.8" font-family="SimSun" font-size="14.00">提高步兵攻击力</text>
<text text-anchor="start" x="238" y="-651.8" font-family="SimSun" font-size="14.00">提高步兵防御力</text>
<text text-anchor="start" x="238" y="-636.8" font-family="SimSun" font-size="14.00">+&gt;【兵营】</text>
</g>
<!-- 军事训练&#45;&gt;千夫队 -->
<g id="edge13" class="edge">
<title>军事训练:e&#45;&gt;千夫队:w</title>
<path fill="none" stroke="black" d="M158,-531.5C227.05,-531.5 164.34,-663.95 220.01,-677.4"/>
<polygon fill="black" stroke="black" points="219.68,-680.89 230,-678.5 220.44,-673.93 219.68,-680.89"/>
</g>
<!-- 0006.战术 -->
<g id="node12" class="node">
<title>0006.战术</title>
<polygon fill="#228dff" stroke="black" points="230,-541 230,-610 388,-610 388,-541 230,-541"/>
<text text-anchor="middle" x="309" y="-594.8" font-family="SimSun" font-size="14.00">0006.战术</text>
<polyline fill="none" stroke="black" points="230,-587 388,-587 "/>
<text text-anchor="middle" x="253" y="-571.8" font-family="SimSun" font-size="14.00">20秒</text>
<polyline fill="none" stroke="black" points="276,-564 276,-587 "/>
<text text-anchor="middle" x="332" y="-571.8" font-family="SimSun" font-size="14.00">[10, 20] 黄金</text>
<polyline fill="none" stroke="black" points="230,-564 388,-564 "/>
<text text-anchor="start" x="238" y="-548.8" font-family="SimSun" font-size="14.00">+&gt;【弓箭手】</text>
</g>
<!-- 军事训练&#45;&gt;0006.战术 -->
<g id="edge14" class="edge">
<title>军事训练:e&#45;&gt;0006.战术:w</title>
<path fill="none" stroke="black" d="M158,-531.5C191.69,-531.5 192.69,-567.02 219.74,-574.23"/>
<polygon fill="black" stroke="black" points="219.65,-577.75 230,-575.5 220.51,-570.8 219.65,-577.75"/>
</g>
<!-- 东正教 -->
<g id="node16" class="node">
<title>东正教</title>
<polygon fill="#228dff" stroke="black" points="230,-453 230,-522 388,-522 388,-453 230,-453"/>
<text text-anchor="middle" x="309" y="-506.8" font-family="SimSun" font-size="14.00">东正教</text>
<polyline fill="none" stroke="black" points="230,-499 388,-499 "/>
<text text-anchor="middle" x="253" y="-483.8" font-family="SimSun" font-size="14.00">20秒</text>
<polyline fill="none" stroke="black" points="276,-476 276,-499 "/>
<text text-anchor="middle" x="332" y="-483.8" font-family="SimSun" font-size="14.00">[10, 20] 黄金</text>
<polyline fill="none" stroke="black" points="230,-476 388,-476 "/>
<text text-anchor="start" x="238" y="-460.8" font-family="SimSun" font-size="14.00">+&gt;【僧侣】</text>
</g>
<!-- 军事训练&#45;&gt;东正教 -->
<g id="edge18" class="edge">
<title>军事训练:e&#45;&gt;东正教:w</title>
<path fill="none" stroke="black" d="M158,-531.5C191.69,-531.5 192.69,-495.98 219.74,-488.77"/>
<polygon fill="black" stroke="black" points="220.51,-492.2 230,-487.5 219.65,-485.25 220.51,-492.2"/>
</g>
<!-- 狄奥多西城墙 -->
<g id="node21" class="node">
<title>狄奥多西城墙</title>
<polygon fill="#228dff" stroke="black" points="230,-342 230,-411 388,-411 388,-342 230,-342"/>
<text text-anchor="middle" x="309" y="-395.8" font-family="SimSun" font-size="14.00">狄奥多西城墙</text>
<polyline fill="none" stroke="black" points="230,-388 388,-388 "/>
<text text-anchor="middle" x="253" y="-372.8" font-family="SimSun" font-size="14.00">30秒</text>
<polyline fill="none" stroke="black" points="276,-365 276,-388 "/>
<text text-anchor="middle" x="332" y="-372.8" font-family="SimSun" font-size="14.00">[10, 20] 黄金</text>
<polyline fill="none" stroke="black" points="230,-365 388,-365 "/>
<text text-anchor="start" x="238" y="-349.8" font-family="SimSun" font-size="14.00">+&gt;【石墙】</text>
</g>
<!-- 军事训练&#45;&gt;狄奥多西城墙 -->
<g id="edge23" class="edge">
<title>军事训练:e&#45;&gt;狄奥多西城墙:w</title>
<path fill="none" stroke="black" d="M158,-531.5C230.25,-531.5 161.47,-391.27 219.95,-377.57"/>
<polygon fill="black" stroke="black" points="220.43,-381.04 230,-376.5 219.68,-374.08 220.43,-381.04"/>
</g>
<!-- 希腊火 -->
<g id="node13" class="node">
<title>希腊火</title>
<polygon fill="#228dff" stroke="black" points="460,-656 460,-725 618,-725 618,-656 460,-656"/>
<text text-anchor="middle" x="539" y="-709.8" font-family="SimSun" font-size="14.00">希腊火</text>
<polyline fill="none" stroke="black" points="460,-702 618,-702 "/>
<text text-anchor="middle" x="483" y="-686.8" font-family="SimSun" font-size="14.00">20秒</text>
<polyline fill="none" stroke="black" points="506,-679 506,-702 "/>
<text text-anchor="middle" x="562" y="-686.8" font-family="SimSun" font-size="14.00">[10, 20] 黄金</text>
<polyline fill="none" stroke="black" points="460,-679 618,-679 "/>
<text text-anchor="start" x="468" y="-663.8" font-family="SimSun" font-size="14.00">+&gt;【希腊火喷射手】</text>
</g>
<!-- 0006.战术&#45;&gt;希腊火 -->
<g id="edge15" class="edge">
<title>0006.战术:e&#45;&gt;希腊火:w</title>
<path fill="none" stroke="black" d="M388,-575.5C444.53,-575.5 405.35,-676.57 449.92,-689.21"/>
<polygon fill="black" stroke="black" points="449.64,-692.7 460,-690.5 450.53,-685.76 449.64,-692.7"/>
</g>
<!-- 0008.马镫 -->
<g id="node18" class="node">
<title>0008.马镫</title>
<polygon fill="#228dff" stroke="black" points="460,-545 460,-614 618,-614 618,-545 460,-545"/>
<text text-anchor="middle" x="539" y="-598.8" font-family="SimSun" font-size="14.00">0008.马镫</text>
<polyline fill="none" stroke="black" points="460,-591 618,-591 "/>
<text text-anchor="middle" x="483" y="-575.8" font-family="SimSun" font-size="14.00">20秒</text>
<polyline fill="none" stroke="black" points="506,-568 506,-591 "/>
<text text-anchor="middle" x="562" y="-575.8" font-family="SimSun" font-size="14.00">[10, 20] 黄金</text>
<polyline fill="none" stroke="black" points="460,-568 618,-568 "/>
<text text-anchor="start" x="468" y="-552.8" font-family="SimSun" font-size="14.00">+&gt;【骑兵】</text>
</g>
<!-- 0006.战术&#45;&gt;0008.马镫 -->
<g id="edge20" class="edge">
<title>0006.战术:e&#45;&gt;0008.马镫:w</title>
<path fill="none" stroke="black" d="M388,-575.5C416.42,-575.5 425.85,-578.65 449.97,-579.36"/>
<polygon fill="black" stroke="black" points="449.95,-582.86 460,-579.5 450.05,-575.86 449.95,-582.86"/>
</g>
<!-- 陶罐希腊火 -->
<g id="node14" class="node">
<title>陶罐希腊火</title>
<polygon fill="#228dff" stroke="black" points="690.5,-661 690.5,-730 848.5,-730 848.5,-661 690.5,-661"/>
<text text-anchor="middle" x="769.5" y="-714.8" font-family="SimSun" font-size="14.00">陶罐希腊火</text>
<polyline fill="none" stroke="black" points="690.5,-707 848.5,-707 "/>
<text text-anchor="middle" x="713.5" y="-691.8" font-family="SimSun" font-size="14.00">20秒</text>
<polyline fill="none" stroke="black" points="736.5,-684 736.5,-707 "/>
<text text-anchor="middle" x="792.5" y="-691.8" font-family="SimSun" font-size="14.00">[10, 20] 黄金</text>
<polyline fill="none" stroke="black" points="690.5,-684 848.5,-684 "/>
<text text-anchor="start" x="698.5" y="-668.8" font-family="SimSun" font-size="14.00">+&gt;【希腊火掷弹兵】</text>
</g>
<!-- 希腊火&#45;&gt;陶罐希腊火 -->
<g id="edge16" class="edge">
<title>希腊火:e&#45;&gt;陶罐希腊火:w</title>
<path fill="none" stroke="black" d="M618,-690.5C646.44,-690.5 655.83,-694.43 679.96,-695.32"/>
<polygon fill="black" stroke="black" points="679.94,-698.82 690,-695.5 680.06,-691.82 679.94,-698.82"/>
</g>
<!-- 防御火力 -->
<g id="node15" class="node">
<title>防御火力</title>
<polygon fill="#228dff" stroke="black" points="922,-641.5 922,-755.5 1080,-755.5 1080,-641.5 922,-641.5"/>
<text text-anchor="middle" x="1001" y="-740.3" font-family="SimSun" font-size="14.00">防御火力</text>
<polyline fill="none" stroke="black" points="922,-732.5 1080,-732.5 "/>
<text text-anchor="middle" x="945" y="-717.3" font-family="SimSun" font-size="14.00">30秒</text>
<polyline fill="none" stroke="black" points="968,-709.5 968,-732.5 "/>
<text text-anchor="middle" x="1024" y="-717.3" font-family="SimSun" font-size="14.00">[10, 20] 黄金</text>
<polyline fill="none" stroke="black" points="922,-709.5 1080,-709.5 "/>
<text text-anchor="start" x="930" y="-694.3" font-family="SimSun" font-size="14.00">提高远程单位攻击力</text>
<text text-anchor="start" x="930" y="-679.3" font-family="SimSun" font-size="14.00">提高射击距离</text>
<text text-anchor="start" x="930" y="-664.3" font-family="SimSun" font-size="14.00">+&gt;【靶场】</text>
<text text-anchor="start" x="930" y="-649.3" font-family="SimSun" font-size="14.00">+&gt;【驻防点】</text>
</g>
<!-- 陶罐希腊火&#45;&gt;防御火力 -->
<g id="edge17" class="edge">
<title>陶罐希腊火:e&#45;&gt;防御火力:w</title>
<path fill="none" stroke="black" d="M849,-695.5C877.4,-695.5 886.86,-697.86 910.97,-698.39"/>
<polygon fill="black" stroke="black" points="910.96,-701.89 921,-698.5 911.04,-694.89 910.96,-701.89"/>
</g>
<!-- 牧首制 -->
<g id="node17" class="node">
<title>牧首制</title>
<polygon fill="#228dff" stroke="black" points="460,-441.5 460,-525.5 618,-525.5 618,-441.5 460,-441.5"/>
<text text-anchor="middle" x="539" y="-510.3" font-family="SimSun" font-size="14.00">牧首制</text>
<polyline fill="none" stroke="black" points="460,-502.5 618,-502.5 "/>
<text text-anchor="middle" x="483" y="-487.3" font-family="SimSun" font-size="14.00">20秒</text>
<polyline fill="none" stroke="black" points="506,-479.5 506,-502.5 "/>
<text text-anchor="middle" x="562" y="-487.3" font-family="SimSun" font-size="14.00">[10, 20] 黄金</text>
<polyline fill="none" stroke="black" points="460,-479.5 618,-479.5 "/>
<text text-anchor="start" x="468" y="-464.3" font-family="SimSun" font-size="14.00">&#45;&gt;【僧侣】</text>
<text text-anchor="start" x="468" y="-449.3" font-family="SimSun" font-size="14.00">+&gt;【牧首】</text>
</g>
<!-- 东正教&#45;&gt;牧首制 -->
<g id="edge19" class="edge">
<title>东正教:e&#45;&gt;牧首制:w</title>
<path fill="none" stroke="black" d="M388,-487.5C416.42,-487.5 425.85,-484.35 449.97,-483.64"/>
<polygon fill="black" stroke="black" points="450.05,-487.14 460,-483.5 449.95,-480.14 450.05,-487.14"/>
</g>
<!-- 骑枪 -->
<g id="node19" class="node">
<title>骑枪</title>
<polygon fill="#228dff" stroke="black" points="690.5,-543.5 690.5,-627.5 848.5,-627.5 848.5,-543.5 690.5,-543.5"/>
<text text-anchor="middle" x="769.5" y="-612.3" font-family="SimSun" font-size="14.00">骑枪</text>
<polyline fill="none" stroke="black" points="690.5,-604.5 848.5,-604.5 "/>
<text text-anchor="middle" x="713.5" y="-589.3" font-family="SimSun" font-size="14.00">20秒</text>
<polyline fill="none" stroke="black" points="736.5,-581.5 736.5,-604.5 "/>
<text text-anchor="middle" x="792.5" y="-589.3" font-family="SimSun" font-size="14.00">[10, 20] 黄金</text>
<polyline fill="none" stroke="black" points="690.5,-581.5 848.5,-581.5 "/>
<text text-anchor="start" x="698.5" y="-566.3" font-family="SimSun" font-size="14.00">X&gt;【骑兵】</text>
<text text-anchor="start" x="698.5" y="-551.3" font-family="SimSun" font-size="14.00">+&gt;【重骑兵】</text>
</g>
<!-- 0008.马镫&#45;&gt;骑枪 -->
<g id="edge21" class="edge">
<title>0008.马镫:e&#45;&gt;骑枪:w</title>
<path fill="none" stroke="black" d="M618,-579.5C646.47,-579.5 655.81,-584.22 679.95,-585.29"/>
<polygon fill="black" stroke="black" points="679.93,-588.79 690,-585.5 680.08,-581.79 679.93,-588.79"/>
</g>
<!-- 0011.马匹育种 -->
<g id="node23" class="node">
<title>0011.马匹育种</title>
<polygon fill="#228dff" stroke="black" points="690.5,-425 690.5,-524 848.5,-524 848.5,-425 690.5,-425"/>
<text text-anchor="middle" x="769.5" y="-508.8" font-family="SimSun" font-size="14.00">0011.马匹育种</text>
<polyline fill="none" stroke="black" points="690.5,-501 848.5,-501 "/>
<text text-anchor="middle" x="713.5" y="-485.8" font-family="SimSun" font-size="14.00">30秒</text>
<polyline fill="none" stroke="black" points="736.5,-478 736.5,-501 "/>
<text text-anchor="middle" x="792.5" y="-485.8" font-family="SimSun" font-size="14.00">[10, 20] 黄金</text>
<polyline fill="none" stroke="black" points="690.5,-478 848.5,-478 "/>
<text text-anchor="start" x="698.5" y="-462.8" font-family="SimSun" font-size="14.00">提高骑兵速度</text>
<text text-anchor="start" x="698.5" y="-447.8" font-family="SimSun" font-size="14.00">降低骑兵价格</text>
<text text-anchor="start" x="698.5" y="-432.8" font-family="SimSun" font-size="14.00">+&gt;【马厩】</text>
</g>
<!-- 0008.马镫&#45;&gt;0011.马匹育种 -->
<g id="edge25" class="edge">
<title>0008.马镫:e&#45;&gt;0011.马匹育种:w</title>
<path fill="none" stroke="black" d="M618,-579.5C670.83,-579.5 638.45,-487.98 679.96,-475.83"/>
<polygon fill="black" stroke="black" points="680.55,-479.28 690,-474.5 679.63,-472.34 680.55,-479.28"/>
</g>
<!-- 重装战术 -->
<g id="node20" class="node">
<title>重装战术</title>
<polygon fill="#228dff" stroke="black" points="922,-538.5 922,-622.5 1080,-622.5 1080,-538.5 922,-538.5"/>
<text text-anchor="middle" x="1001" y="-607.3" font-family="SimSun" font-size="14.00">重装战术</text>
<polyline fill="none" stroke="black" points="922,-599.5 1080,-599.5 "/>
<text text-anchor="middle" x="945" y="-584.3" font-family="SimSun" font-size="14.00">20秒</text>
<polyline fill="none" stroke="black" points="968,-576.5 968,-599.5 "/>
<text text-anchor="middle" x="1024" y="-584.3" font-family="SimSun" font-size="14.00">[10, 20] 黄金</text>
<polyline fill="none" stroke="black" points="922,-576.5 1080,-576.5 "/>
<text text-anchor="start" x="930" y="-561.3" font-family="SimSun" font-size="14.00">X&gt;【重骑兵】</text>
<text text-anchor="start" x="930" y="-546.3" font-family="SimSun" font-size="14.00">+&gt;【甲胄骑士】</text>
</g>
<!-- 骑枪&#45;&gt;重装战术 -->
<g id="edge22" class="edge">
<title>骑枪:e&#45;&gt;重装战术:w</title>
<path fill="none" stroke="black" d="M849,-585.5C877.44,-585.5 886.83,-581.57 910.96,-580.68"/>
<polygon fill="black" stroke="black" points="911.06,-584.18 921,-580.5 910.94,-577.18 911.06,-584.18"/>
</g>
<!-- 0012.攻城器械 -->
<g id="node22" class="node">
<title>0012.攻城器械</title>
<polygon fill="#228dff" stroke="black" points="460,-341 460,-410 618,-410 618,-341 460,-341"/>
<text text-anchor="middle" x="539" y="-394.8" font-family="SimSun" font-size="14.00">0012.攻城器械</text>
<polyline fill="none" stroke="black" points="460,-387 618,-387 "/>
<text text-anchor="middle" x="483" y="-371.8" font-family="SimSun" font-size="14.00">30秒</text>
<polyline fill="none" stroke="black" points="506,-364 506,-387 "/>
<text text-anchor="middle" x="562" y="-371.8" font-family="SimSun" font-size="14.00">[10, 20] 黄金</text>
<polyline fill="none" stroke="black" points="460,-364 618,-364 "/>
<text text-anchor="start" x="468" y="-348.8" font-family="SimSun" font-size="14.00">+&gt;【冲车】</text>
</g>
<!-- 狄奥多西城墙&#45;&gt;0012.攻城器械 -->
<g id="edge24" class="edge">
<title>狄奥多西城墙:e&#45;&gt;0012.攻城器械:w</title>
<path fill="none" stroke="black" d="M388,-376.5C416.38,-376.5 425.88,-375.71 449.98,-375.54"/>
<polygon fill="black" stroke="black" points="450.01,-379.04 460,-375.5 449.99,-372.04 450.01,-379.04"/>
</g>
<!-- 0014.军事技术 -->
<g id="node24" class="node">
<title>0014.军事技术</title>
<polygon fill="#228dff" stroke="black" points="690,-307 690,-406 849,-406 849,-307 690,-307"/>
<text text-anchor="middle" x="769.5" y="-390.8" font-family="SimSun" font-size="14.00">0014.军事技术</text>
<polyline fill="none" stroke="black" points="690,-383 849,-383 "/>
<text text-anchor="middle" x="713" y="-367.8" font-family="SimSun" font-size="14.00">30秒</text>
<polyline fill="none" stroke="black" points="736,-360 736,-383 "/>
<text text-anchor="middle" x="792.5" y="-367.8" font-family="SimSun" font-size="14.00">[10, 20] 黄金</text>
<polyline fill="none" stroke="black" points="690,-360 849,-360 "/>
<text text-anchor="start" x="698" y="-344.8" font-family="SimSun" font-size="14.00">提高攻城器械生产速度</text>
<text text-anchor="start" x="698" y="-329.8" font-family="SimSun" font-size="14.00">降低攻城器械价格</text>
<text text-anchor="start" x="698" y="-314.8" font-family="SimSun" font-size="14.00">+&gt;【兵工厂】</text>
</g>
<!-- 0012.攻城器械&#45;&gt;0014.军事技术 -->
<g id="edge26" class="edge">
<title>0012.攻城器械:e&#45;&gt;0014.军事技术:w</title>
<path fill="none" stroke="black" d="M618,-375.5C647.35,-375.5 655.24,-360.56 679.72,-357.18"/>
<polygon fill="black" stroke="black" points="680.25,-360.65 690,-356.5 679.79,-353.66 680.25,-360.65"/>
</g>
<!-- 0000.手工业 -->
<g id="node25" class="node">
<title>0000.手工业</title>
<polygon fill="#65d84b" stroke="black" points="0,-791 0,-890 158,-890 158,-791 0,-791"/>
<text text-anchor="middle" x="79" y="-874.8" font-family="SimSun" font-size="14.00">0000.手工业</text>
<polyline fill="none" stroke="black" points="0,-867 158,-867 "/>
<text text-anchor="middle" x="23" y="-851.8" font-family="SimSun" font-size="14.00">30秒</text>
<polyline fill="none" stroke="black" points="46,-844 46,-867 "/>
<text text-anchor="middle" x="102" y="-851.8" font-family="SimSun" font-size="14.00">[10, 20] 黄金</text>
<polyline fill="none" stroke="black" points="0,-844 158,-844 "/>
<text text-anchor="start" x="8" y="-828.8" font-family="SimSun" font-size="14.00">提高攻击力</text>
<text text-anchor="start" x="8" y="-813.8" font-family="SimSun" font-size="14.00">提高防御力</text>
<text text-anchor="start" x="8" y="-798.8" font-family="SimSun" font-size="14.00">+&gt;【铁匠铺】</text>
</g>
<!-- 0001.铸造 -->
<g id="node26" class="node">
<title>0001.铸造</title>
<polygon fill="#65d84b" stroke="black" points="230,-850.5 230,-934.5 388,-934.5 388,-850.5 230,-850.5"/>
<text text-anchor="middle" x="309" y="-919.3" font-family="SimSun" font-size="14.00">0001.铸造</text>
<polyline fill="none" stroke="black" points="230,-911.5 388,-911.5 "/>
<text text-anchor="middle" x="253" y="-896.3" font-family="SimSun" font-size="14.00">30秒</text>
<polyline fill="none" stroke="black" points="276,-888.5 276,-911.5 "/>
<text text-anchor="middle" x="332" y="-896.3" font-family="SimSun" font-size="14.00">[10, 20] 黄金</text>
<polyline fill="none" stroke="black" points="230,-888.5 388,-888.5 "/>
<text text-anchor="start" x="238" y="-873.3" font-family="SimSun" font-size="14.00">提高攻击力</text>
<text text-anchor="start" x="238" y="-858.3" font-family="SimSun" font-size="14.00">提高攻击速度</text>
</g>
<!-- 0000.手工业&#45;&gt;0001.铸造 -->
<g id="edge27" class="edge">
<title>0000.手工业:e&#45;&gt;0001.铸造:w</title>
<path fill="none" stroke="black" d="M158,-840.5C193.77,-840.5 191.42,-883.21 220.05,-891.21"/>
<polygon fill="black" stroke="black" points="219.63,-894.69 230,-892.5 220.53,-887.75 219.63,-894.69"/>
</g>
<!-- 0003.锁子甲 -->
<g id="node27" class="node">
<title>0003.锁子甲</title>
<polygon fill="#65d84b" stroke="black" points="230,-747.5 230,-831.5 388,-831.5 388,-747.5 230,-747.5"/>
<text text-anchor="middle" x="309" y="-816.3" font-family="SimSun" font-size="14.00">0003.锁子甲</text>
<polyline fill="none" stroke="black" points="230,-808.5 388,-808.5 "/>
<text text-anchor="middle" x="253" y="-793.3" font-family="SimSun" font-size="14.00">30秒</text>
<polyline fill="none" stroke="black" points="276,-785.5 276,-808.5 "/>
<text text-anchor="middle" x="332" y="-793.3" font-family="SimSun" font-size="14.00">[10, 20] 黄金</text>
<polyline fill="none" stroke="black" points="230,-785.5 388,-785.5 "/>
<text text-anchor="start" x="238" y="-770.3" font-family="SimSun" font-size="14.00">提高防御力</text>
<text text-anchor="start" x="238" y="-755.3" font-family="SimSun" font-size="14.00">提高速度</text>
</g>
<!-- 0000.手工业&#45;&gt;0003.锁子甲 -->
<g id="edge28" class="edge">
<title>0000.手工业:e&#45;&gt;0003.锁子甲:w</title>
<path fill="none" stroke="black" d="M158,-840.5C193.38,-840.5 191.61,-798.97 219.73,-790.86"/>
<polygon fill="black" stroke="black" points="220.55,-794.29 230,-789.5 219.63,-787.35 220.55,-794.29"/>
</g>
<!-- 0004.板甲 -->
<g id="node28" class="node">
<title>0004.板甲</title>
<polygon fill="#65d84b" stroke="black" points="460,-755 460,-824 618,-824 618,-755 460,-755"/>
<text text-anchor="middle" x="539" y="-808.8" font-family="SimSun" font-size="14.00">0004.板甲</text>
<polyline fill="none" stroke="black" points="460,-801 618,-801 "/>
<text text-anchor="middle" x="483" y="-785.8" font-family="SimSun" font-size="14.00">30秒</text>
<polyline fill="none" stroke="black" points="506,-778 506,-801 "/>
<text text-anchor="middle" x="562" y="-785.8" font-family="SimSun" font-size="14.00">[10, 20] 黄金</text>
<polyline fill="none" stroke="black" points="460,-778 618,-778 "/>
<text text-anchor="start" x="468" y="-762.8" font-family="SimSun" font-size="14.00">提高防御力</text>
</g>
<!-- 0003.锁子甲&#45;&gt;0004.板甲 -->
<g id="edge29" class="edge">
<title>0003.锁子甲:e&#45;&gt;0004.板甲:w</title>
<path fill="none" stroke="black" d="M388,-789.5C416.38,-789.5 425.88,-789.5 449.98,-789.5"/>
<polygon fill="black" stroke="black" points="450,-793 460,-789.5 450,-786 450,-793"/>
</g>
</g>
</svg>
