<?xml version="1.0" encoding="UTF-8" standalone="no"?>
<!DOCTYPE svg PUBLIC "-//W3C//DTD SVG 1.1//EN"
 "http://www.w3.org/Graphics/SVG/1.1/DTD/svg11.dtd">
<!-- Generated by graphviz version 2.49.3 (20211023.0002)
 -->
<!-- Title: G Pages: 1 -->
<svg width="1317pt" height="844pt"
 viewBox="0.00 0.00 1317.00 844.00" xmlns="http://www.w3.org/2000/svg" xmlns:xlink="http://www.w3.org/1999/xlink">
<g id="graph0" class="graph" transform="scale(1 1) rotate(0) translate(4 840)">
<title>G</title>
<polygon fill="white" stroke="transparent" points="-4,4 -4,-840 1313,-840 1313,4 -4,4"/>
<!-- 手推车 -->
<g id="node1" class="node">
<title>手推车</title>
<polygon fill="#ffaa00" stroke="black" points="0,-118.5 0,-202.5 158,-202.5 158,-118.5 0,-118.5"/>
<text text-anchor="middle" x="79" y="-187.3" font-family="SimSun" font-size="14.00">手推车</text>
<polyline fill="none" stroke="black" points="0,-179.5 158,-179.5 "/>
<text text-anchor="middle" x="23" y="-164.3" font-family="SimSun" font-size="14.00">20秒</text>
<polyline fill="none" stroke="black" points="46,-156.5 46,-179.5 "/>
<text text-anchor="middle" x="102" y="-164.3" font-family="SimSun" font-size="14.00">[10, 20] 黄金</text>
<polyline fill="none" stroke="black" points="0,-156.5 158,-156.5 "/>
<text text-anchor="start" x="8" y="-141.3" font-family="SimSun" font-size="14.00">提高工人速度</text>
<text text-anchor="start" x="8" y="-126.3" font-family="SimSun" font-size="14.00">减少卸货时间</text>
</g>
<!-- 水利 -->
<g id="node2" class="node">
<title>水利</title>
<polygon fill="#ffaa00" stroke="black" points="230,-233.5 230,-317.5 388,-317.5 388,-233.5 230,-233.5"/>
<text text-anchor="middle" x="309" y="-302.3" font-family="SimSun" font-size="14.00">水利</text>
<polyline fill="none" stroke="black" points="230,-294.5 388,-294.5 "/>
<text text-anchor="middle" x="253" y="-279.3" font-family="SimSun" font-size="14.00">20秒</text>
<polyline fill="none" stroke="black" points="276,-271.5 276,-294.5 "/>
<text text-anchor="middle" x="332" y="-279.3" font-family="SimSun" font-size="14.00">[10, 20] 黄金</text>
<polyline fill="none" stroke="black" points="230,-271.5 388,-271.5 "/>
<text text-anchor="start" x="238" y="-256.3" font-family="SimSun" font-size="14.00">提高食物采集量</text>
<text text-anchor="start" x="238" y="-241.3" font-family="SimSun" font-size="14.00">降低食物采集时间</text>
</g>
<!-- 手推车&#45;&gt;水利 -->
<g id="edge1" class="edge">
<title>手推车:e&#45;&gt;水利:w</title>
<path fill="none" stroke="black" d="M158,-160.5C214.53,-160.5 175.35,-261.57 219.92,-274.21"/>
<polygon fill="black" stroke="black" points="219.64,-277.7 230,-275.5 220.53,-270.76 219.64,-277.7"/>
</g>
<!-- 采矿 -->
<g id="node3" class="node">
<title>采矿</title>
<polygon fill="#ffaa00" stroke="black" points="230,-4.5 230,-88.5 388,-88.5 388,-4.5 230,-4.5"/>
<text text-anchor="middle" x="309" y="-73.3" font-family="SimSun" font-size="14.00">采矿</text>
<polyline fill="none" stroke="black" points="230,-65.5 388,-65.5 "/>
<text text-anchor="middle" x="253" y="-50.3" font-family="SimSun" font-size="14.00">10秒</text>
<polyline fill="none" stroke="black" points="276,-42.5 276,-65.5 "/>
<text text-anchor="middle" x="332" y="-50.3" font-family="SimSun" font-size="14.00">[10, 20] 黄金</text>
<polyline fill="none" stroke="black" points="230,-42.5 388,-42.5 "/>
<text text-anchor="start" x="238" y="-27.3" font-family="SimSun" font-size="14.00">提高矿物采集量</text>
<text text-anchor="start" x="238" y="-12.3" font-family="SimSun" font-size="14.00">降低矿物采集时间</text>
</g>
<!-- 手推车&#45;&gt;采矿 -->
<g id="edge2" class="edge">
<title>手推车:e&#45;&gt;采矿:w</title>
<path fill="none" stroke="black" d="M158,-160.5C214.18,-160.5 175.63,-60.3 219.97,-47.78"/>
<polygon fill="black" stroke="black" points="220.52,-51.24 230,-46.5 219.64,-44.29 220.52,-51.24"/>
</g>
<!-- 行政机构 -->
<g id="node4" class="node">
<title>行政机构</title>
<polygon fill="#ffaa00" stroke="black" points="230,-111 230,-210 388,-210 388,-111 230,-111"/>
<text text-anchor="middle" x="309" y="-194.8" font-family="SimSun" font-size="14.00">行政机构</text>
<polyline fill="none" stroke="black" points="230,-187 388,-187 "/>
<text text-anchor="middle" x="253" y="-171.8" font-family="SimSun" font-size="14.00">10秒</text>
<polyline fill="none" stroke="black" points="276,-164 276,-187 "/>
<text text-anchor="middle" x="332" y="-171.8" font-family="SimSun" font-size="14.00">[10, 20] 黄金</text>
<polyline fill="none" stroke="black" points="230,-164 388,-164 "/>
<text text-anchor="start" x="238" y="-148.8" font-family="SimSun" font-size="14.00">提高工人人口上限</text>
<text text-anchor="start" x="238" y="-133.8" font-family="SimSun" font-size="14.00">提高工人生产速度</text>
<text text-anchor="start" x="238" y="-118.8" font-family="SimSun" font-size="14.00">+&gt;【仓库】</text>
</g>
<!-- 手推车&#45;&gt;行政机构 -->
<g id="edge3" class="edge">
<title>手推车:e&#45;&gt;行政机构:w</title>
<path fill="none" stroke="black" d="M158,-160.5C186.38,-160.5 195.88,-160.5 219.98,-160.5"/>
<polygon fill="black" stroke="black" points="220,-164 230,-160.5 220,-157 220,-164"/>
</g>
<!-- 农学 -->
<g id="node5" class="node">
<title>农学</title>
<polygon fill="#ffaa00" stroke="black" points="460,-236.5 460,-320.5 618,-320.5 618,-236.5 460,-236.5"/>
<text text-anchor="middle" x="539" y="-305.3" font-family="SimSun" font-size="14.00">农学</text>
<polyline fill="none" stroke="black" points="460,-297.5 618,-297.5 "/>
<text text-anchor="middle" x="483" y="-282.3" font-family="SimSun" font-size="14.00">10秒</text>
<polyline fill="none" stroke="black" points="506,-274.5 506,-297.5 "/>
<text text-anchor="middle" x="562" y="-282.3" font-family="SimSun" font-size="14.00">[10, 20] 黄金</text>
<polyline fill="none" stroke="black" points="460,-274.5 618,-274.5 "/>
<text text-anchor="start" x="468" y="-259.3" font-family="SimSun" font-size="14.00">提高食物采集量</text>
<text text-anchor="start" x="468" y="-244.3" font-family="SimSun" font-size="14.00">+&gt;【农庄】</text>
</g>
<!-- 水利&#45;&gt;农学 -->
<g id="edge4" class="edge">
<title>水利:e&#45;&gt;农学:w</title>
<path fill="none" stroke="black" d="M388,-275.5C416.4,-275.5 425.86,-277.86 449.97,-278.39"/>
<polygon fill="black" stroke="black" points="449.96,-281.89 460,-278.5 450.04,-274.89 449.96,-281.89"/>
</g>
<!-- 矿井勘探 -->
<g id="node7" class="node">
<title>矿井勘探</title>
<polygon fill="#ffaa00" stroke="black" points="460,-0.5 460,-84.5 618,-84.5 618,-0.5 460,-0.5"/>
<text text-anchor="middle" x="539" y="-69.3" font-family="SimSun" font-size="14.00">矿井勘探</text>
<polyline fill="none" stroke="black" points="460,-61.5 618,-61.5 "/>
<text text-anchor="middle" x="483" y="-46.3" font-family="SimSun" font-size="14.00">10秒</text>
<polyline fill="none" stroke="black" points="506,-38.5 506,-61.5 "/>
<text text-anchor="middle" x="562" y="-46.3" font-family="SimSun" font-size="14.00">[10, 20] 黄金</text>
<polyline fill="none" stroke="black" points="460,-38.5 618,-38.5 "/>
<text text-anchor="start" x="468" y="-23.3" font-family="SimSun" font-size="14.00">提高矿物采集量</text>
<text text-anchor="start" x="468" y="-8.3" font-family="SimSun" font-size="14.00">+&gt;【矿场】</text>
</g>
<!-- 采矿&#45;&gt;矿井勘探 -->
<g id="edge7" class="edge">
<title>采矿:e&#45;&gt;矿井勘探:w</title>
<path fill="none" stroke="black" d="M388,-46.5C416.42,-46.5 425.85,-43.35 449.97,-42.64"/>
<polygon fill="black" stroke="black" points="450.05,-46.14 460,-42.5 449.95,-39.14 450.05,-46.14"/>
</g>
<!-- 行政机构&#45;&gt;农学 -->
<g id="edge5" class="edge">
<title>行政机构:e&#45;&gt;农学:w</title>
<path fill="none" stroke="black" d="M388,-160.5C445.72,-160.5 404.31,-264.64 450.03,-277.25"/>
<polygon fill="black" stroke="black" points="449.64,-280.73 460,-278.5 450.51,-273.79 449.64,-280.73"/>
</g>
<!-- 行政机构&#45;&gt;矿井勘探 -->
<g id="edge8" class="edge">
<title>行政机构:e&#45;&gt;矿井勘探:w</title>
<path fill="none" stroke="black" d="M388,-160.5C445.72,-160.5 404.31,-56.36 450.03,-43.75"/>
<polygon fill="black" stroke="black" points="450.51,-47.21 460,-42.5 449.64,-40.27 450.51,-47.21"/>
</g>
<!-- 教育 -->
<g id="node9" class="node">
<title>教育</title>
<polygon fill="#ffaa00" stroke="black" points="460,-103.5 460,-217.5 618,-217.5 618,-103.5 460,-103.5"/>
<text text-anchor="middle" x="539" y="-202.3" font-family="SimSun" font-size="14.00">教育</text>
<polyline fill="none" stroke="black" points="460,-194.5 618,-194.5 "/>
<text text-anchor="middle" x="483" y="-179.3" font-family="SimSun" font-size="14.00">10秒</text>
<polyline fill="none" stroke="black" points="506,-171.5 506,-194.5 "/>
<text text-anchor="middle" x="562" y="-179.3" font-family="SimSun" font-size="14.00">[10, 20] 黄金</text>
<polyline fill="none" stroke="black" points="460,-171.5 618,-171.5 "/>
<text text-anchor="start" x="468" y="-156.3" font-family="SimSun" font-size="14.00">提高科研速度</text>
<text text-anchor="start" x="468" y="-141.3" font-family="SimSun" font-size="14.00">提高单位生产力</text>
<text text-anchor="start" x="468" y="-126.3" font-family="SimSun" font-size="14.00">提高工人人口上限</text>
<text text-anchor="start" x="468" y="-111.3" font-family="SimSun" font-size="14.00">提高军事人口上限</text>
</g>
<!-- 行政机构&#45;&gt;教育 -->
<g id="edge10" class="edge">
<title>行政机构:e&#45;&gt;教育:w</title>
<path fill="none" stroke="black" d="M388,-160.5C416.38,-160.5 425.88,-160.5 449.98,-160.5"/>
<polygon fill="black" stroke="black" points="450,-164 460,-160.5 450,-157 450,-164"/>
</g>
<!-- 历法 -->
<g id="node6" class="node">
<title>历法</title>
<polygon fill="#ffaa00" stroke="black" points="690,-244 690,-313 848,-313 848,-244 690,-244"/>
<text text-anchor="middle" x="769" y="-297.8" font-family="SimSun" font-size="14.00">历法</text>
<polyline fill="none" stroke="black" points="690,-290 848,-290 "/>
<text text-anchor="middle" x="713" y="-274.8" font-family="SimSun" font-size="14.00">10秒</text>
<polyline fill="none" stroke="black" points="736,-267 736,-290 "/>
<text text-anchor="middle" x="792" y="-274.8" font-family="SimSun" font-size="14.00">[10, 20] 黄金</text>
<polyline fill="none" stroke="black" points="690,-267 848,-267 "/>
<text text-anchor="start" x="698" y="-251.8" font-family="SimSun" font-size="14.00">提高食物采集量</text>
</g>
<!-- 农学&#45;&gt;历法 -->
<g id="edge6" class="edge">
<title>农学:e&#45;&gt;历法:w</title>
<path fill="none" stroke="black" d="M618,-278.5C646.38,-278.5 655.88,-278.5 679.98,-278.5"/>
<polygon fill="black" stroke="black" points="680,-282 690,-278.5 680,-275 680,-282"/>
</g>
<!-- 化学 -->
<g id="node8" class="node">
<title>化学</title>
<polygon fill="#ffaa00" stroke="black" points="690,-8 690,-77 848,-77 848,-8 690,-8"/>
<text text-anchor="middle" x="769" y="-61.8" font-family="SimSun" font-size="14.00">化学</text>
<polyline fill="none" stroke="black" points="690,-54 848,-54 "/>
<text text-anchor="middle" x="713" y="-38.8" font-family="SimSun" font-size="14.00">10秒</text>
<polyline fill="none" stroke="black" points="736,-31 736,-54 "/>
<text text-anchor="middle" x="792" y="-38.8" font-family="SimSun" font-size="14.00">[10, 20] 黄金</text>
<polyline fill="none" stroke="black" points="690,-31 848,-31 "/>
<text text-anchor="start" x="698" y="-15.8" font-family="SimSun" font-size="14.00">提高矿物采集量</text>
</g>
<!-- 矿井勘探&#45;&gt;化学 -->
<g id="edge9" class="edge">
<title>矿井勘探:e&#45;&gt;化学:w</title>
<path fill="none" stroke="black" d="M618,-42.5C646.38,-42.5 655.88,-42.5 679.98,-42.5"/>
<polygon fill="black" stroke="black" points="680,-46 690,-42.5 680,-39 680,-46"/>
</g>
<!-- 经济 -->
<g id="node10" class="node">
<title>经济</title>
<polygon fill="#ffaa00" stroke="black" points="690,-103.5 690,-217.5 848,-217.5 848,-103.5 690,-103.5"/>
<text text-anchor="middle" x="769" y="-202.3" font-family="SimSun" font-size="14.00">经济</text>
<polyline fill="none" stroke="black" points="690,-194.5 848,-194.5 "/>
<text text-anchor="middle" x="713" y="-179.3" font-family="SimSun" font-size="14.00">10秒</text>
<polyline fill="none" stroke="black" points="736,-171.5 736,-194.5 "/>
<text text-anchor="middle" x="792" y="-179.3" font-family="SimSun" font-size="14.00">[10, 20] 黄金</text>
<polyline fill="none" stroke="black" points="690,-171.5 848,-171.5 "/>
<text text-anchor="start" x="698" y="-156.3" font-family="SimSun" font-size="14.00">提高工人人口上限</text>
<text text-anchor="start" x="698" y="-141.3" font-family="SimSun" font-size="14.00">提高军事人口上限</text>
<text text-anchor="start" x="698" y="-126.3" font-family="SimSun" font-size="14.00">提高单位生产力</text>
<text text-anchor="start" x="698" y="-111.3" font-family="SimSun" font-size="14.00">+&gt;【市场】</text>
</g>
<!-- 教育&#45;&gt;经济 -->
<g id="edge11" class="edge">
<title>教育:e&#45;&gt;经济:w</title>
<path fill="none" stroke="black" d="M618,-160.5C646.38,-160.5 655.88,-160.5 679.98,-160.5"/>
<polygon fill="black" stroke="black" points="680,-164 690,-160.5 680,-157 680,-164"/>
</g>
<!-- 工程技术 -->
<g id="node11" class="node">
<title>工程技术</title>
<polygon fill="#ffaa00" stroke="black" points="920,-170.5 920,-284.5 1078,-284.5 1078,-170.5 920,-170.5"/>
<text text-anchor="middle" x="999" y="-269.3" font-family="SimSun" font-size="14.00">工程技术</text>
<polyline fill="none" stroke="black" points="920,-261.5 1078,-261.5 "/>
<text text-anchor="middle" x="943" y="-246.3" font-family="SimSun" font-size="14.00">10秒</text>
<polyline fill="none" stroke="black" points="966,-238.5 966,-261.5 "/>
<text text-anchor="middle" x="1022" y="-246.3" font-family="SimSun" font-size="14.00">[10, 20] 黄金</text>
<polyline fill="none" stroke="black" points="920,-238.5 1078,-238.5 "/>
<text text-anchor="start" x="928" y="-223.3" font-family="SimSun" font-size="14.00">提高建筑速度</text>
<text text-anchor="start" x="928" y="-208.3" font-family="SimSun" font-size="14.00">提高单位生产力</text>
<text text-anchor="start" x="928" y="-193.3" font-family="SimSun" font-size="14.00">提高工人人口上限</text>
<text text-anchor="start" x="928" y="-178.3" font-family="SimSun" font-size="14.00">提高军事人口上限</text>
</g>
<!-- 经济&#45;&gt;工程技术 -->
<g id="edge12" class="edge">
<title>经济:e&#45;&gt;工程技术:w</title>
<path fill="none" stroke="black" d="M848,-160.5C887.96,-160.5 878.5,-216.48 909.97,-226.1"/>
<polygon fill="black" stroke="black" points="909.61,-229.59 920,-227.5 910.58,-222.65 909.61,-229.59"/>
</g>
<!-- 交通运输 -->
<g id="node12" class="node">
<title>交通运输</title>
<polygon fill="#ffaa00" stroke="black" points="920,-37.5 920,-151.5 1078,-151.5 1078,-37.5 920,-37.5"/>
<text text-anchor="middle" x="999" y="-136.3" font-family="SimSun" font-size="14.00">交通运输</text>
<polyline fill="none" stroke="black" points="920,-128.5 1078,-128.5 "/>
<text text-anchor="middle" x="943" y="-113.3" font-family="SimSun" font-size="14.00">10秒</text>
<polyline fill="none" stroke="black" points="966,-105.5 966,-128.5 "/>
<text text-anchor="middle" x="1022" y="-113.3" font-family="SimSun" font-size="14.00">[10, 20] 黄金</text>
<polyline fill="none" stroke="black" points="920,-105.5 1078,-105.5 "/>
<text text-anchor="start" x="928" y="-90.3" font-family="SimSun" font-size="14.00">提高工人人口上限</text>
<text text-anchor="start" x="928" y="-75.3" font-family="SimSun" font-size="14.00">提高军事人口上限</text>
<text text-anchor="start" x="928" y="-60.3" font-family="SimSun" font-size="14.00">提高单位生产力</text>
<text text-anchor="start" x="928" y="-45.3" font-family="SimSun" font-size="14.00">+&gt;【补给站】</text>
</g>
<!-- 经济&#45;&gt;交通运输 -->
<g id="edge13" class="edge">
<title>经济:e&#45;&gt;交通运输:w</title>
<path fill="none" stroke="black" d="M848,-160.5C887.68,-160.5 878.71,-105.36 910.02,-95.88"/>
<polygon fill="black" stroke="black" points="910.57,-99.34 920,-94.5 909.61,-92.4 910.57,-99.34"/>
</g>
<!-- 军事训练 -->
<g id="node13" class="node">
<title>军事训练</title>
<polygon fill="#228dff" stroke="black" points="0,-406 0,-505 158,-505 158,-406 0,-406"/>
<text text-anchor="middle" x="79" y="-489.8" font-family="SimSun" font-size="14.00">军事训练</text>
<polyline fill="none" stroke="black" points="0,-482 158,-482 "/>
<text text-anchor="middle" x="23" y="-466.8" font-family="SimSun" font-size="14.00">20秒</text>
<polyline fill="none" stroke="black" points="46,-459 46,-482 "/>
<text text-anchor="middle" x="102" y="-466.8" font-family="SimSun" font-size="14.00">[10, 20] 黄金</text>
<polyline fill="none" stroke="black" points="0,-459 158,-459 "/>
<text text-anchor="start" x="8" y="-443.8" font-family="SimSun" font-size="14.00">X&gt;【民兵】</text>
<text text-anchor="start" x="8" y="-428.8" font-family="SimSun" font-size="14.00">+&gt;【刀剑手】</text>
<text text-anchor="start" x="8" y="-413.8" font-family="SimSun" font-size="14.00">+&gt;【长矛兵】</text>
</g>
<!-- 战术 -->
<g id="node14" class="node">
<title>战术</title>
<polygon fill="#228dff" stroke="black" points="230,-473 230,-542 388,-542 388,-473 230,-473"/>
<text text-anchor="middle" x="309" y="-526.8" font-family="SimSun" font-size="14.00">战术</text>
<polyline fill="none" stroke="black" points="230,-519 388,-519 "/>
<text text-anchor="middle" x="253" y="-503.8" font-family="SimSun" font-size="14.00">20秒</text>
<polyline fill="none" stroke="black" points="276,-496 276,-519 "/>
<text text-anchor="middle" x="332" y="-503.8" font-family="SimSun" font-size="14.00">[10, 20] 黄金</text>
<polyline fill="none" stroke="black" points="230,-496 388,-496 "/>
<text text-anchor="start" x="238" y="-480.8" font-family="SimSun" font-size="14.00">+&gt;【弓箭手】</text>
</g>
<!-- 军事训练&#45;&gt;战术 -->
<g id="edge14" class="edge">
<title>军事训练:e&#45;&gt;战术:w</title>
<path fill="none" stroke="black" d="M158,-455.5C193.77,-455.5 191.42,-498.21 220.05,-506.21"/>
<polygon fill="black" stroke="black" points="219.63,-509.69 230,-507.5 220.53,-502.75 219.63,-509.69"/>
</g>
<!-- 常备军 -->
<g id="node20" class="node">
<title>常备军</title>
<polygon fill="#228dff" stroke="black" points="230,-355 230,-454 388,-454 388,-355 230,-355"/>
<text text-anchor="middle" x="309" y="-438.8" font-family="SimSun" font-size="14.00">常备军</text>
<polyline fill="none" stroke="black" points="230,-431 388,-431 "/>
<text text-anchor="middle" x="253" y="-415.8" font-family="SimSun" font-size="14.00">30秒</text>
<polyline fill="none" stroke="black" points="276,-408 276,-431 "/>
<text text-anchor="middle" x="332" y="-415.8" font-family="SimSun" font-size="14.00">[10, 20] 黄金</text>
<polyline fill="none" stroke="black" points="230,-408 388,-408 "/>
<text text-anchor="start" x="238" y="-392.8" font-family="SimSun" font-size="14.00">提高步兵攻击力</text>
<text text-anchor="start" x="238" y="-377.8" font-family="SimSun" font-size="14.00">提高步兵防御力</text>
<text text-anchor="start" x="238" y="-362.8" font-family="SimSun" font-size="14.00">+&gt;【兵营】</text>
</g>
<!-- 军事训练&#45;&gt;常备军 -->
<g id="edge20" class="edge">
<title>军事训练:e&#45;&gt;常备军:w</title>
<path fill="none" stroke="black" d="M158,-455.5C193.38,-455.5 191.61,-413.97 219.73,-405.86"/>
<polygon fill="black" stroke="black" points="220.55,-409.29 230,-404.5 219.63,-402.35 220.55,-409.29"/>
</g>
<!-- 马镫 -->
<g id="node15" class="node">
<title>马镫</title>
<polygon fill="#228dff" stroke="black" points="460,-568 460,-637 618,-637 618,-568 460,-568"/>
<text text-anchor="middle" x="539" y="-621.8" font-family="SimSun" font-size="14.00">马镫</text>
<polyline fill="none" stroke="black" points="460,-614 618,-614 "/>
<text text-anchor="middle" x="483" y="-598.8" font-family="SimSun" font-size="14.00">20秒</text>
<polyline fill="none" stroke="black" points="506,-591 506,-614 "/>
<text text-anchor="middle" x="562" y="-598.8" font-family="SimSun" font-size="14.00">[10, 20] 黄金</text>
<polyline fill="none" stroke="black" points="460,-591 618,-591 "/>
<text text-anchor="start" x="468" y="-575.8" font-family="SimSun" font-size="14.00">+&gt;【骑兵】</text>
</g>
<!-- 战术&#45;&gt;马镫 -->
<g id="edge15" class="edge">
<title>战术:e&#45;&gt;马镫:w</title>
<path fill="none" stroke="black" d="M388,-507.5C437.25,-507.5 411.37,-589.61 450.05,-601.16"/>
<polygon fill="black" stroke="black" points="449.62,-604.63 460,-602.5 450.56,-597.69 449.62,-604.63"/>
</g>
<!-- 火药 -->
<g id="node18" class="node">
<title>火药</title>
<polygon fill="#228dff" stroke="black" points="460,-473 460,-542 618,-542 618,-473 460,-473"/>
<text text-anchor="middle" x="539" y="-526.8" font-family="SimSun" font-size="14.00">火药</text>
<polyline fill="none" stroke="black" points="460,-519 618,-519 "/>
<text text-anchor="middle" x="483" y="-503.8" font-family="SimSun" font-size="14.00">20秒</text>
<polyline fill="none" stroke="black" points="506,-496 506,-519 "/>
<text text-anchor="middle" x="562" y="-503.8" font-family="SimSun" font-size="14.00">[10, 20] 黄金</text>
<polyline fill="none" stroke="black" points="460,-496 618,-496 "/>
<text text-anchor="start" x="468" y="-480.8" font-family="SimSun" font-size="14.00">+&gt;【火门枪手】</text>
</g>
<!-- 战术&#45;&gt;火药 -->
<g id="edge18" class="edge">
<title>战术:e&#45;&gt;火药:w</title>
<path fill="none" stroke="black" d="M388,-507.5C416.38,-507.5 425.88,-507.5 449.98,-507.5"/>
<polygon fill="black" stroke="black" points="450,-511 460,-507.5 450,-504 450,-511"/>
</g>
<!-- 复合弓 -->
<g id="node21" class="node">
<title>复合弓</title>
<polygon fill="#228dff" stroke="black" points="460,-339.5 460,-453.5 618,-453.5 618,-339.5 460,-339.5"/>
<text text-anchor="middle" x="539" y="-438.3" font-family="SimSun" font-size="14.00">复合弓</text>
<polyline fill="none" stroke="black" points="460,-430.5 618,-430.5 "/>
<text text-anchor="middle" x="483" y="-415.3" font-family="SimSun" font-size="14.00">30秒</text>
<polyline fill="none" stroke="black" points="506,-407.5 506,-430.5 "/>
<text text-anchor="middle" x="562" y="-415.3" font-family="SimSun" font-size="14.00">[10, 20] 黄金</text>
<polyline fill="none" stroke="black" points="460,-407.5 618,-407.5 "/>
<text text-anchor="start" x="468" y="-392.3" font-family="SimSun" font-size="14.00">提高远程单位攻击力</text>
<text text-anchor="start" x="468" y="-377.3" font-family="SimSun" font-size="14.00">提高射击距离</text>
<text text-anchor="start" x="468" y="-362.3" font-family="SimSun" font-size="14.00">+&gt;【靶场】</text>
<text text-anchor="start" x="468" y="-347.3" font-family="SimSun" font-size="14.00">+&gt;【驻防点】</text>
</g>
<!-- 战术&#45;&gt;复合弓 -->
<g id="edge21" class="edge">
<title>战术:e&#45;&gt;复合弓:w</title>
<path fill="none" stroke="black" d="M388,-507.5C443.01,-507.5 406.64,-410.35 449.88,-397.82"/>
<polygon fill="black" stroke="black" points="450.54,-401.27 460,-396.5 449.63,-394.33 450.54,-401.27"/>
</g>
<!-- 军事工程 -->
<g id="node16" class="node">
<title>军事工程</title>
<polygon fill="#228dff" stroke="black" points="690,-671 690,-740 848,-740 848,-671 690,-671"/>
<text text-anchor="middle" x="769" y="-724.8" font-family="SimSun" font-size="14.00">军事工程</text>
<polyline fill="none" stroke="black" points="690,-717 848,-717 "/>
<text text-anchor="middle" x="713" y="-701.8" font-family="SimSun" font-size="14.00">30秒</text>
<polyline fill="none" stroke="black" points="736,-694 736,-717 "/>
<text text-anchor="middle" x="792" y="-701.8" font-family="SimSun" font-size="14.00">[10, 20] 黄金</text>
<polyline fill="none" stroke="black" points="690,-694 848,-694 "/>
<text text-anchor="start" x="698" y="-678.8" font-family="SimSun" font-size="14.00">+&gt;【拒马】</text>
</g>
<!-- 马镫&#45;&gt;军事工程 -->
<g id="edge16" class="edge">
<title>马镫:e&#45;&gt;军事工程:w</title>
<path fill="none" stroke="black" d="M618,-602.5C670.14,-602.5 639,-692.27 680.08,-704.2"/>
<polygon fill="black" stroke="black" points="679.63,-707.67 690,-705.5 680.54,-700.73 679.63,-707.67"/>
</g>
<!-- 马匹育种 -->
<g id="node22" class="node">
<title>马匹育种</title>
<polygon fill="#228dff" stroke="black" points="690,-553 690,-652 848,-652 848,-553 690,-553"/>
<text text-anchor="middle" x="769" y="-636.8" font-family="SimSun" font-size="14.00">马匹育种</text>
<polyline fill="none" stroke="black" points="690,-629 848,-629 "/>
<text text-anchor="middle" x="713" y="-613.8" font-family="SimSun" font-size="14.00">30秒</text>
<polyline fill="none" stroke="black" points="736,-606 736,-629 "/>
<text text-anchor="middle" x="792" y="-613.8" font-family="SimSun" font-size="14.00">[10, 20] 黄金</text>
<polyline fill="none" stroke="black" points="690,-606 848,-606 "/>
<text text-anchor="start" x="698" y="-590.8" font-family="SimSun" font-size="14.00">提高骑兵速度</text>
<text text-anchor="start" x="698" y="-575.8" font-family="SimSun" font-size="14.00">降低骑兵价格</text>
<text text-anchor="start" x="698" y="-560.8" font-family="SimSun" font-size="14.00">+&gt;【马厩】</text>
</g>
<!-- 马镫&#45;&gt;马匹育种 -->
<g id="edge22" class="edge">
<title>马镫:e&#45;&gt;马匹育种:w</title>
<path fill="none" stroke="black" d="M618,-602.5C646.38,-602.5 655.88,-602.5 679.98,-602.5"/>
<polygon fill="black" stroke="black" points="680,-606 690,-602.5 680,-599 680,-606"/>
</g>
<!-- 攻城器械 -->
<g id="node17" class="node">
<title>攻城器械</title>
<polygon fill="#228dff" stroke="black" points="920,-671 920,-740 1078,-740 1078,-671 920,-671"/>
<text text-anchor="middle" x="999" y="-724.8" font-family="SimSun" font-size="14.00">攻城器械</text>
<polyline fill="none" stroke="black" points="920,-717 1078,-717 "/>
<text text-anchor="middle" x="943" y="-701.8" font-family="SimSun" font-size="14.00">30秒</text>
<polyline fill="none" stroke="black" points="966,-694 966,-717 "/>
<text text-anchor="middle" x="1022" y="-701.8" font-family="SimSun" font-size="14.00">[10, 20] 黄金</text>
<polyline fill="none" stroke="black" points="920,-694 1078,-694 "/>
<text text-anchor="start" x="928" y="-678.8" font-family="SimSun" font-size="14.00">+&gt;【冲车】</text>
</g>
<!-- 军事工程&#45;&gt;攻城器械 -->
<g id="edge17" class="edge">
<title>军事工程:e&#45;&gt;攻城器械:w</title>
<path fill="none" stroke="black" d="M848,-705.5C876.38,-705.5 885.88,-705.5 909.98,-705.5"/>
<polygon fill="black" stroke="black" points="910,-709 920,-705.5 910,-702 910,-709"/>
</g>
<!-- 军事技术 -->
<g id="node23" class="node">
<title>军事技术</title>
<polygon fill="#228dff" stroke="black" points="1150,-656 1150,-755 1309,-755 1309,-656 1150,-656"/>
<text text-anchor="middle" x="1229.5" y="-739.8" font-family="SimSun" font-size="14.00">军事技术</text>
<polyline fill="none" stroke="black" points="1150,-732 1309,-732 "/>
<text text-anchor="middle" x="1173" y="-716.8" font-family="SimSun" font-size="14.00">30秒</text>
<polyline fill="none" stroke="black" points="1196,-709 1196,-732 "/>
<text text-anchor="middle" x="1252.5" y="-716.8" font-family="SimSun" font-size="14.00">[10, 20] 黄金</text>
<polyline fill="none" stroke="black" points="1150,-709 1309,-709 "/>
<text text-anchor="start" x="1158" y="-693.8" font-family="SimSun" font-size="14.00">提高攻城器械生产速度</text>
<text text-anchor="start" x="1158" y="-678.8" font-family="SimSun" font-size="14.00">降低攻城器械价格</text>
<text text-anchor="start" x="1158" y="-663.8" font-family="SimSun" font-size="14.00">+&gt;【兵工厂】</text>
</g>
<!-- 攻城器械&#45;&gt;军事技术 -->
<g id="edge23" class="edge">
<title>攻城器械:e&#45;&gt;军事技术:w</title>
<path fill="none" stroke="black" d="M1078,-705.5C1106.38,-705.5 1115.88,-705.5 1139.98,-705.5"/>
<polygon fill="black" stroke="black" points="1140,-709 1150,-705.5 1140,-702 1140,-709"/>
</g>
<!-- 火炮 -->
<g id="node19" class="node">
<title>火炮</title>
<polygon fill="#228dff" stroke="black" points="690,-465 690,-534 848,-534 848,-465 690,-465"/>
<text text-anchor="middle" x="769" y="-518.8" font-family="SimSun" font-size="14.00">火炮</text>
<polyline fill="none" stroke="black" points="690,-511 848,-511 "/>
<text text-anchor="middle" x="713" y="-495.8" font-family="SimSun" font-size="14.00">20秒</text>
<polyline fill="none" stroke="black" points="736,-488 736,-511 "/>
<text text-anchor="middle" x="792" y="-495.8" font-family="SimSun" font-size="14.00">[10, 20] 黄金</text>
<polyline fill="none" stroke="black" points="690,-488 848,-488 "/>
<text text-anchor="start" x="698" y="-472.8" font-family="SimSun" font-size="14.00">+&gt;【虎蹲炮】</text>
</g>
<!-- 火药&#45;&gt;火炮 -->
<g id="edge19" class="edge">
<title>火药:e&#45;&gt;火炮:w</title>
<path fill="none" stroke="black" d="M618,-507.5C646.55,-507.5 655.76,-501.21 679.93,-499.78"/>
<polygon fill="black" stroke="black" points="680.1,-503.28 690,-499.5 679.91,-496.28 680.1,-503.28"/>
</g>
<!-- 手工业 -->
<g id="node24" class="node">
<title>手工业</title>
<polygon fill="#65d84b" stroke="black" points="0,-692 0,-791 158,-791 158,-692 0,-692"/>
<text text-anchor="middle" x="79" y="-775.8" font-family="SimSun" font-size="14.00">手工业</text>
<polyline fill="none" stroke="black" points="0,-768 158,-768 "/>
<text text-anchor="middle" x="23" y="-752.8" font-family="SimSun" font-size="14.00">30秒</text>
<polyline fill="none" stroke="black" points="46,-745 46,-768 "/>
<text text-anchor="middle" x="102" y="-752.8" font-family="SimSun" font-size="14.00">[10, 20] 黄金</text>
<polyline fill="none" stroke="black" points="0,-745 158,-745 "/>
<text text-anchor="start" x="8" y="-729.8" font-family="SimSun" font-size="14.00">提高攻击力</text>
<text text-anchor="start" x="8" y="-714.8" font-family="SimSun" font-size="14.00">提高防御力</text>
<text text-anchor="start" x="8" y="-699.8" font-family="SimSun" font-size="14.00">+&gt;【铁匠铺】</text>
</g>
<!-- 铸造 -->
<g id="node25" class="node">
<title>铸造</title>
<polygon fill="#65d84b" stroke="black" points="230,-751.5 230,-835.5 388,-835.5 388,-751.5 230,-751.5"/>
<text text-anchor="middle" x="309" y="-820.3" font-family="SimSun" font-size="14.00">铸造</text>
<polyline fill="none" stroke="black" points="230,-812.5 388,-812.5 "/>
<text text-anchor="middle" x="253" y="-797.3" font-family="SimSun" font-size="14.00">30秒</text>
<polyline fill="none" stroke="black" points="276,-789.5 276,-812.5 "/>
<text text-anchor="middle" x="332" y="-797.3" font-family="SimSun" font-size="14.00">[10, 20] 黄金</text>
<polyline fill="none" stroke="black" points="230,-789.5 388,-789.5 "/>
<text text-anchor="start" x="238" y="-774.3" font-family="SimSun" font-size="14.00">提高攻击力</text>
<text text-anchor="start" x="238" y="-759.3" font-family="SimSun" font-size="14.00">提高攻击速度</text>
</g>
<!-- 手工业&#45;&gt;铸造 -->
<g id="edge24" class="edge">
<title>手工业:e&#45;&gt;铸造:w</title>
<path fill="none" stroke="black" d="M158,-741.5C193.77,-741.5 191.42,-784.21 220.05,-792.21"/>
<polygon fill="black" stroke="black" points="219.63,-795.69 230,-793.5 220.53,-788.75 219.63,-795.69"/>
</g>
<!-- 锁子甲 -->
<g id="node27" class="node">
<title>锁子甲</title>
<polygon fill="#65d84b" stroke="black" points="230,-648.5 230,-732.5 388,-732.5 388,-648.5 230,-648.5"/>
<text text-anchor="middle" x="309" y="-717.3" font-family="SimSun" font-size="14.00">锁子甲</text>
<polyline fill="none" stroke="black" points="230,-709.5 388,-709.5 "/>
<text text-anchor="middle" x="253" y="-694.3" font-family="SimSun" font-size="14.00">30秒</text>
<polyline fill="none" stroke="black" points="276,-686.5 276,-709.5 "/>
<text text-anchor="middle" x="332" y="-694.3" font-family="SimSun" font-size="14.00">[10, 20] 黄金</text>
<polyline fill="none" stroke="black" points="230,-686.5 388,-686.5 "/>
<text text-anchor="start" x="238" y="-671.3" font-family="SimSun" font-size="14.00">提高防御力</text>
<text text-anchor="start" x="238" y="-656.3" font-family="SimSun" font-size="14.00">提高速度</text>
</g>
<!-- 手工业&#45;&gt;锁子甲 -->
<g id="edge26" class="edge">
<title>手工业:e&#45;&gt;锁子甲:w</title>
<path fill="none" stroke="black" d="M158,-741.5C193.38,-741.5 191.61,-699.97 219.73,-691.86"/>
<polygon fill="black" stroke="black" points="220.55,-695.29 230,-690.5 219.63,-688.35 220.55,-695.29"/>
</g>
<!-- 冶金 -->
<g id="node26" class="node">
<title>冶金</title>
<polygon fill="#65d84b" stroke="black" points="460,-759 460,-828 618,-828 618,-759 460,-759"/>
<text text-anchor="middle" x="539" y="-812.8" font-family="SimSun" font-size="14.00">冶金</text>
<polyline fill="none" stroke="black" points="460,-805 618,-805 "/>
<text text-anchor="middle" x="483" y="-789.8" font-family="SimSun" font-size="14.00">30秒</text>
<polyline fill="none" stroke="black" points="506,-782 506,-805 "/>
<text text-anchor="middle" x="562" y="-789.8" font-family="SimSun" font-size="14.00">[10, 20] 黄金</text>
<polyline fill="none" stroke="black" points="460,-782 618,-782 "/>
<text text-anchor="start" x="468" y="-766.8" font-family="SimSun" font-size="14.00">提高攻击力</text>
</g>
<!-- 铸造&#45;&gt;冶金 -->
<g id="edge25" class="edge">
<title>铸造:e&#45;&gt;冶金:w</title>
<path fill="none" stroke="black" d="M388,-793.5C416.38,-793.5 425.88,-793.5 449.98,-793.5"/>
<polygon fill="black" stroke="black" points="450,-797 460,-793.5 450,-790 450,-797"/>
</g>
<!-- 板甲 -->
<g id="node28" class="node">
<title>板甲</title>
<polygon fill="#65d84b" stroke="black" points="460,-656 460,-725 618,-725 618,-656 460,-656"/>
<text text-anchor="middle" x="539" y="-709.8" font-family="SimSun" font-size="14.00">板甲</text>
<polyline fill="none" stroke="black" points="460,-702 618,-702 "/>
<text text-anchor="middle" x="483" y="-686.8" font-family="SimSun" font-size="14.00">30秒</text>
<polyline fill="none" stroke="black" points="506,-679 506,-702 "/>
<text text-anchor="middle" x="562" y="-686.8" font-family="SimSun" font-size="14.00">[10, 20] 黄金</text>
<polyline fill="none" stroke="black" points="460,-679 618,-679 "/>
<text text-anchor="start" x="468" y="-663.8" font-family="SimSun" font-size="14.00">提高防御力</text>
</g>
<!-- 锁子甲&#45;&gt;板甲 -->
<g id="edge27" class="edge">
<title>锁子甲:e&#45;&gt;板甲:w</title>
<path fill="none" stroke="black" d="M388,-690.5C416.38,-690.5 425.88,-690.5 449.98,-690.5"/>
<polygon fill="black" stroke="black" points="450,-694 460,-690.5 450,-687 450,-694"/>
</g>
</g>
</svg>
