<?xml version="1.0" encoding="UTF-8" standalone="no"?>
<!DOCTYPE svg PUBLIC "-//W3C//DTD SVG 1.1//EN"
 "http://www.w3.org/Graphics/SVG/1.1/DTD/svg11.dtd">
<!-- Generated by graphviz version 2.49.3 (20211023.0002)
 -->
<!-- Title: G Pages: 1 -->
<svg width="1547pt" height="822pt"
 viewBox="0.00 0.00 1547.00 822.00" xmlns="http://www.w3.org/2000/svg" xmlns:xlink="http://www.w3.org/1999/xlink">
<g id="graph0" class="graph" transform="scale(1 1) rotate(0) translate(4 818)">
<title>G</title>
<polygon fill="white" stroke="transparent" points="-4,4 -4,-818 1543,-818 1543,4 -4,4"/>
<!-- 手推车 -->
<g id="node1" class="node">
<title>手推车</title>
<polygon fill="none" stroke="black" points="0,-118.5 0,-202.5 158,-202.5 158,-118.5 0,-118.5"/>
<text text-anchor="middle" x="79" y="-187.3" font-family="SimSun" font-size="14.00">手推车</text>
<polyline fill="none" stroke="black" points="0,-179.5 158,-179.5 "/>
<text text-anchor="middle" x="23" y="-164.3" font-family="SimSun" font-size="14.00">20秒</text>
<polyline fill="none" stroke="black" points="46,-156.5 46,-179.5 "/>
<text text-anchor="middle" x="102" y="-164.3" font-family="SimSun" font-size="14.00">[10, 20] 黄金</text>
<polyline fill="none" stroke="black" points="0,-156.5 158,-156.5 "/>
<text text-anchor="start" x="8" y="-141.3" font-family="SimSun" font-size="14.00">提高工人速度</text>
<text text-anchor="start" x="8" y="-126.3" font-family="SimSun" font-size="14.00">减少卸货时间</text>
</g>
<!-- 水利 -->
<g id="node2" class="node">
<title>水利</title>
<polygon fill="none" stroke="black" points="230,-233.5 230,-317.5 388,-317.5 388,-233.5 230,-233.5"/>
<text text-anchor="middle" x="309" y="-302.3" font-family="SimSun" font-size="14.00">水利</text>
<polyline fill="none" stroke="black" points="230,-294.5 388,-294.5 "/>
<text text-anchor="middle" x="253" y="-279.3" font-family="SimSun" font-size="14.00">20秒</text>
<polyline fill="none" stroke="black" points="276,-271.5 276,-294.5 "/>
<text text-anchor="middle" x="332" y="-279.3" font-family="SimSun" font-size="14.00">[10, 20] 黄金</text>
<polyline fill="none" stroke="black" points="230,-271.5 388,-271.5 "/>
<text text-anchor="start" x="238" y="-256.3" font-family="SimSun" font-size="14.00">提高食物采集量</text>
<text text-anchor="start" x="238" y="-241.3" font-family="SimSun" font-size="14.00">降低食物采集时间</text>
</g>
<!-- 手推车&#45;&gt;水利 -->
<g id="edge1" class="edge">
<title>手推车:e&#45;&gt;水利:w</title>
<path fill="none" stroke="black" d="M158,-160.5C214.53,-160.5 175.35,-261.57 219.92,-274.21"/>
<polygon fill="black" stroke="black" points="219.64,-277.7 230,-275.5 220.53,-270.76 219.64,-277.7"/>
</g>
<!-- 采矿 -->
<g id="node3" class="node">
<title>采矿</title>
<polygon fill="none" stroke="black" points="230,-4.5 230,-88.5 388,-88.5 388,-4.5 230,-4.5"/>
<text text-anchor="middle" x="309" y="-73.3" font-family="SimSun" font-size="14.00">采矿</text>
<polyline fill="none" stroke="black" points="230,-65.5 388,-65.5 "/>
<text text-anchor="middle" x="253" y="-50.3" font-family="SimSun" font-size="14.00">10秒</text>
<polyline fill="none" stroke="black" points="276,-42.5 276,-65.5 "/>
<text text-anchor="middle" x="332" y="-50.3" font-family="SimSun" font-size="14.00">[10, 20] 黄金</text>
<polyline fill="none" stroke="black" points="230,-42.5 388,-42.5 "/>
<text text-anchor="start" x="238" y="-27.3" font-family="SimSun" font-size="14.00">提高矿物采集量</text>
<text text-anchor="start" x="238" y="-12.3" font-family="SimSun" font-size="14.00">降低矿物采集时间</text>
</g>
<!-- 手推车&#45;&gt;采矿 -->
<g id="edge2" class="edge">
<title>手推车:e&#45;&gt;采矿:w</title>
<path fill="none" stroke="black" d="M158,-160.5C214.18,-160.5 175.63,-60.3 219.97,-47.78"/>
<polygon fill="black" stroke="black" points="220.52,-51.24 230,-46.5 219.64,-44.29 220.52,-51.24"/>
</g>
<!-- 行政机构 -->
<g id="node4" class="node">
<title>行政机构</title>
<polygon fill="none" stroke="black" points="230,-111 230,-210 388,-210 388,-111 230,-111"/>
<text text-anchor="middle" x="309" y="-194.8" font-family="SimSun" font-size="14.00">行政机构</text>
<polyline fill="none" stroke="black" points="230,-187 388,-187 "/>
<text text-anchor="middle" x="253" y="-171.8" font-family="SimSun" font-size="14.00">10秒</text>
<polyline fill="none" stroke="black" points="276,-164 276,-187 "/>
<text text-anchor="middle" x="332" y="-171.8" font-family="SimSun" font-size="14.00">[10, 20] 黄金</text>
<polyline fill="none" stroke="black" points="230,-164 388,-164 "/>
<text text-anchor="start" x="238" y="-148.8" font-family="SimSun" font-size="14.00">提高工人人口上限</text>
<text text-anchor="start" x="238" y="-133.8" font-family="SimSun" font-size="14.00">提高工人生产速度</text>
<text text-anchor="start" x="238" y="-118.8" font-family="SimSun" font-size="14.00">+&gt;【仓库】</text>
</g>
<!-- 手推车&#45;&gt;行政机构 -->
<g id="edge3" class="edge">
<title>手推车:e&#45;&gt;行政机构:w</title>
<path fill="none" stroke="black" d="M158,-160.5C186.38,-160.5 195.88,-160.5 219.98,-160.5"/>
<polygon fill="black" stroke="black" points="220,-164 230,-160.5 220,-157 220,-164"/>
</g>
<!-- 农学 -->
<g id="node5" class="node">
<title>农学</title>
<polygon fill="none" stroke="black" points="460,-236.5 460,-320.5 618,-320.5 618,-236.5 460,-236.5"/>
<text text-anchor="middle" x="539" y="-305.3" font-family="SimSun" font-size="14.00">农学</text>
<polyline fill="none" stroke="black" points="460,-297.5 618,-297.5 "/>
<text text-anchor="middle" x="483" y="-282.3" font-family="SimSun" font-size="14.00">10秒</text>
<polyline fill="none" stroke="black" points="506,-274.5 506,-297.5 "/>
<text text-anchor="middle" x="562" y="-282.3" font-family="SimSun" font-size="14.00">[10, 20] 黄金</text>
<polyline fill="none" stroke="black" points="460,-274.5 618,-274.5 "/>
<text text-anchor="start" x="468" y="-259.3" font-family="SimSun" font-size="14.00">提高食物采集量</text>
<text text-anchor="start" x="468" y="-244.3" font-family="SimSun" font-size="14.00">+&gt;【农庄】</text>
</g>
<!-- 水利&#45;&gt;农学 -->
<g id="edge4" class="edge">
<title>水利:e&#45;&gt;农学:w</title>
<path fill="none" stroke="black" d="M388,-275.5C416.4,-275.5 425.86,-277.86 449.97,-278.39"/>
<polygon fill="black" stroke="black" points="449.96,-281.89 460,-278.5 450.04,-274.89 449.96,-281.89"/>
</g>
<!-- 矿井勘探 -->
<g id="node7" class="node">
<title>矿井勘探</title>
<polygon fill="none" stroke="black" points="460,-0.5 460,-84.5 618,-84.5 618,-0.5 460,-0.5"/>
<text text-anchor="middle" x="539" y="-69.3" font-family="SimSun" font-size="14.00">矿井勘探</text>
<polyline fill="none" stroke="black" points="460,-61.5 618,-61.5 "/>
<text text-anchor="middle" x="483" y="-46.3" font-family="SimSun" font-size="14.00">10秒</text>
<polyline fill="none" stroke="black" points="506,-38.5 506,-61.5 "/>
<text text-anchor="middle" x="562" y="-46.3" font-family="SimSun" font-size="14.00">[10, 20] 黄金</text>
<polyline fill="none" stroke="black" points="460,-38.5 618,-38.5 "/>
<text text-anchor="start" x="468" y="-23.3" font-family="SimSun" font-size="14.00">提高矿物采集量</text>
<text text-anchor="start" x="468" y="-8.3" font-family="SimSun" font-size="14.00">+&gt;【矿场】</text>
</g>
<!-- 采矿&#45;&gt;矿井勘探 -->
<g id="edge7" class="edge">
<title>采矿:e&#45;&gt;矿井勘探:w</title>
<path fill="none" stroke="black" d="M388,-46.5C416.42,-46.5 425.85,-43.35 449.97,-42.64"/>
<polygon fill="black" stroke="black" points="450.05,-46.14 460,-42.5 449.95,-39.14 450.05,-46.14"/>
</g>
<!-- 行政机构&#45;&gt;农学 -->
<g id="edge5" class="edge">
<title>行政机构:e&#45;&gt;农学:w</title>
<path fill="none" stroke="black" d="M388,-160.5C445.72,-160.5 404.31,-264.64 450.03,-277.25"/>
<polygon fill="black" stroke="black" points="449.64,-280.73 460,-278.5 450.51,-273.79 449.64,-280.73"/>
</g>
<!-- 行政机构&#45;&gt;矿井勘探 -->
<g id="edge8" class="edge">
<title>行政机构:e&#45;&gt;矿井勘探:w</title>
<path fill="none" stroke="black" d="M388,-160.5C445.72,-160.5 404.31,-56.36 450.03,-43.75"/>
<polygon fill="black" stroke="black" points="450.51,-47.21 460,-42.5 449.64,-40.27 450.51,-47.21"/>
</g>
<!-- 教育 -->
<g id="node9" class="node">
<title>教育</title>
<polygon fill="none" stroke="black" points="460,-103.5 460,-217.5 618,-217.5 618,-103.5 460,-103.5"/>
<text text-anchor="middle" x="539" y="-202.3" font-family="SimSun" font-size="14.00">教育</text>
<polyline fill="none" stroke="black" points="460,-194.5 618,-194.5 "/>
<text text-anchor="middle" x="483" y="-179.3" font-family="SimSun" font-size="14.00">10秒</text>
<polyline fill="none" stroke="black" points="506,-171.5 506,-194.5 "/>
<text text-anchor="middle" x="562" y="-179.3" font-family="SimSun" font-size="14.00">[10, 20] 黄金</text>
<polyline fill="none" stroke="black" points="460,-171.5 618,-171.5 "/>
<text text-anchor="start" x="468" y="-156.3" font-family="SimSun" font-size="14.00">提高科研速度</text>
<text text-anchor="start" x="468" y="-141.3" font-family="SimSun" font-size="14.00">提高单位生产力</text>
<text text-anchor="start" x="468" y="-126.3" font-family="SimSun" font-size="14.00">提高工人人口上限</text>
<text text-anchor="start" x="468" y="-111.3" font-family="SimSun" font-size="14.00">提高军事人口上限</text>
</g>
<!-- 行政机构&#45;&gt;教育 -->
<g id="edge10" class="edge">
<title>行政机构:e&#45;&gt;教育:w</title>
<path fill="none" stroke="black" d="M388,-160.5C416.38,-160.5 425.88,-160.5 449.98,-160.5"/>
<polygon fill="black" stroke="black" points="450,-164 460,-160.5 450,-157 450,-164"/>
</g>
<!-- 历法 -->
<g id="node6" class="node">
<title>历法</title>
<polygon fill="none" stroke="black" points="690,-244 690,-313 848,-313 848,-244 690,-244"/>
<text text-anchor="middle" x="769" y="-297.8" font-family="SimSun" font-size="14.00">历法</text>
<polyline fill="none" stroke="black" points="690,-290 848,-290 "/>
<text text-anchor="middle" x="713" y="-274.8" font-family="SimSun" font-size="14.00">10秒</text>
<polyline fill="none" stroke="black" points="736,-267 736,-290 "/>
<text text-anchor="middle" x="792" y="-274.8" font-family="SimSun" font-size="14.00">[10, 20] 黄金</text>
<polyline fill="none" stroke="black" points="690,-267 848,-267 "/>
<text text-anchor="start" x="698" y="-251.8" font-family="SimSun" font-size="14.00">提高食物采集量</text>
</g>
<!-- 农学&#45;&gt;历法 -->
<g id="edge6" class="edge">
<title>农学:e&#45;&gt;历法:w</title>
<path fill="none" stroke="black" d="M618,-278.5C646.38,-278.5 655.88,-278.5 679.98,-278.5"/>
<polygon fill="black" stroke="black" points="680,-282 690,-278.5 680,-275 680,-282"/>
</g>
<!-- 化学 -->
<g id="node8" class="node">
<title>化学</title>
<polygon fill="none" stroke="black" points="690,-8 690,-77 848,-77 848,-8 690,-8"/>
<text text-anchor="middle" x="769" y="-61.8" font-family="SimSun" font-size="14.00">化学</text>
<polyline fill="none" stroke="black" points="690,-54 848,-54 "/>
<text text-anchor="middle" x="713" y="-38.8" font-family="SimSun" font-size="14.00">10秒</text>
<polyline fill="none" stroke="black" points="736,-31 736,-54 "/>
<text text-anchor="middle" x="792" y="-38.8" font-family="SimSun" font-size="14.00">[10, 20] 黄金</text>
<polyline fill="none" stroke="black" points="690,-31 848,-31 "/>
<text text-anchor="start" x="698" y="-15.8" font-family="SimSun" font-size="14.00">提高矿物采集量</text>
</g>
<!-- 矿井勘探&#45;&gt;化学 -->
<g id="edge9" class="edge">
<title>矿井勘探:e&#45;&gt;化学:w</title>
<path fill="none" stroke="black" d="M618,-42.5C646.38,-42.5 655.88,-42.5 679.98,-42.5"/>
<polygon fill="black" stroke="black" points="680,-46 690,-42.5 680,-39 680,-46"/>
</g>
<!-- 经济 -->
<g id="node10" class="node">
<title>经济</title>
<polygon fill="none" stroke="black" points="690,-103.5 690,-217.5 848,-217.5 848,-103.5 690,-103.5"/>
<text text-anchor="middle" x="769" y="-202.3" font-family="SimSun" font-size="14.00">经济</text>
<polyline fill="none" stroke="black" points="690,-194.5 848,-194.5 "/>
<text text-anchor="middle" x="713" y="-179.3" font-family="SimSun" font-size="14.00">10秒</text>
<polyline fill="none" stroke="black" points="736,-171.5 736,-194.5 "/>
<text text-anchor="middle" x="792" y="-179.3" font-family="SimSun" font-size="14.00">[10, 20] 黄金</text>
<polyline fill="none" stroke="black" points="690,-171.5 848,-171.5 "/>
<text text-anchor="start" x="698" y="-156.3" font-family="SimSun" font-size="14.00">提高工人人口上限</text>
<text text-anchor="start" x="698" y="-141.3" font-family="SimSun" font-size="14.00">提高军事人口上限</text>
<text text-anchor="start" x="698" y="-126.3" font-family="SimSun" font-size="14.00">提高单位生产力</text>
<text text-anchor="start" x="698" y="-111.3" font-family="SimSun" font-size="14.00">+&gt;【市场】</text>
</g>
<!-- 教育&#45;&gt;经济 -->
<g id="edge11" class="edge">
<title>教育:e&#45;&gt;经济:w</title>
<path fill="none" stroke="black" d="M618,-160.5C646.38,-160.5 655.88,-160.5 679.98,-160.5"/>
<polygon fill="black" stroke="black" points="680,-164 690,-160.5 680,-157 680,-164"/>
</g>
<!-- 工程技术 -->
<g id="node11" class="node">
<title>工程技术</title>
<polygon fill="none" stroke="black" points="920,-170.5 920,-284.5 1078,-284.5 1078,-170.5 920,-170.5"/>
<text text-anchor="middle" x="999" y="-269.3" font-family="SimSun" font-size="14.00">工程技术</text>
<polyline fill="none" stroke="black" points="920,-261.5 1078,-261.5 "/>
<text text-anchor="middle" x="943" y="-246.3" font-family="SimSun" font-size="14.00">10秒</text>
<polyline fill="none" stroke="black" points="966,-238.5 966,-261.5 "/>
<text text-anchor="middle" x="1022" y="-246.3" font-family="SimSun" font-size="14.00">[10, 20] 黄金</text>
<polyline fill="none" stroke="black" points="920,-238.5 1078,-238.5 "/>
<text text-anchor="start" x="928" y="-223.3" font-family="SimSun" font-size="14.00">提高建筑速度</text>
<text text-anchor="start" x="928" y="-208.3" font-family="SimSun" font-size="14.00">提高单位生产力</text>
<text text-anchor="start" x="928" y="-193.3" font-family="SimSun" font-size="14.00">提高工人人口上限</text>
<text text-anchor="start" x="928" y="-178.3" font-family="SimSun" font-size="14.00">提高军事人口上限</text>
</g>
<!-- 经济&#45;&gt;工程技术 -->
<g id="edge12" class="edge">
<title>经济:e&#45;&gt;工程技术:w</title>
<path fill="none" stroke="black" d="M848,-160.5C887.96,-160.5 878.5,-216.48 909.97,-226.1"/>
<polygon fill="black" stroke="black" points="909.61,-229.59 920,-227.5 910.58,-222.65 909.61,-229.59"/>
</g>
<!-- 交通运输 -->
<g id="node12" class="node">
<title>交通运输</title>
<polygon fill="none" stroke="black" points="920,-37.5 920,-151.5 1078,-151.5 1078,-37.5 920,-37.5"/>
<text text-anchor="middle" x="999" y="-136.3" font-family="SimSun" font-size="14.00">交通运输</text>
<polyline fill="none" stroke="black" points="920,-128.5 1078,-128.5 "/>
<text text-anchor="middle" x="943" y="-113.3" font-family="SimSun" font-size="14.00">10秒</text>
<polyline fill="none" stroke="black" points="966,-105.5 966,-128.5 "/>
<text text-anchor="middle" x="1022" y="-113.3" font-family="SimSun" font-size="14.00">[10, 20] 黄金</text>
<polyline fill="none" stroke="black" points="920,-105.5 1078,-105.5 "/>
<text text-anchor="start" x="928" y="-90.3" font-family="SimSun" font-size="14.00">提高工人人口上限</text>
<text text-anchor="start" x="928" y="-75.3" font-family="SimSun" font-size="14.00">提高军事人口上限</text>
<text text-anchor="start" x="928" y="-60.3" font-family="SimSun" font-size="14.00">提高单位生产力</text>
<text text-anchor="start" x="928" y="-45.3" font-family="SimSun" font-size="14.00">+&gt;【补给站】</text>
</g>
<!-- 经济&#45;&gt;交通运输 -->
<g id="edge13" class="edge">
<title>经济:e&#45;&gt;交通运输:w</title>
<path fill="none" stroke="black" d="M848,-160.5C887.68,-160.5 878.71,-105.36 910.02,-95.88"/>
<polygon fill="black" stroke="black" points="910.57,-99.34 920,-94.5 909.61,-92.4 910.57,-99.34"/>
</g>
<!-- 军事训练 -->
<g id="node13" class="node">
<title>军事训练</title>
<polygon fill="none" stroke="black" points="0,-391 0,-490 158,-490 158,-391 0,-391"/>
<text text-anchor="middle" x="79" y="-474.8" font-family="SimSun" font-size="14.00">军事训练</text>
<polyline fill="none" stroke="black" points="0,-467 158,-467 "/>
<text text-anchor="middle" x="23" y="-451.8" font-family="SimSun" font-size="14.00">20秒</text>
<polyline fill="none" stroke="black" points="46,-444 46,-467 "/>
<text text-anchor="middle" x="102" y="-451.8" font-family="SimSun" font-size="14.00">[10, 20] 黄金</text>
<polyline fill="none" stroke="black" points="0,-444 158,-444 "/>
<text text-anchor="start" x="8" y="-428.8" font-family="SimSun" font-size="14.00">X&gt;【民兵】</text>
<text text-anchor="start" x="8" y="-413.8" font-family="SimSun" font-size="14.00">+&gt;【剑士】</text>
<text text-anchor="start" x="8" y="-398.8" font-family="SimSun" font-size="14.00">+&gt;【长矛兵】</text>
</g>
<!-- 战术 -->
<g id="node14" class="node">
<title>战术</title>
<polygon fill="none" stroke="black" points="230,-458 230,-527 388,-527 388,-458 230,-458"/>
<text text-anchor="middle" x="309" y="-511.8" font-family="SimSun" font-size="14.00">战术</text>
<polyline fill="none" stroke="black" points="230,-504 388,-504 "/>
<text text-anchor="middle" x="253" y="-488.8" font-family="SimSun" font-size="14.00">20秒</text>
<polyline fill="none" stroke="black" points="276,-481 276,-504 "/>
<text text-anchor="middle" x="332" y="-488.8" font-family="SimSun" font-size="14.00">[10, 20] 黄金</text>
<polyline fill="none" stroke="black" points="230,-481 388,-481 "/>
<text text-anchor="start" x="238" y="-465.8" font-family="SimSun" font-size="14.00">+&gt;【弓箭手】</text>
</g>
<!-- 军事训练&#45;&gt;战术 -->
<g id="edge14" class="edge">
<title>军事训练:e&#45;&gt;战术:w</title>
<path fill="none" stroke="black" d="M158,-440.5C193.77,-440.5 191.42,-483.21 220.05,-491.21"/>
<polygon fill="black" stroke="black" points="219.63,-494.69 230,-492.5 220.53,-487.75 219.63,-494.69"/>
</g>
<!-- 军功制 -->
<g id="node21" class="node">
<title>军功制</title>
<polygon fill="none" stroke="black" points="230,-340 230,-439 388,-439 388,-340 230,-340"/>
<text text-anchor="middle" x="309" y="-423.8" font-family="SimSun" font-size="14.00">军功制</text>
<polyline fill="none" stroke="black" points="230,-416 388,-416 "/>
<text text-anchor="middle" x="253" y="-400.8" font-family="SimSun" font-size="14.00">30秒</text>
<polyline fill="none" stroke="black" points="276,-393 276,-416 "/>
<text text-anchor="middle" x="332" y="-400.8" font-family="SimSun" font-size="14.00">[10, 20] 黄金</text>
<polyline fill="none" stroke="black" points="230,-393 388,-393 "/>
<text text-anchor="start" x="238" y="-377.8" font-family="SimSun" font-size="14.00">提高步兵攻击力</text>
<text text-anchor="start" x="238" y="-362.8" font-family="SimSun" font-size="14.00">提高步兵防御力</text>
<text text-anchor="start" x="238" y="-347.8" font-family="SimSun" font-size="14.00">+&gt;【兵营】</text>
</g>
<!-- 军事训练&#45;&gt;军功制 -->
<g id="edge21" class="edge">
<title>军事训练:e&#45;&gt;军功制:w</title>
<path fill="none" stroke="black" d="M158,-440.5C193.38,-440.5 191.61,-398.97 219.73,-390.86"/>
<polygon fill="black" stroke="black" points="220.55,-394.29 230,-389.5 219.63,-387.35 220.55,-394.29"/>
</g>
<!-- 马镫 -->
<g id="node15" class="node">
<title>马镫</title>
<polygon fill="none" stroke="black" points="460,-546 460,-615 618,-615 618,-546 460,-546"/>
<text text-anchor="middle" x="539" y="-599.8" font-family="SimSun" font-size="14.00">马镫</text>
<polyline fill="none" stroke="black" points="460,-592 618,-592 "/>
<text text-anchor="middle" x="483" y="-576.8" font-family="SimSun" font-size="14.00">20秒</text>
<polyline fill="none" stroke="black" points="506,-569 506,-592 "/>
<text text-anchor="middle" x="562" y="-576.8" font-family="SimSun" font-size="14.00">[10, 20] 黄金</text>
<polyline fill="none" stroke="black" points="460,-569 618,-569 "/>
<text text-anchor="start" x="468" y="-553.8" font-family="SimSun" font-size="14.00">+&gt;【骑手】</text>
</g>
<!-- 战术&#45;&gt;马镫 -->
<g id="edge15" class="edge">
<title>战术:e&#45;&gt;马镫:w</title>
<path fill="none" stroke="black" d="M388,-492.5C434.78,-492.5 413.34,-567.92 450,-579.12"/>
<polygon fill="black" stroke="black" points="449.61,-582.6 460,-580.5 450.57,-575.66 449.61,-582.6"/>
</g>
<!-- 医药 -->
<g id="node16" class="node">
<title>医药</title>
<polygon fill="none" stroke="black" points="460,-458 460,-527 618,-527 618,-458 460,-458"/>
<text text-anchor="middle" x="539" y="-511.8" font-family="SimSun" font-size="14.00">医药</text>
<polyline fill="none" stroke="black" points="460,-504 618,-504 "/>
<text text-anchor="middle" x="483" y="-488.8" font-family="SimSun" font-size="14.00">20秒</text>
<polyline fill="none" stroke="black" points="506,-481 506,-504 "/>
<text text-anchor="middle" x="562" y="-488.8" font-family="SimSun" font-size="14.00">[10, 20] 黄金</text>
<polyline fill="none" stroke="black" points="460,-481 618,-481 "/>
<text text-anchor="start" x="468" y="-465.8" font-family="SimSun" font-size="14.00">+&gt;【军医】</text>
</g>
<!-- 战术&#45;&gt;医药 -->
<g id="edge16" class="edge">
<title>战术:e&#45;&gt;医药:w</title>
<path fill="none" stroke="black" d="M388,-492.5C416.38,-492.5 425.88,-492.5 449.98,-492.5"/>
<polygon fill="black" stroke="black" points="450,-496 460,-492.5 450,-489 450,-496"/>
</g>
<!-- 复合弓 -->
<g id="node22" class="node">
<title>复合弓</title>
<polygon fill="none" stroke="black" points="460,-340 460,-439 618,-439 618,-340 460,-340"/>
<text text-anchor="middle" x="539" y="-423.8" font-family="SimSun" font-size="14.00">复合弓</text>
<polyline fill="none" stroke="black" points="460,-416 618,-416 "/>
<text text-anchor="middle" x="483" y="-400.8" font-family="SimSun" font-size="14.00">30秒</text>
<polyline fill="none" stroke="black" points="506,-393 506,-416 "/>
<text text-anchor="middle" x="562" y="-400.8" font-family="SimSun" font-size="14.00">[10, 20] 黄金</text>
<polyline fill="none" stroke="black" points="460,-393 618,-393 "/>
<text text-anchor="start" x="468" y="-377.8" font-family="SimSun" font-size="14.00">提高远程单位攻击力</text>
<text text-anchor="start" x="468" y="-362.8" font-family="SimSun" font-size="14.00">提高射击距离</text>
<text text-anchor="start" x="468" y="-347.8" font-family="SimSun" font-size="14.00">+&gt;【靶场】</text>
</g>
<!-- 战术&#45;&gt;复合弓 -->
<g id="edge22" class="edge">
<title>战术:e&#45;&gt;复合弓:w</title>
<path fill="none" stroke="black" d="M388,-492.5C440.14,-492.5 409,-402.73 450.08,-390.8"/>
<polygon fill="black" stroke="black" points="450.54,-394.27 460,-389.5 449.63,-387.33 450.54,-394.27"/>
</g>
<!-- 军事工程 -->
<g id="node17" class="node">
<title>军事工程</title>
<polygon fill="none" stroke="black" points="690,-593.5 690,-677.5 848,-677.5 848,-593.5 690,-593.5"/>
<text text-anchor="middle" x="769" y="-662.3" font-family="SimSun" font-size="14.00">军事工程</text>
<polyline fill="none" stroke="black" points="690,-654.5 848,-654.5 "/>
<text text-anchor="middle" x="713" y="-639.3" font-family="SimSun" font-size="14.00">30秒</text>
<polyline fill="none" stroke="black" points="736,-631.5 736,-654.5 "/>
<text text-anchor="middle" x="792" y="-639.3" font-family="SimSun" font-size="14.00">[10, 20] 黄金</text>
<polyline fill="none" stroke="black" points="690,-631.5 848,-631.5 "/>
<text text-anchor="start" x="698" y="-616.3" font-family="SimSun" font-size="14.00">+&gt;【拒马】</text>
<text text-anchor="start" x="698" y="-601.3" font-family="SimSun" font-size="14.00">+&gt;【堡垒】</text>
</g>
<!-- 马镫&#45;&gt;军事工程 -->
<g id="edge17" class="edge">
<title>马镫:e&#45;&gt;军事工程:w</title>
<path fill="none" stroke="black" d="M618,-580.5C654.49,-580.5 650.9,-625.67 679.88,-634.14"/>
<polygon fill="black" stroke="black" points="679.62,-637.64 690,-635.5 680.56,-630.7 679.62,-637.64"/>
</g>
<!-- 马匹育种 -->
<g id="node23" class="node">
<title>马匹育种</title>
<polygon fill="none" stroke="black" points="690,-475 690,-574 848,-574 848,-475 690,-475"/>
<text text-anchor="middle" x="769" y="-558.8" font-family="SimSun" font-size="14.00">马匹育种</text>
<polyline fill="none" stroke="black" points="690,-551 848,-551 "/>
<text text-anchor="middle" x="713" y="-535.8" font-family="SimSun" font-size="14.00">30秒</text>
<polyline fill="none" stroke="black" points="736,-528 736,-551 "/>
<text text-anchor="middle" x="792" y="-535.8" font-family="SimSun" font-size="14.00">[10, 20] 黄金</text>
<polyline fill="none" stroke="black" points="690,-528 848,-528 "/>
<text text-anchor="start" x="698" y="-512.8" font-family="SimSun" font-size="14.00">提高骑兵速度</text>
<text text-anchor="start" x="698" y="-497.8" font-family="SimSun" font-size="14.00">降低骑兵价格</text>
<text text-anchor="start" x="698" y="-482.8" font-family="SimSun" font-size="14.00">+&gt;【马厩】</text>
</g>
<!-- 马镫&#45;&gt;马匹育种 -->
<g id="edge23" class="edge">
<title>马镫:e&#45;&gt;马匹育种:w</title>
<path fill="none" stroke="black" d="M618,-580.5C654.74,-580.5 650.73,-534.51 679.82,-525.88"/>
<polygon fill="black" stroke="black" points="680.56,-529.32 690,-524.5 679.62,-522.38 680.56,-529.32"/>
</g>
<!-- 攻城器械 -->
<g id="node18" class="node">
<title>攻城器械</title>
<polygon fill="none" stroke="black" points="920,-593.5 920,-677.5 1078,-677.5 1078,-593.5 920,-593.5"/>
<text text-anchor="middle" x="999" y="-662.3" font-family="SimSun" font-size="14.00">攻城器械</text>
<polyline fill="none" stroke="black" points="920,-654.5 1078,-654.5 "/>
<text text-anchor="middle" x="943" y="-639.3" font-family="SimSun" font-size="14.00">30秒</text>
<polyline fill="none" stroke="black" points="966,-631.5 966,-654.5 "/>
<text text-anchor="middle" x="1022" y="-639.3" font-family="SimSun" font-size="14.00">[10, 20] 黄金</text>
<polyline fill="none" stroke="black" points="920,-631.5 1078,-631.5 "/>
<text text-anchor="start" x="928" y="-616.3" font-family="SimSun" font-size="14.00">+&gt;【冲车】</text>
<text text-anchor="start" x="928" y="-601.3" font-family="SimSun" font-size="14.00">+&gt;【投石机】</text>
</g>
<!-- 军事工程&#45;&gt;攻城器械 -->
<g id="edge18" class="edge">
<title>军事工程:e&#45;&gt;攻城器械:w</title>
<path fill="none" stroke="black" d="M848,-635.5C876.38,-635.5 885.88,-635.5 909.98,-635.5"/>
<polygon fill="black" stroke="black" points="910,-639 920,-635.5 910,-632 910,-639"/>
</g>
<!-- 火药 -->
<g id="node19" class="node">
<title>火药</title>
<polygon fill="none" stroke="black" points="1150.5,-652 1150.5,-721 1308.5,-721 1308.5,-652 1150.5,-652"/>
<text text-anchor="middle" x="1229.5" y="-705.8" font-family="SimSun" font-size="14.00">火药</text>
<polyline fill="none" stroke="black" points="1150.5,-698 1308.5,-698 "/>
<text text-anchor="middle" x="1173.5" y="-682.8" font-family="SimSun" font-size="14.00">20秒</text>
<polyline fill="none" stroke="black" points="1196.5,-675 1196.5,-698 "/>
<text text-anchor="middle" x="1252.5" y="-682.8" font-family="SimSun" font-size="14.00">[10, 20] 黄金</text>
<polyline fill="none" stroke="black" points="1150.5,-675 1308.5,-675 "/>
<text text-anchor="start" x="1158.5" y="-659.8" font-family="SimSun" font-size="14.00">+&gt;【火门枪手】</text>
</g>
<!-- 攻城器械&#45;&gt;火药 -->
<g id="edge19" class="edge">
<title>攻城器械:e&#45;&gt;火药:w</title>
<path fill="none" stroke="black" d="M1078,-635.5C1113.38,-635.5 1111.61,-677.03 1139.73,-685.14"/>
<polygon fill="black" stroke="black" points="1139.63,-688.65 1150,-686.5 1140.55,-681.71 1139.63,-688.65"/>
</g>
<!-- 军事技术 -->
<g id="node24" class="node">
<title>军事技术</title>
<polygon fill="none" stroke="black" points="1150,-534 1150,-633 1309,-633 1309,-534 1150,-534"/>
<text text-anchor="middle" x="1229.5" y="-617.8" font-family="SimSun" font-size="14.00">军事技术</text>
<polyline fill="none" stroke="black" points="1150,-610 1309,-610 "/>
<text text-anchor="middle" x="1173" y="-594.8" font-family="SimSun" font-size="14.00">30秒</text>
<polyline fill="none" stroke="black" points="1196,-587 1196,-610 "/>
<text text-anchor="middle" x="1252.5" y="-594.8" font-family="SimSun" font-size="14.00">[10, 20] 黄金</text>
<polyline fill="none" stroke="black" points="1150,-587 1309,-587 "/>
<text text-anchor="start" x="1158" y="-571.8" font-family="SimSun" font-size="14.00">提高攻城器械生产速度</text>
<text text-anchor="start" x="1158" y="-556.8" font-family="SimSun" font-size="14.00">降低攻城器械价格</text>
<text text-anchor="start" x="1158" y="-541.8" font-family="SimSun" font-size="14.00">+&gt;【兵工厂】</text>
</g>
<!-- 攻城器械&#45;&gt;军事技术 -->
<g id="edge24" class="edge">
<title>攻城器械:e&#45;&gt;军事技术:w</title>
<path fill="none" stroke="black" d="M1078,-635.5C1113.77,-635.5 1111.42,-592.79 1140.05,-584.79"/>
<polygon fill="black" stroke="black" points="1140.53,-588.25 1150,-583.5 1139.63,-581.31 1140.53,-588.25"/>
</g>
<!-- 火炮 -->
<g id="node20" class="node">
<title>火炮</title>
<polygon fill="none" stroke="black" points="1381,-652 1381,-721 1539,-721 1539,-652 1381,-652"/>
<text text-anchor="middle" x="1460" y="-705.8" font-family="SimSun" font-size="14.00">火炮</text>
<polyline fill="none" stroke="black" points="1381,-698 1539,-698 "/>
<text text-anchor="middle" x="1404" y="-682.8" font-family="SimSun" font-size="14.00">20秒</text>
<polyline fill="none" stroke="black" points="1427,-675 1427,-698 "/>
<text text-anchor="middle" x="1483" y="-682.8" font-family="SimSun" font-size="14.00">[10, 20] 黄金</text>
<polyline fill="none" stroke="black" points="1381,-675 1539,-675 "/>
<text text-anchor="start" x="1389" y="-659.8" font-family="SimSun" font-size="14.00">+&gt;【火炮】</text>
</g>
<!-- 火药&#45;&gt;火炮 -->
<g id="edge20" class="edge">
<title>火药:e&#45;&gt;火炮:w</title>
<path fill="none" stroke="black" d="M1309,-686.5C1337.38,-686.5 1346.88,-686.5 1370.98,-686.5"/>
<polygon fill="black" stroke="black" points="1371,-690 1381,-686.5 1371,-683 1371,-690"/>
</g>
<!-- 手工业 -->
<g id="node25" class="node">
<title>手工业</title>
<polygon fill="none" stroke="black" points="0,-670 0,-769 158,-769 158,-670 0,-670"/>
<text text-anchor="middle" x="79" y="-753.8" font-family="SimSun" font-size="14.00">手工业</text>
<polyline fill="none" stroke="black" points="0,-746 158,-746 "/>
<text text-anchor="middle" x="23" y="-730.8" font-family="SimSun" font-size="14.00">30秒</text>
<polyline fill="none" stroke="black" points="46,-723 46,-746 "/>
<text text-anchor="middle" x="102" y="-730.8" font-family="SimSun" font-size="14.00">[10, 20] 黄金</text>
<polyline fill="none" stroke="black" points="0,-723 158,-723 "/>
<text text-anchor="start" x="8" y="-707.8" font-family="SimSun" font-size="14.00">提高攻击力</text>
<text text-anchor="start" x="8" y="-692.8" font-family="SimSun" font-size="14.00">提高防御力</text>
<text text-anchor="start" x="8" y="-677.8" font-family="SimSun" font-size="14.00">+&gt;【铁匠铺】</text>
</g>
<!-- 铸造 -->
<g id="node26" class="node">
<title>铸造</title>
<polygon fill="none" stroke="black" points="230,-729.5 230,-813.5 388,-813.5 388,-729.5 230,-729.5"/>
<text text-anchor="middle" x="309" y="-798.3" font-family="SimSun" font-size="14.00">铸造</text>
<polyline fill="none" stroke="black" points="230,-790.5 388,-790.5 "/>
<text text-anchor="middle" x="253" y="-775.3" font-family="SimSun" font-size="14.00">30秒</text>
<polyline fill="none" stroke="black" points="276,-767.5 276,-790.5 "/>
<text text-anchor="middle" x="332" y="-775.3" font-family="SimSun" font-size="14.00">[10, 20] 黄金</text>
<polyline fill="none" stroke="black" points="230,-767.5 388,-767.5 "/>
<text text-anchor="start" x="238" y="-752.3" font-family="SimSun" font-size="14.00">提高攻击力</text>
<text text-anchor="start" x="238" y="-737.3" font-family="SimSun" font-size="14.00">提高攻击速度</text>
</g>
<!-- 手工业&#45;&gt;铸造 -->
<g id="edge25" class="edge">
<title>手工业:e&#45;&gt;铸造:w</title>
<path fill="none" stroke="black" d="M158,-719.5C193.77,-719.5 191.42,-762.21 220.05,-770.21"/>
<polygon fill="black" stroke="black" points="219.63,-773.69 230,-771.5 220.53,-766.75 219.63,-773.69"/>
</g>
<!-- 锁子甲 -->
<g id="node28" class="node">
<title>锁子甲</title>
<polygon fill="none" stroke="black" points="230,-626.5 230,-710.5 388,-710.5 388,-626.5 230,-626.5"/>
<text text-anchor="middle" x="309" y="-695.3" font-family="SimSun" font-size="14.00">锁子甲</text>
<polyline fill="none" stroke="black" points="230,-687.5 388,-687.5 "/>
<text text-anchor="middle" x="253" y="-672.3" font-family="SimSun" font-size="14.00">30秒</text>
<polyline fill="none" stroke="black" points="276,-664.5 276,-687.5 "/>
<text text-anchor="middle" x="332" y="-672.3" font-family="SimSun" font-size="14.00">[10, 20] 黄金</text>
<polyline fill="none" stroke="black" points="230,-664.5 388,-664.5 "/>
<text text-anchor="start" x="238" y="-649.3" font-family="SimSun" font-size="14.00">提高防御力</text>
<text text-anchor="start" x="238" y="-634.3" font-family="SimSun" font-size="14.00">提高速度</text>
</g>
<!-- 手工业&#45;&gt;锁子甲 -->
<g id="edge27" class="edge">
<title>手工业:e&#45;&gt;锁子甲:w</title>
<path fill="none" stroke="black" d="M158,-719.5C193.38,-719.5 191.61,-677.97 219.73,-669.86"/>
<polygon fill="black" stroke="black" points="220.55,-673.29 230,-668.5 219.63,-666.35 220.55,-673.29"/>
</g>
<!-- 冶金 -->
<g id="node27" class="node">
<title>冶金</title>
<polygon fill="none" stroke="black" points="460,-737 460,-806 618,-806 618,-737 460,-737"/>
<text text-anchor="middle" x="539" y="-790.8" font-family="SimSun" font-size="14.00">冶金</text>
<polyline fill="none" stroke="black" points="460,-783 618,-783 "/>
<text text-anchor="middle" x="483" y="-767.8" font-family="SimSun" font-size="14.00">30秒</text>
<polyline fill="none" stroke="black" points="506,-760 506,-783 "/>
<text text-anchor="middle" x="562" y="-767.8" font-family="SimSun" font-size="14.00">[10, 20] 黄金</text>
<polyline fill="none" stroke="black" points="460,-760 618,-760 "/>
<text text-anchor="start" x="468" y="-744.8" font-family="SimSun" font-size="14.00">提高攻击力</text>
</g>
<!-- 铸造&#45;&gt;冶金 -->
<g id="edge26" class="edge">
<title>铸造:e&#45;&gt;冶金:w</title>
<path fill="none" stroke="black" d="M388,-771.5C416.38,-771.5 425.88,-771.5 449.98,-771.5"/>
<polygon fill="black" stroke="black" points="450,-775 460,-771.5 450,-768 450,-775"/>
</g>
<!-- 板甲 -->
<g id="node29" class="node">
<title>板甲</title>
<polygon fill="none" stroke="black" points="460,-634 460,-703 618,-703 618,-634 460,-634"/>
<text text-anchor="middle" x="539" y="-687.8" font-family="SimSun" font-size="14.00">板甲</text>
<polyline fill="none" stroke="black" points="460,-680 618,-680 "/>
<text text-anchor="middle" x="483" y="-664.8" font-family="SimSun" font-size="14.00">30秒</text>
<polyline fill="none" stroke="black" points="506,-657 506,-680 "/>
<text text-anchor="middle" x="562" y="-664.8" font-family="SimSun" font-size="14.00">[10, 20] 黄金</text>
<polyline fill="none" stroke="black" points="460,-657 618,-657 "/>
<text text-anchor="start" x="468" y="-641.8" font-family="SimSun" font-size="14.00">提高防御力</text>
</g>
<!-- 锁子甲&#45;&gt;板甲 -->
<g id="edge28" class="edge">
<title>锁子甲:e&#45;&gt;板甲:w</title>
<path fill="none" stroke="black" d="M388,-668.5C416.38,-668.5 425.88,-668.5 449.98,-668.5"/>
<polygon fill="black" stroke="black" points="450,-672 460,-668.5 450,-665 450,-672"/>
</g>
</g>
</svg>
