<?xml version="1.0" encoding="UTF-8" standalone="no"?>
<!DOCTYPE svg PUBLIC "-//W3C//DTD SVG 1.1//EN"
 "http://www.w3.org/Graphics/SVG/1.1/DTD/svg11.dtd">
<!-- Generated by graphviz version 2.49.3 (20211023.0002)
 -->
<!-- Title: G Pages: 1 -->
<svg width="1547pt" height="739pt"
 viewBox="0.00 0.00 1547.00 739.00" xmlns="http://www.w3.org/2000/svg" xmlns:xlink="http://www.w3.org/1999/xlink">
<g id="graph0" class="graph" transform="scale(1 1) rotate(0) translate(4 735)">
<title>G</title>
<polygon fill="white" stroke="transparent" points="-4,4 -4,-735 1543,-735 1543,4 -4,4"/>
<!-- 0016.手推车 -->
<g id="node1" class="node">
<title>0016.手推车</title>
<polygon fill="#ffaa00" stroke="black" points="0,-118.5 0,-202.5 158,-202.5 158,-118.5 0,-118.5"/>
<text text-anchor="middle" x="79" y="-187.3" font-family="SimSun" font-size="14.00">0016.手推车</text>
<polyline fill="none" stroke="black" points="0,-179.5 158,-179.5 "/>
<text text-anchor="middle" x="23" y="-164.3" font-family="SimSun" font-size="14.00">20秒</text>
<polyline fill="none" stroke="black" points="46,-156.5 46,-179.5 "/>
<text text-anchor="middle" x="102" y="-164.3" font-family="SimSun" font-size="14.00">[10, 20] 黄金</text>
<polyline fill="none" stroke="black" points="0,-156.5 158,-156.5 "/>
<text text-anchor="start" x="8" y="-141.3" font-family="SimSun" font-size="14.00">提高工人速度</text>
<text text-anchor="start" x="8" y="-126.3" font-family="SimSun" font-size="14.00">减少卸货时间</text>
</g>
<!-- 0017.水利 -->
<g id="node2" class="node">
<title>0017.水利</title>
<polygon fill="#ffaa00" stroke="black" points="230,-233.5 230,-317.5 388,-317.5 388,-233.5 230,-233.5"/>
<text text-anchor="middle" x="309" y="-302.3" font-family="SimSun" font-size="14.00">0017.水利</text>
<polyline fill="none" stroke="black" points="230,-294.5 388,-294.5 "/>
<text text-anchor="middle" x="253" y="-279.3" font-family="SimSun" font-size="14.00">20秒</text>
<polyline fill="none" stroke="black" points="276,-271.5 276,-294.5 "/>
<text text-anchor="middle" x="332" y="-279.3" font-family="SimSun" font-size="14.00">[10, 20] 黄金</text>
<polyline fill="none" stroke="black" points="230,-271.5 388,-271.5 "/>
<text text-anchor="start" x="238" y="-256.3" font-family="SimSun" font-size="14.00">提高食物采集量</text>
<text text-anchor="start" x="238" y="-241.3" font-family="SimSun" font-size="14.00">降低食物采集时间</text>
</g>
<!-- 0016.手推车&#45;&gt;0017.水利 -->
<g id="edge1" class="edge">
<title>0016.手推车:e&#45;&gt;0017.水利:w</title>
<path fill="none" stroke="black" d="M158,-160.5C214.53,-160.5 175.35,-261.57 219.92,-274.21"/>
<polygon fill="black" stroke="black" points="219.64,-277.7 230,-275.5 220.53,-270.76 219.64,-277.7"/>
</g>
<!-- 0019.采矿 -->
<g id="node3" class="node">
<title>0019.采矿</title>
<polygon fill="#ffaa00" stroke="black" points="230,-4.5 230,-88.5 388,-88.5 388,-4.5 230,-4.5"/>
<text text-anchor="middle" x="309" y="-73.3" font-family="SimSun" font-size="14.00">0019.采矿</text>
<polyline fill="none" stroke="black" points="230,-65.5 388,-65.5 "/>
<text text-anchor="middle" x="253" y="-50.3" font-family="SimSun" font-size="14.00">10秒</text>
<polyline fill="none" stroke="black" points="276,-42.5 276,-65.5 "/>
<text text-anchor="middle" x="332" y="-50.3" font-family="SimSun" font-size="14.00">[10, 20] 黄金</text>
<polyline fill="none" stroke="black" points="230,-42.5 388,-42.5 "/>
<text text-anchor="start" x="238" y="-27.3" font-family="SimSun" font-size="14.00">提高矿物采集量</text>
<text text-anchor="start" x="238" y="-12.3" font-family="SimSun" font-size="14.00">降低矿物采集时间</text>
</g>
<!-- 0016.手推车&#45;&gt;0019.采矿 -->
<g id="edge2" class="edge">
<title>0016.手推车:e&#45;&gt;0019.采矿:w</title>
<path fill="none" stroke="black" d="M158,-160.5C214.18,-160.5 175.63,-60.3 219.97,-47.78"/>
<polygon fill="black" stroke="black" points="220.52,-51.24 230,-46.5 219.64,-44.29 220.52,-51.24"/>
</g>
<!-- 0018.行政机构 -->
<g id="node4" class="node">
<title>0018.行政机构</title>
<polygon fill="#ffaa00" stroke="black" points="230,-111 230,-210 388,-210 388,-111 230,-111"/>
<text text-anchor="middle" x="309" y="-194.8" font-family="SimSun" font-size="14.00">0018.行政机构</text>
<polyline fill="none" stroke="black" points="230,-187 388,-187 "/>
<text text-anchor="middle" x="253" y="-171.8" font-family="SimSun" font-size="14.00">10秒</text>
<polyline fill="none" stroke="black" points="276,-164 276,-187 "/>
<text text-anchor="middle" x="332" y="-171.8" font-family="SimSun" font-size="14.00">[10, 20] 黄金</text>
<polyline fill="none" stroke="black" points="230,-164 388,-164 "/>
<text text-anchor="start" x="238" y="-148.8" font-family="SimSun" font-size="14.00">提高工人人口上限</text>
<text text-anchor="start" x="238" y="-133.8" font-family="SimSun" font-size="14.00">提高工人生产速度</text>
<text text-anchor="start" x="238" y="-118.8" font-family="SimSun" font-size="14.00">+&gt;【仓库】</text>
</g>
<!-- 0016.手推车&#45;&gt;0018.行政机构 -->
<g id="edge3" class="edge">
<title>0016.手推车:e&#45;&gt;0018.行政机构:w</title>
<path fill="none" stroke="black" d="M158,-160.5C186.38,-160.5 195.88,-160.5 219.98,-160.5"/>
<polygon fill="black" stroke="black" points="220,-164 230,-160.5 220,-157 220,-164"/>
</g>
<!-- 0020.农学 -->
<g id="node5" class="node">
<title>0020.农学</title>
<polygon fill="#ffaa00" stroke="black" points="460,-236.5 460,-320.5 618,-320.5 618,-236.5 460,-236.5"/>
<text text-anchor="middle" x="539" y="-305.3" font-family="SimSun" font-size="14.00">0020.农学</text>
<polyline fill="none" stroke="black" points="460,-297.5 618,-297.5 "/>
<text text-anchor="middle" x="483" y="-282.3" font-family="SimSun" font-size="14.00">10秒</text>
<polyline fill="none" stroke="black" points="506,-274.5 506,-297.5 "/>
<text text-anchor="middle" x="562" y="-282.3" font-family="SimSun" font-size="14.00">[10, 20] 黄金</text>
<polyline fill="none" stroke="black" points="460,-274.5 618,-274.5 "/>
<text text-anchor="start" x="468" y="-259.3" font-family="SimSun" font-size="14.00">提高食物采集量</text>
<text text-anchor="start" x="468" y="-244.3" font-family="SimSun" font-size="14.00">+&gt;【农庄】</text>
</g>
<!-- 0017.水利&#45;&gt;0020.农学 -->
<g id="edge4" class="edge">
<title>0017.水利:e&#45;&gt;0020.农学:w</title>
<path fill="none" stroke="black" d="M388,-275.5C416.4,-275.5 425.86,-277.86 449.97,-278.39"/>
<polygon fill="black" stroke="black" points="449.96,-281.89 460,-278.5 450.04,-274.89 449.96,-281.89"/>
</g>
<!-- 0022.矿井勘探 -->
<g id="node6" class="node">
<title>0022.矿井勘探</title>
<polygon fill="#ffaa00" stroke="black" points="460,-0.5 460,-84.5 618,-84.5 618,-0.5 460,-0.5"/>
<text text-anchor="middle" x="539" y="-69.3" font-family="SimSun" font-size="14.00">0022.矿井勘探</text>
<polyline fill="none" stroke="black" points="460,-61.5 618,-61.5 "/>
<text text-anchor="middle" x="483" y="-46.3" font-family="SimSun" font-size="14.00">10秒</text>
<polyline fill="none" stroke="black" points="506,-38.5 506,-61.5 "/>
<text text-anchor="middle" x="562" y="-46.3" font-family="SimSun" font-size="14.00">[10, 20] 黄金</text>
<polyline fill="none" stroke="black" points="460,-38.5 618,-38.5 "/>
<text text-anchor="start" x="468" y="-23.3" font-family="SimSun" font-size="14.00">提高矿物采集量</text>
<text text-anchor="start" x="468" y="-8.3" font-family="SimSun" font-size="14.00">+&gt;【矿场】</text>
</g>
<!-- 0019.采矿&#45;&gt;0022.矿井勘探 -->
<g id="edge6" class="edge">
<title>0019.采矿:e&#45;&gt;0022.矿井勘探:w</title>
<path fill="none" stroke="black" d="M388,-46.5C416.42,-46.5 425.85,-43.35 449.97,-42.64"/>
<polygon fill="black" stroke="black" points="450.05,-46.14 460,-42.5 449.95,-39.14 450.05,-46.14"/>
</g>
<!-- 0018.行政机构&#45;&gt;0020.农学 -->
<g id="edge5" class="edge">
<title>0018.行政机构:e&#45;&gt;0020.农学:w</title>
<path fill="none" stroke="black" d="M388,-160.5C445.72,-160.5 404.31,-264.64 450.03,-277.25"/>
<polygon fill="black" stroke="black" points="449.64,-280.73 460,-278.5 450.51,-273.79 449.64,-280.73"/>
</g>
<!-- 0018.行政机构&#45;&gt;0022.矿井勘探 -->
<g id="edge7" class="edge">
<title>0018.行政机构:e&#45;&gt;0022.矿井勘探:w</title>
<path fill="none" stroke="black" d="M388,-160.5C445.72,-160.5 404.31,-56.36 450.03,-43.75"/>
<polygon fill="black" stroke="black" points="450.51,-47.21 460,-42.5 449.64,-40.27 450.51,-47.21"/>
</g>
<!-- 0021.教育 -->
<g id="node8" class="node">
<title>0021.教育</title>
<polygon fill="#ffaa00" stroke="black" points="460,-103.5 460,-217.5 618,-217.5 618,-103.5 460,-103.5"/>
<text text-anchor="middle" x="539" y="-202.3" font-family="SimSun" font-size="14.00">0021.教育</text>
<polyline fill="none" stroke="black" points="460,-194.5 618,-194.5 "/>
<text text-anchor="middle" x="483" y="-179.3" font-family="SimSun" font-size="14.00">10秒</text>
<polyline fill="none" stroke="black" points="506,-171.5 506,-194.5 "/>
<text text-anchor="middle" x="562" y="-179.3" font-family="SimSun" font-size="14.00">[10, 20] 黄金</text>
<polyline fill="none" stroke="black" points="460,-171.5 618,-171.5 "/>
<text text-anchor="start" x="468" y="-156.3" font-family="SimSun" font-size="14.00">提高科研速度</text>
<text text-anchor="start" x="468" y="-141.3" font-family="SimSun" font-size="14.00">提高单位生产力</text>
<text text-anchor="start" x="468" y="-126.3" font-family="SimSun" font-size="14.00">提高工人人口上限</text>
<text text-anchor="start" x="468" y="-111.3" font-family="SimSun" font-size="14.00">提高军事人口上限</text>
</g>
<!-- 0018.行政机构&#45;&gt;0021.教育 -->
<g id="edge9" class="edge">
<title>0018.行政机构:e&#45;&gt;0021.教育:w</title>
<path fill="none" stroke="black" d="M388,-160.5C416.38,-160.5 425.88,-160.5 449.98,-160.5"/>
<polygon fill="black" stroke="black" points="450,-164 460,-160.5 450,-157 450,-164"/>
</g>
<!-- 启蒙运动 -->
<g id="node11" class="node">
<title>启蒙运动</title>
<polygon fill="#ffaa00" stroke="black" points="1150,-103.5 1150,-217.5 1308,-217.5 1308,-103.5 1150,-103.5"/>
<text text-anchor="middle" x="1229" y="-202.3" font-family="SimSun" font-size="14.00">启蒙运动</text>
<polyline fill="none" stroke="black" points="1150,-194.5 1308,-194.5 "/>
<text text-anchor="middle" x="1173" y="-179.3" font-family="SimSun" font-size="14.00">10秒</text>
<polyline fill="none" stroke="black" points="1196,-171.5 1196,-194.5 "/>
<text text-anchor="middle" x="1252" y="-179.3" font-family="SimSun" font-size="14.00">[10, 20] 黄金</text>
<polyline fill="none" stroke="black" points="1150,-171.5 1308,-171.5 "/>
<text text-anchor="start" x="1158" y="-156.3" font-family="SimSun" font-size="14.00">提高工人人口上限</text>
<text text-anchor="start" x="1158" y="-141.3" font-family="SimSun" font-size="14.00">提高军事人口上限</text>
<text text-anchor="start" x="1158" y="-126.3" font-family="SimSun" font-size="14.00">提高单位生产力</text>
<text text-anchor="start" x="1158" y="-111.3" font-family="SimSun" font-size="14.00">+2政策槽位</text>
</g>
<!-- 0020.农学&#45;&gt;启蒙运动 -->
<g id="edge13" class="edge">
<title>0020.农学:e&#45;&gt;启蒙运动:w</title>
<path fill="none" stroke="black" d="M618,-278.5C823.75,-278.5 890.75,-311.76 1078,-226.5 1114.11,-210.06 1108.09,-168.53 1139.95,-161.51"/>
<polygon fill="black" stroke="black" points="1140.4,-164.99 1150,-160.5 1139.7,-158.02 1140.4,-164.99"/>
</g>
<!-- 0025.化学 -->
<g id="node7" class="node">
<title>0025.化学</title>
<polygon fill="#ffaa00" stroke="black" points="920,-13 920,-82 1078,-82 1078,-13 920,-13"/>
<text text-anchor="middle" x="999" y="-66.8" font-family="SimSun" font-size="14.00">0025.化学</text>
<polyline fill="none" stroke="black" points="920,-59 1078,-59 "/>
<text text-anchor="middle" x="943" y="-43.8" font-family="SimSun" font-size="14.00">10秒</text>
<polyline fill="none" stroke="black" points="966,-36 966,-59 "/>
<text text-anchor="middle" x="1022" y="-43.8" font-family="SimSun" font-size="14.00">[10, 20] 黄金</text>
<polyline fill="none" stroke="black" points="920,-36 1078,-36 "/>
<text text-anchor="start" x="928" y="-20.8" font-family="SimSun" font-size="14.00">提高矿物采集量</text>
</g>
<!-- 0022.矿井勘探&#45;&gt;0025.化学 -->
<g id="edge8" class="edge">
<title>0022.矿井勘探:e&#45;&gt;0025.化学:w</title>
<path fill="none" stroke="black" d="M618,-42.5C748.83,-42.5 783.99,-47.25 909.97,-47.49"/>
<polygon fill="black" stroke="black" points="910,-50.99 920,-47.5 910,-43.99 910,-50.99"/>
</g>
<!-- 0025.化学&#45;&gt;启蒙运动 -->
<g id="edge14" class="edge">
<title>0025.化学:e&#45;&gt;启蒙运动:w</title>
<path fill="none" stroke="black" d="M1078,-47.5C1133.83,-47.5 1095.92,-146.82 1140.03,-159.23"/>
<polygon fill="black" stroke="black" points="1139.64,-162.71 1150,-160.5 1140.52,-155.77 1139.64,-162.71"/>
</g>
<!-- 0024.经济 -->
<g id="node9" class="node">
<title>0024.经济</title>
<polygon fill="#ffaa00" stroke="black" points="690,-103.5 690,-217.5 848,-217.5 848,-103.5 690,-103.5"/>
<text text-anchor="middle" x="769" y="-202.3" font-family="SimSun" font-size="14.00">0024.经济</text>
<polyline fill="none" stroke="black" points="690,-194.5 848,-194.5 "/>
<text text-anchor="middle" x="713" y="-179.3" font-family="SimSun" font-size="14.00">10秒</text>
<polyline fill="none" stroke="black" points="736,-171.5 736,-194.5 "/>
<text text-anchor="middle" x="792" y="-179.3" font-family="SimSun" font-size="14.00">[10, 20] 黄金</text>
<polyline fill="none" stroke="black" points="690,-171.5 848,-171.5 "/>
<text text-anchor="start" x="698" y="-156.3" font-family="SimSun" font-size="14.00">提高工人人口上限</text>
<text text-anchor="start" x="698" y="-141.3" font-family="SimSun" font-size="14.00">提高军事人口上限</text>
<text text-anchor="start" x="698" y="-126.3" font-family="SimSun" font-size="14.00">提高单位生产力</text>
<text text-anchor="start" x="698" y="-111.3" font-family="SimSun" font-size="14.00">+&gt;【市场】</text>
</g>
<!-- 0021.教育&#45;&gt;0024.经济 -->
<g id="edge10" class="edge">
<title>0021.教育:e&#45;&gt;0024.经济:w</title>
<path fill="none" stroke="black" d="M618,-160.5C646.38,-160.5 655.88,-160.5 679.98,-160.5"/>
<polygon fill="black" stroke="black" points="680,-164 690,-160.5 680,-157 680,-164"/>
</g>
<!-- 0026.工程技术 -->
<g id="node10" class="node">
<title>0026.工程技术</title>
<polygon fill="#ffaa00" stroke="black" points="920,-103.5 920,-217.5 1078,-217.5 1078,-103.5 920,-103.5"/>
<text text-anchor="middle" x="999" y="-202.3" font-family="SimSun" font-size="14.00">0026.工程技术</text>
<polyline fill="none" stroke="black" points="920,-194.5 1078,-194.5 "/>
<text text-anchor="middle" x="943" y="-179.3" font-family="SimSun" font-size="14.00">10秒</text>
<polyline fill="none" stroke="black" points="966,-171.5 966,-194.5 "/>
<text text-anchor="middle" x="1022" y="-179.3" font-family="SimSun" font-size="14.00">[10, 20] 黄金</text>
<polyline fill="none" stroke="black" points="920,-171.5 1078,-171.5 "/>
<text text-anchor="start" x="928" y="-156.3" font-family="SimSun" font-size="14.00">提高建筑速度</text>
<text text-anchor="start" x="928" y="-141.3" font-family="SimSun" font-size="14.00">提高单位生产力</text>
<text text-anchor="start" x="928" y="-126.3" font-family="SimSun" font-size="14.00">提高工人人口上限</text>
<text text-anchor="start" x="928" y="-111.3" font-family="SimSun" font-size="14.00">提高军事人口上限</text>
</g>
<!-- 0024.经济&#45;&gt;0026.工程技术 -->
<g id="edge11" class="edge">
<title>0024.经济:e&#45;&gt;0026.工程技术:w</title>
<path fill="none" stroke="black" d="M848,-160.5C876.38,-160.5 885.88,-160.5 909.98,-160.5"/>
<polygon fill="black" stroke="black" points="910,-164 920,-160.5 910,-157 910,-164"/>
</g>
<!-- 0026.工程技术&#45;&gt;启蒙运动 -->
<g id="edge12" class="edge">
<title>0026.工程技术:e&#45;&gt;启蒙运动:w</title>
<path fill="none" stroke="black" d="M1078,-160.5C1106.38,-160.5 1115.88,-160.5 1139.98,-160.5"/>
<polygon fill="black" stroke="black" points="1140,-164 1150,-160.5 1140,-157 1140,-164"/>
</g>
<!-- 军事训练 -->
<g id="node12" class="node">
<title>军事训练</title>
<polygon fill="#228dff" stroke="black" points="0,-383 0,-482 158,-482 158,-383 0,-383"/>
<text text-anchor="middle" x="79" y="-466.8" font-family="SimSun" font-size="14.00">军事训练</text>
<polyline fill="none" stroke="black" points="0,-459 158,-459 "/>
<text text-anchor="middle" x="23" y="-443.8" font-family="SimSun" font-size="14.00">20秒</text>
<polyline fill="none" stroke="black" points="46,-436 46,-459 "/>
<text text-anchor="middle" x="102" y="-443.8" font-family="SimSun" font-size="14.00">[10, 20] 黄金</text>
<polyline fill="none" stroke="black" points="0,-436 158,-436 "/>
<text text-anchor="start" x="8" y="-420.8" font-family="SimSun" font-size="14.00">X&gt;【民兵】</text>
<text text-anchor="start" x="8" y="-405.8" font-family="SimSun" font-size="14.00">+&gt;【盾牌手】</text>
<text text-anchor="start" x="8" y="-390.8" font-family="SimSun" font-size="14.00">+&gt;【长矛兵】</text>
</g>
<!-- 0006.战术 -->
<g id="node13" class="node">
<title>0006.战术</title>
<polygon fill="#228dff" stroke="black" points="230,-452 230,-521 388,-521 388,-452 230,-452"/>
<text text-anchor="middle" x="309" y="-505.8" font-family="SimSun" font-size="14.00">0006.战术</text>
<polyline fill="none" stroke="black" points="230,-498 388,-498 "/>
<text text-anchor="middle" x="253" y="-482.8" font-family="SimSun" font-size="14.00">20秒</text>
<polyline fill="none" stroke="black" points="276,-475 276,-498 "/>
<text text-anchor="middle" x="332" y="-482.8" font-family="SimSun" font-size="14.00">[10, 20] 黄金</text>
<polyline fill="none" stroke="black" points="230,-475 388,-475 "/>
<text text-anchor="start" x="238" y="-459.8" font-family="SimSun" font-size="14.00">+&gt;【弓箭手】</text>
</g>
<!-- 军事训练&#45;&gt;0006.战术 -->
<g id="edge15" class="edge">
<title>军事训练:e&#45;&gt;0006.战术:w</title>
<path fill="none" stroke="black" d="M158,-432.5C194.25,-432.5 191.08,-476.85 219.94,-485.17"/>
<polygon fill="black" stroke="black" points="219.63,-488.65 230,-486.5 220.55,-481.72 219.63,-488.65"/>
</g>
<!-- 0008.马镫 -->
<g id="node14" class="node">
<title>0008.马镫</title>
<polygon fill="#228dff" stroke="black" points="230,-359 230,-428 388,-428 388,-359 230,-359"/>
<text text-anchor="middle" x="309" y="-412.8" font-family="SimSun" font-size="14.00">0008.马镫</text>
<polyline fill="none" stroke="black" points="230,-405 388,-405 "/>
<text text-anchor="middle" x="253" y="-389.8" font-family="SimSun" font-size="14.00">20秒</text>
<polyline fill="none" stroke="black" points="276,-382 276,-405 "/>
<text text-anchor="middle" x="332" y="-389.8" font-family="SimSun" font-size="14.00">[10, 20] 黄金</text>
<polyline fill="none" stroke="black" points="230,-382 388,-382 "/>
<text text-anchor="start" x="238" y="-366.8" font-family="SimSun" font-size="14.00">+&gt;【骑兵】</text>
</g>
<!-- 军事训练&#45;&gt;0008.马镫 -->
<g id="edge16" class="edge">
<title>军事训练:e&#45;&gt;0008.马镫:w</title>
<path fill="none" stroke="black" d="M158,-432.5C190.7,-432.5 193.38,-401.02 219.98,-394.63"/>
<polygon fill="black" stroke="black" points="220.45,-398.09 230,-393.5 219.67,-391.14 220.45,-398.09"/>
</g>
<!-- 0010.军事工程 -->
<g id="node17" class="node">
<title>0010.军事工程</title>
<polygon fill="#228dff" stroke="black" points="460,-458 460,-527 618,-527 618,-458 460,-458"/>
<text text-anchor="middle" x="539" y="-511.8" font-family="SimSun" font-size="14.00">0010.军事工程</text>
<polyline fill="none" stroke="black" points="460,-504 618,-504 "/>
<text text-anchor="middle" x="483" y="-488.8" font-family="SimSun" font-size="14.00">30秒</text>
<polyline fill="none" stroke="black" points="506,-481 506,-504 "/>
<text text-anchor="middle" x="562" y="-488.8" font-family="SimSun" font-size="14.00">[10, 20] 黄金</text>
<polyline fill="none" stroke="black" points="460,-481 618,-481 "/>
<text text-anchor="start" x="468" y="-465.8" font-family="SimSun" font-size="14.00">+&gt;【拒马】</text>
</g>
<!-- 0006.战术&#45;&gt;0010.军事工程 -->
<g id="edge19" class="edge">
<title>0006.战术:e&#45;&gt;0010.军事工程:w</title>
<path fill="none" stroke="black" d="M388,-486.5C416.47,-486.5 425.81,-491.22 449.95,-492.29"/>
<polygon fill="black" stroke="black" points="449.93,-495.79 460,-492.5 450.08,-488.79 449.93,-495.79"/>
</g>
<!-- 骑士制度 -->
<g id="node15" class="node">
<title>骑士制度</title>
<polygon fill="#228dff" stroke="black" points="460,-340 460,-439 618,-439 618,-340 460,-340"/>
<text text-anchor="middle" x="539" y="-423.8" font-family="SimSun" font-size="14.00">骑士制度</text>
<polyline fill="none" stroke="black" points="460,-416 618,-416 "/>
<text text-anchor="middle" x="483" y="-400.8" font-family="SimSun" font-size="14.00">20秒</text>
<polyline fill="none" stroke="black" points="506,-393 506,-416 "/>
<text text-anchor="middle" x="562" y="-400.8" font-family="SimSun" font-size="14.00">[10, 20] 黄金</text>
<polyline fill="none" stroke="black" points="460,-393 618,-393 "/>
<text text-anchor="start" x="468" y="-377.8" font-family="SimSun" font-size="14.00">X&gt;【骑兵】</text>
<text text-anchor="start" x="468" y="-362.8" font-family="SimSun" font-size="14.00">+&gt;【轻骑兵】</text>
<text text-anchor="start" x="468" y="-347.8" font-family="SimSun" font-size="14.00">+&gt;【重骑兵】</text>
</g>
<!-- 0008.马镫&#45;&gt;骑士制度 -->
<g id="edge17" class="edge">
<title>0008.马镫:e&#45;&gt;骑士制度:w</title>
<path fill="none" stroke="black" d="M388,-393.5C416.42,-393.5 425.85,-390.35 449.97,-389.64"/>
<polygon fill="black" stroke="black" points="450.05,-393.14 460,-389.5 449.95,-386.14 450.05,-393.14"/>
</g>
<!-- 宪兵连 -->
<g id="node16" class="node">
<title>宪兵连</title>
<polygon fill="#228dff" stroke="black" points="690,-347.5 690,-431.5 848,-431.5 848,-347.5 690,-347.5"/>
<text text-anchor="middle" x="769" y="-416.3" font-family="SimSun" font-size="14.00">宪兵连</text>
<polyline fill="none" stroke="black" points="690,-408.5 848,-408.5 "/>
<text text-anchor="middle" x="713" y="-393.3" font-family="SimSun" font-size="14.00">20秒</text>
<polyline fill="none" stroke="black" points="736,-385.5 736,-408.5 "/>
<text text-anchor="middle" x="792" y="-393.3" font-family="SimSun" font-size="14.00">[10, 20] 黄金</text>
<polyline fill="none" stroke="black" points="690,-385.5 848,-385.5 "/>
<text text-anchor="start" x="698" y="-370.3" font-family="SimSun" font-size="14.00">X&gt;【重骑兵】</text>
<text text-anchor="start" x="698" y="-355.3" font-family="SimSun" font-size="14.00">+&gt;【鸢尾花骑兵】</text>
</g>
<!-- 骑士制度&#45;&gt;宪兵连 -->
<g id="edge18" class="edge">
<title>骑士制度:e&#45;&gt;宪兵连:w</title>
<path fill="none" stroke="black" d="M618,-389.5C646.38,-389.5 655.88,-389.5 679.98,-389.5"/>
<polygon fill="black" stroke="black" points="680,-393 690,-389.5 680,-386 680,-393"/>
</g>
<!-- 0011.马匹育种 -->
<g id="node22" class="node">
<title>0011.马匹育种</title>
<polygon fill="#228dff" stroke="black" points="920,-340 920,-439 1078,-439 1078,-340 920,-340"/>
<text text-anchor="middle" x="999" y="-423.8" font-family="SimSun" font-size="14.00">0011.马匹育种</text>
<polyline fill="none" stroke="black" points="920,-416 1078,-416 "/>
<text text-anchor="middle" x="943" y="-400.8" font-family="SimSun" font-size="14.00">30秒</text>
<polyline fill="none" stroke="black" points="966,-393 966,-416 "/>
<text text-anchor="middle" x="1022" y="-400.8" font-family="SimSun" font-size="14.00">[10, 20] 黄金</text>
<polyline fill="none" stroke="black" points="920,-393 1078,-393 "/>
<text text-anchor="start" x="928" y="-377.8" font-family="SimSun" font-size="14.00">提高骑兵速度</text>
<text text-anchor="start" x="928" y="-362.8" font-family="SimSun" font-size="14.00">降低骑兵价格</text>
<text text-anchor="start" x="928" y="-347.8" font-family="SimSun" font-size="14.00">+&gt;【马厩】</text>
</g>
<!-- 宪兵连&#45;&gt;0011.马匹育种 -->
<g id="edge24" class="edge">
<title>宪兵连:e&#45;&gt;0011.马匹育种:w</title>
<path fill="none" stroke="black" d="M848,-389.5C876.38,-389.5 885.88,-389.5 909.98,-389.5"/>
<polygon fill="black" stroke="black" points="910,-393 920,-389.5 910,-386 910,-393"/>
</g>
<!-- 近卫兵团 -->
<g id="node18" class="node">
<title>近卫兵团</title>
<polygon fill="#228dff" stroke="black" points="690,-458 690,-527 848,-527 848,-458 690,-458"/>
<text text-anchor="middle" x="769" y="-511.8" font-family="SimSun" font-size="14.00">近卫兵团</text>
<polyline fill="none" stroke="black" points="690,-504 848,-504 "/>
<text text-anchor="middle" x="713" y="-488.8" font-family="SimSun" font-size="14.00">20秒</text>
<polyline fill="none" stroke="black" points="736,-481 736,-504 "/>
<text text-anchor="middle" x="792" y="-488.8" font-family="SimSun" font-size="14.00">[10, 20] 黄金</text>
<polyline fill="none" stroke="black" points="690,-481 848,-481 "/>
<text text-anchor="start" x="698" y="-465.8" font-family="SimSun" font-size="14.00">+&gt;【法兰西近卫兵】</text>
</g>
<!-- 0010.军事工程&#45;&gt;近卫兵团 -->
<g id="edge20" class="edge">
<title>0010.军事工程:e&#45;&gt;近卫兵团:w</title>
<path fill="none" stroke="black" d="M618,-492.5C646.38,-492.5 655.88,-492.5 679.98,-492.5"/>
<polygon fill="black" stroke="black" points="680,-496 690,-492.5 680,-489 680,-496"/>
</g>
<!-- 0013.火药 -->
<g id="node19" class="node">
<title>0013.火药</title>
<polygon fill="#228dff" stroke="black" points="920,-458 920,-527 1078,-527 1078,-458 920,-458"/>
<text text-anchor="middle" x="999" y="-511.8" font-family="SimSun" font-size="14.00">0013.火药</text>
<polyline fill="none" stroke="black" points="920,-504 1078,-504 "/>
<text text-anchor="middle" x="943" y="-488.8" font-family="SimSun" font-size="14.00">20秒</text>
<polyline fill="none" stroke="black" points="966,-481 966,-504 "/>
<text text-anchor="middle" x="1022" y="-488.8" font-family="SimSun" font-size="14.00">[10, 20] 黄金</text>
<polyline fill="none" stroke="black" points="920,-481 1078,-481 "/>
<text text-anchor="start" x="928" y="-465.8" font-family="SimSun" font-size="14.00">+&gt;【火枪手】</text>
</g>
<!-- 近卫兵团&#45;&gt;0013.火药 -->
<g id="edge21" class="edge">
<title>近卫兵团:e&#45;&gt;0013.火药:w</title>
<path fill="none" stroke="black" d="M848,-492.5C876.38,-492.5 885.88,-492.5 909.98,-492.5"/>
<polygon fill="black" stroke="black" points="910,-496 920,-492.5 910,-489 910,-496"/>
</g>
<!-- 刺刀 -->
<g id="node20" class="node">
<title>刺刀</title>
<polygon fill="#228dff" stroke="black" points="1150,-498.5 1150,-582.5 1308,-582.5 1308,-498.5 1150,-498.5"/>
<text text-anchor="middle" x="1229" y="-567.3" font-family="SimSun" font-size="14.00">刺刀</text>
<polyline fill="none" stroke="black" points="1150,-559.5 1308,-559.5 "/>
<text text-anchor="middle" x="1173" y="-544.3" font-family="SimSun" font-size="14.00">20秒</text>
<polyline fill="none" stroke="black" points="1196,-536.5 1196,-559.5 "/>
<text text-anchor="middle" x="1252" y="-544.3" font-family="SimSun" font-size="14.00">[10, 20] 黄金</text>
<polyline fill="none" stroke="black" points="1150,-536.5 1308,-536.5 "/>
<text text-anchor="start" x="1158" y="-521.3" font-family="SimSun" font-size="14.00">X&gt;【火枪手】</text>
<text text-anchor="start" x="1158" y="-506.3" font-family="SimSun" font-size="14.00">+&gt;【刺刀火枪手】</text>
</g>
<!-- 0013.火药&#45;&gt;刺刀 -->
<g id="edge22" class="edge">
<title>0013.火药:e&#45;&gt;刺刀:w</title>
<path fill="none" stroke="black" d="M1078,-492.5C1112.7,-492.5 1112.09,-531.58 1139.89,-539.22"/>
<polygon fill="black" stroke="black" points="1139.64,-542.71 1150,-540.5 1140.52,-535.77 1139.64,-542.71"/>
</g>
<!-- 0015.火炮 -->
<g id="node21" class="node">
<title>0015.火炮</title>
<polygon fill="#228dff" stroke="black" points="1150,-410 1150,-479 1308,-479 1308,-410 1150,-410"/>
<text text-anchor="middle" x="1229" y="-463.8" font-family="SimSun" font-size="14.00">0015.火炮</text>
<polyline fill="none" stroke="black" points="1150,-456 1308,-456 "/>
<text text-anchor="middle" x="1173" y="-440.8" font-family="SimSun" font-size="14.00">20秒</text>
<polyline fill="none" stroke="black" points="1196,-433 1196,-456 "/>
<text text-anchor="middle" x="1252" y="-440.8" font-family="SimSun" font-size="14.00">[10, 20] 黄金</text>
<polyline fill="none" stroke="black" points="1150,-433 1308,-433 "/>
<text text-anchor="start" x="1158" y="-417.8" font-family="SimSun" font-size="14.00">+&gt;【火炮】</text>
</g>
<!-- 0013.火药&#45;&gt;0015.火炮 -->
<g id="edge23" class="edge">
<title>0013.火药:e&#45;&gt;0015.火炮:w</title>
<path fill="none" stroke="black" d="M1078,-492.5C1112.7,-492.5 1112.09,-453.42 1139.89,-445.78"/>
<polygon fill="black" stroke="black" points="1140.52,-449.23 1150,-444.5 1139.64,-442.29 1140.52,-449.23"/>
</g>
<!-- 0014.军事技术 -->
<g id="node23" class="node">
<title>0014.军事技术</title>
<polygon fill="#228dff" stroke="black" points="1380,-454 1380,-553 1539,-553 1539,-454 1380,-454"/>
<text text-anchor="middle" x="1459.5" y="-537.8" font-family="SimSun" font-size="14.00">0014.军事技术</text>
<polyline fill="none" stroke="black" points="1380,-530 1539,-530 "/>
<text text-anchor="middle" x="1403" y="-514.8" font-family="SimSun" font-size="14.00">30秒</text>
<polyline fill="none" stroke="black" points="1426,-507 1426,-530 "/>
<text text-anchor="middle" x="1482.5" y="-514.8" font-family="SimSun" font-size="14.00">[10, 20] 黄金</text>
<polyline fill="none" stroke="black" points="1380,-507 1539,-507 "/>
<text text-anchor="start" x="1388" y="-491.8" font-family="SimSun" font-size="14.00">提高攻城器械生产速度</text>
<text text-anchor="start" x="1388" y="-476.8" font-family="SimSun" font-size="14.00">降低攻城器械价格</text>
<text text-anchor="start" x="1388" y="-461.8" font-family="SimSun" font-size="14.00">+&gt;【兵工厂】</text>
</g>
<!-- 0015.火炮&#45;&gt;0014.军事技术 -->
<g id="edge25" class="edge">
<title>0015.火炮:e&#45;&gt;0014.军事技术:w</title>
<path fill="none" stroke="black" d="M1308,-444.5C1345.65,-444.5 1340.14,-493.37 1370.04,-502.16"/>
<polygon fill="black" stroke="black" points="1369.62,-505.63 1380,-503.5 1370.56,-498.7 1369.62,-505.63"/>
</g>
<!-- 弹道学 -->
<g id="node24" class="node">
<title>弹道学</title>
<polygon fill="#228dff" stroke="black" points="1380.5,-336 1380.5,-435 1538.5,-435 1538.5,-336 1380.5,-336"/>
<text text-anchor="middle" x="1459.5" y="-419.8" font-family="SimSun" font-size="14.00">弹道学</text>
<polyline fill="none" stroke="black" points="1380.5,-412 1538.5,-412 "/>
<text text-anchor="middle" x="1403.5" y="-396.8" font-family="SimSun" font-size="14.00">30秒</text>
<polyline fill="none" stroke="black" points="1426.5,-389 1426.5,-412 "/>
<text text-anchor="middle" x="1482.5" y="-396.8" font-family="SimSun" font-size="14.00">[10, 20] 黄金</text>
<polyline fill="none" stroke="black" points="1380.5,-389 1538.5,-389 "/>
<text text-anchor="start" x="1388.5" y="-373.8" font-family="SimSun" font-size="14.00">提高火炮射程</text>
<text text-anchor="start" x="1388.5" y="-358.8" font-family="SimSun" font-size="14.00">提高火炮攻击力</text>
<text text-anchor="start" x="1388.5" y="-343.8" font-family="SimSun" font-size="14.00">提高火炮速度</text>
</g>
<!-- 0015.火炮&#45;&gt;弹道学 -->
<g id="edge26" class="edge">
<title>0015.火炮:e&#45;&gt;弹道学:w</title>
<path fill="none" stroke="black" d="M1308,-444.5C1345.65,-444.5 1340.14,-395.63 1370.04,-386.84"/>
<polygon fill="black" stroke="black" points="1370.56,-390.3 1380,-385.5 1369.62,-383.37 1370.56,-390.3"/>
</g>
<!-- 0000.手工业 -->
<g id="node25" class="node">
<title>0000.手工业</title>
<polygon fill="#65d84b" stroke="black" points="0,-587 0,-686 158,-686 158,-587 0,-587"/>
<text text-anchor="middle" x="79" y="-670.8" font-family="SimSun" font-size="14.00">0000.手工业</text>
<polyline fill="none" stroke="black" points="0,-663 158,-663 "/>
<text text-anchor="middle" x="23" y="-647.8" font-family="SimSun" font-size="14.00">30秒</text>
<polyline fill="none" stroke="black" points="46,-640 46,-663 "/>
<text text-anchor="middle" x="102" y="-647.8" font-family="SimSun" font-size="14.00">[10, 20] 黄金</text>
<polyline fill="none" stroke="black" points="0,-640 158,-640 "/>
<text text-anchor="start" x="8" y="-624.8" font-family="SimSun" font-size="14.00">提高攻击力</text>
<text text-anchor="start" x="8" y="-609.8" font-family="SimSun" font-size="14.00">提高防御力</text>
<text text-anchor="start" x="8" y="-594.8" font-family="SimSun" font-size="14.00">+&gt;【铁匠铺】</text>
</g>
<!-- 0001.铸造 -->
<g id="node26" class="node">
<title>0001.铸造</title>
<polygon fill="#65d84b" stroke="black" points="230,-646.5 230,-730.5 388,-730.5 388,-646.5 230,-646.5"/>
<text text-anchor="middle" x="309" y="-715.3" font-family="SimSun" font-size="14.00">0001.铸造</text>
<polyline fill="none" stroke="black" points="230,-707.5 388,-707.5 "/>
<text text-anchor="middle" x="253" y="-692.3" font-family="SimSun" font-size="14.00">30秒</text>
<polyline fill="none" stroke="black" points="276,-684.5 276,-707.5 "/>
<text text-anchor="middle" x="332" y="-692.3" font-family="SimSun" font-size="14.00">[10, 20] 黄金</text>
<polyline fill="none" stroke="black" points="230,-684.5 388,-684.5 "/>
<text text-anchor="start" x="238" y="-669.3" font-family="SimSun" font-size="14.00">提高攻击力</text>
<text text-anchor="start" x="238" y="-654.3" font-family="SimSun" font-size="14.00">提高攻击速度</text>
</g>
<!-- 0000.手工业&#45;&gt;0001.铸造 -->
<g id="edge27" class="edge">
<title>0000.手工业:e&#45;&gt;0001.铸造:w</title>
<path fill="none" stroke="black" d="M158,-636.5C193.77,-636.5 191.42,-679.21 220.05,-687.21"/>
<polygon fill="black" stroke="black" points="219.63,-690.69 230,-688.5 220.53,-683.75 219.63,-690.69"/>
</g>
<!-- 0003.锁子甲 -->
<g id="node28" class="node">
<title>0003.锁子甲</title>
<polygon fill="#65d84b" stroke="black" points="230,-543.5 230,-627.5 388,-627.5 388,-543.5 230,-543.5"/>
<text text-anchor="middle" x="309" y="-612.3" font-family="SimSun" font-size="14.00">0003.锁子甲</text>
<polyline fill="none" stroke="black" points="230,-604.5 388,-604.5 "/>
<text text-anchor="middle" x="253" y="-589.3" font-family="SimSun" font-size="14.00">30秒</text>
<polyline fill="none" stroke="black" points="276,-581.5 276,-604.5 "/>
<text text-anchor="middle" x="332" y="-589.3" font-family="SimSun" font-size="14.00">[10, 20] 黄金</text>
<polyline fill="none" stroke="black" points="230,-581.5 388,-581.5 "/>
<text text-anchor="start" x="238" y="-566.3" font-family="SimSun" font-size="14.00">提高防御力</text>
<text text-anchor="start" x="238" y="-551.3" font-family="SimSun" font-size="14.00">提高速度</text>
</g>
<!-- 0000.手工业&#45;&gt;0003.锁子甲 -->
<g id="edge29" class="edge">
<title>0000.手工业:e&#45;&gt;0003.锁子甲:w</title>
<path fill="none" stroke="black" d="M158,-636.5C193.38,-636.5 191.61,-594.97 219.73,-586.86"/>
<polygon fill="black" stroke="black" points="220.55,-590.29 230,-585.5 219.63,-583.35 220.55,-590.29"/>
</g>
<!-- 0002.冶金 -->
<g id="node27" class="node">
<title>0002.冶金</title>
<polygon fill="#65d84b" stroke="black" points="460,-654 460,-723 618,-723 618,-654 460,-654"/>
<text text-anchor="middle" x="539" y="-707.8" font-family="SimSun" font-size="14.00">0002.冶金</text>
<polyline fill="none" stroke="black" points="460,-700 618,-700 "/>
<text text-anchor="middle" x="483" y="-684.8" font-family="SimSun" font-size="14.00">30秒</text>
<polyline fill="none" stroke="black" points="506,-677 506,-700 "/>
<text text-anchor="middle" x="562" y="-684.8" font-family="SimSun" font-size="14.00">[10, 20] 黄金</text>
<polyline fill="none" stroke="black" points="460,-677 618,-677 "/>
<text text-anchor="start" x="468" y="-661.8" font-family="SimSun" font-size="14.00">提高攻击力</text>
</g>
<!-- 0001.铸造&#45;&gt;0002.冶金 -->
<g id="edge28" class="edge">
<title>0001.铸造:e&#45;&gt;0002.冶金:w</title>
<path fill="none" stroke="black" d="M388,-688.5C416.38,-688.5 425.88,-688.5 449.98,-688.5"/>
<polygon fill="black" stroke="black" points="450,-692 460,-688.5 450,-685 450,-692"/>
</g>
<!-- 0004.板甲 -->
<g id="node29" class="node">
<title>0004.板甲</title>
<polygon fill="#65d84b" stroke="black" points="460,-551 460,-620 618,-620 618,-551 460,-551"/>
<text text-anchor="middle" x="539" y="-604.8" font-family="SimSun" font-size="14.00">0004.板甲</text>
<polyline fill="none" stroke="black" points="460,-597 618,-597 "/>
<text text-anchor="middle" x="483" y="-581.8" font-family="SimSun" font-size="14.00">30秒</text>
<polyline fill="none" stroke="black" points="506,-574 506,-597 "/>
<text text-anchor="middle" x="562" y="-581.8" font-family="SimSun" font-size="14.00">[10, 20] 黄金</text>
<polyline fill="none" stroke="black" points="460,-574 618,-574 "/>
<text text-anchor="start" x="468" y="-558.8" font-family="SimSun" font-size="14.00">提高防御力</text>
</g>
<!-- 0003.锁子甲&#45;&gt;0004.板甲 -->
<g id="edge30" class="edge">
<title>0003.锁子甲:e&#45;&gt;0004.板甲:w</title>
<path fill="none" stroke="black" d="M388,-585.5C416.38,-585.5 425.88,-585.5 449.98,-585.5"/>
<polygon fill="black" stroke="black" points="450,-589 460,-585.5 450,-582 450,-589"/>
</g>
</g>
</svg>
