<?xml version="1.0" encoding="UTF-8" standalone="no"?>
<!DOCTYPE svg PUBLIC "-//W3C//DTD SVG 1.1//EN"
 "http://www.w3.org/Graphics/SVG/1.1/DTD/svg11.dtd">
<!-- Generated by graphviz version 2.49.3 (20211023.0002)
 -->
<!-- Title: G Pages: 1 -->
<svg width="1375pt" height="751pt"
 viewBox="0.00 0.00 1375.00 750.50" xmlns="http://www.w3.org/2000/svg" xmlns:xlink="http://www.w3.org/1999/xlink">
<g id="graph0" class="graph" transform="scale(1 1) rotate(0) translate(4 746.5)">
<title>G</title>
<polygon fill="white" stroke="transparent" points="-4,4 -4,-746.5 1371,-746.5 1371,4 -4,4"/>
<!-- 0016.手推车 -->
<g id="node1" class="node">
<title>0016.手推车</title>
<polygon fill="#ffaa00" stroke="black" points="0,-134 0,-218 158,-218 158,-134 0,-134"/>
<text text-anchor="middle" x="79" y="-202.8" font-family="SimSun" font-size="14.00">0016.手推车</text>
<polyline fill="none" stroke="black" points="0,-195 158,-195 "/>
<text text-anchor="middle" x="23" y="-179.8" font-family="SimSun" font-size="14.00">20秒</text>
<polyline fill="none" stroke="black" points="46,-172 46,-195 "/>
<text text-anchor="middle" x="102" y="-179.8" font-family="SimSun" font-size="14.00">[10, 20] 黄金</text>
<polyline fill="none" stroke="black" points="0,-172 158,-172 "/>
<text text-anchor="start" x="8" y="-156.8" font-family="SimSun" font-size="14.00">提高工人速度</text>
<text text-anchor="start" x="8" y="-141.8" font-family="SimSun" font-size="14.00">减少卸货时间</text>
</g>
<!-- 0017.水利 -->
<g id="node2" class="node">
<title>0017.水利</title>
<polygon fill="#ffaa00" stroke="black" points="230,-249 230,-333 388,-333 388,-249 230,-249"/>
<text text-anchor="middle" x="309" y="-317.8" font-family="SimSun" font-size="14.00">0017.水利</text>
<polyline fill="none" stroke="black" points="230,-310 388,-310 "/>
<text text-anchor="middle" x="253" y="-294.8" font-family="SimSun" font-size="14.00">20秒</text>
<polyline fill="none" stroke="black" points="276,-287 276,-310 "/>
<text text-anchor="middle" x="332" y="-294.8" font-family="SimSun" font-size="14.00">[10, 20] 黄金</text>
<polyline fill="none" stroke="black" points="230,-287 388,-287 "/>
<text text-anchor="start" x="238" y="-271.8" font-family="SimSun" font-size="14.00">提高食物采集量</text>
<text text-anchor="start" x="238" y="-256.8" font-family="SimSun" font-size="14.00">降低食物采集时间</text>
</g>
<!-- 0016.手推车&#45;&gt;0017.水利 -->
<g id="edge1" class="edge">
<title>0016.手推车:e&#45;&gt;0017.水利:w</title>
<path fill="none" stroke="black" d="M158,-176C214.53,-176 175.35,-277.07 219.92,-289.71"/>
<polygon fill="black" stroke="black" points="219.64,-293.2 230,-291 220.53,-286.26 219.64,-293.2"/>
</g>
<!-- 0019.采矿 -->
<g id="node3" class="node">
<title>0019.采矿</title>
<polygon fill="#ffaa00" stroke="black" points="230,-20 230,-104 388,-104 388,-20 230,-20"/>
<text text-anchor="middle" x="309" y="-88.8" font-family="SimSun" font-size="14.00">0019.采矿</text>
<polyline fill="none" stroke="black" points="230,-81 388,-81 "/>
<text text-anchor="middle" x="253" y="-65.8" font-family="SimSun" font-size="14.00">10秒</text>
<polyline fill="none" stroke="black" points="276,-58 276,-81 "/>
<text text-anchor="middle" x="332" y="-65.8" font-family="SimSun" font-size="14.00">[10, 20] 黄金</text>
<polyline fill="none" stroke="black" points="230,-58 388,-58 "/>
<text text-anchor="start" x="238" y="-42.8" font-family="SimSun" font-size="14.00">提高矿物采集量</text>
<text text-anchor="start" x="238" y="-27.8" font-family="SimSun" font-size="14.00">降低矿物采集时间</text>
</g>
<!-- 0016.手推车&#45;&gt;0019.采矿 -->
<g id="edge2" class="edge">
<title>0016.手推车:e&#45;&gt;0019.采矿:w</title>
<path fill="none" stroke="black" d="M158,-176C214.18,-176 175.63,-75.8 219.97,-63.28"/>
<polygon fill="black" stroke="black" points="220.52,-66.74 230,-62 219.64,-59.79 220.52,-66.74"/>
</g>
<!-- 0018.行政机构 -->
<g id="node4" class="node">
<title>0018.行政机构</title>
<polygon fill="#ffaa00" stroke="black" points="230,-126.5 230,-225.5 388,-225.5 388,-126.5 230,-126.5"/>
<text text-anchor="middle" x="309" y="-210.3" font-family="SimSun" font-size="14.00">0018.行政机构</text>
<polyline fill="none" stroke="black" points="230,-202.5 388,-202.5 "/>
<text text-anchor="middle" x="253" y="-187.3" font-family="SimSun" font-size="14.00">10秒</text>
<polyline fill="none" stroke="black" points="276,-179.5 276,-202.5 "/>
<text text-anchor="middle" x="332" y="-187.3" font-family="SimSun" font-size="14.00">[10, 20] 黄金</text>
<polyline fill="none" stroke="black" points="230,-179.5 388,-179.5 "/>
<text text-anchor="start" x="238" y="-164.3" font-family="SimSun" font-size="14.00">提高工人人口上限</text>
<text text-anchor="start" x="238" y="-149.3" font-family="SimSun" font-size="14.00">提高工人生产速度</text>
<text text-anchor="start" x="238" y="-134.3" font-family="SimSun" font-size="14.00">+&gt;【仓库】</text>
</g>
<!-- 0016.手推车&#45;&gt;0018.行政机构 -->
<g id="edge3" class="edge">
<title>0016.手推车:e&#45;&gt;0018.行政机构:w</title>
<path fill="none" stroke="black" d="M158,-176C186.38,-176 195.88,-176 219.98,-176"/>
<polygon fill="black" stroke="black" points="220,-179.5 230,-176 220,-172.5 220,-179.5"/>
</g>
<!-- 0020.农学 -->
<g id="node5" class="node">
<title>0020.农学</title>
<polygon fill="#ffaa00" stroke="black" points="460,-252 460,-336 618,-336 618,-252 460,-252"/>
<text text-anchor="middle" x="539" y="-320.8" font-family="SimSun" font-size="14.00">0020.农学</text>
<polyline fill="none" stroke="black" points="460,-313 618,-313 "/>
<text text-anchor="middle" x="483" y="-297.8" font-family="SimSun" font-size="14.00">10秒</text>
<polyline fill="none" stroke="black" points="506,-290 506,-313 "/>
<text text-anchor="middle" x="562" y="-297.8" font-family="SimSun" font-size="14.00">[10, 20] 黄金</text>
<polyline fill="none" stroke="black" points="460,-290 618,-290 "/>
<text text-anchor="start" x="468" y="-274.8" font-family="SimSun" font-size="14.00">提高食物采集量</text>
<text text-anchor="start" x="468" y="-259.8" font-family="SimSun" font-size="14.00">+&gt;【农庄】</text>
</g>
<!-- 0017.水利&#45;&gt;0020.农学 -->
<g id="edge4" class="edge">
<title>0017.水利:e&#45;&gt;0020.农学:w</title>
<path fill="none" stroke="black" d="M388,-291C416.4,-291 425.86,-293.36 449.97,-293.89"/>
<polygon fill="black" stroke="black" points="449.96,-297.39 460,-294 450.04,-290.39 449.96,-297.39"/>
</g>
<!-- 0022.矿井勘探 -->
<g id="node8" class="node">
<title>0022.矿井勘探</title>
<polygon fill="#ffaa00" stroke="black" points="460,-16 460,-100 618,-100 618,-16 460,-16"/>
<text text-anchor="middle" x="539" y="-84.8" font-family="SimSun" font-size="14.00">0022.矿井勘探</text>
<polyline fill="none" stroke="black" points="460,-77 618,-77 "/>
<text text-anchor="middle" x="483" y="-61.8" font-family="SimSun" font-size="14.00">10秒</text>
<polyline fill="none" stroke="black" points="506,-54 506,-77 "/>
<text text-anchor="middle" x="562" y="-61.8" font-family="SimSun" font-size="14.00">[10, 20] 黄金</text>
<polyline fill="none" stroke="black" points="460,-54 618,-54 "/>
<text text-anchor="start" x="468" y="-38.8" font-family="SimSun" font-size="14.00">提高矿物采集量</text>
<text text-anchor="start" x="468" y="-23.8" font-family="SimSun" font-size="14.00">+&gt;【矿场】</text>
</g>
<!-- 0019.采矿&#45;&gt;0022.矿井勘探 -->
<g id="edge8" class="edge">
<title>0019.采矿:e&#45;&gt;0022.矿井勘探:w</title>
<path fill="none" stroke="black" d="M388,-62C416.42,-62 425.85,-58.85 449.97,-58.14"/>
<polygon fill="black" stroke="black" points="450.05,-61.64 460,-58 449.95,-54.64 450.05,-61.64"/>
</g>
<!-- 0018.行政机构&#45;&gt;0020.农学 -->
<g id="edge5" class="edge">
<title>0018.行政机构:e&#45;&gt;0020.农学:w</title>
<path fill="none" stroke="black" d="M388,-176C445.72,-176 404.31,-280.14 450.03,-292.75"/>
<polygon fill="black" stroke="black" points="449.64,-296.23 460,-294 450.51,-289.29 449.64,-296.23"/>
</g>
<!-- 0018.行政机构&#45;&gt;0022.矿井勘探 -->
<g id="edge9" class="edge">
<title>0018.行政机构:e&#45;&gt;0022.矿井勘探:w</title>
<path fill="none" stroke="black" d="M388,-176C445.72,-176 404.31,-71.86 450.03,-59.25"/>
<polygon fill="black" stroke="black" points="450.51,-62.71 460,-58 449.64,-55.77 450.51,-62.71"/>
</g>
<!-- 0021.教育 -->
<g id="node11" class="node">
<title>0021.教育</title>
<polygon fill="#ffaa00" stroke="black" points="460,-119 460,-233 618,-233 618,-119 460,-119"/>
<text text-anchor="middle" x="539" y="-217.8" font-family="SimSun" font-size="14.00">0021.教育</text>
<polyline fill="none" stroke="black" points="460,-210 618,-210 "/>
<text text-anchor="middle" x="483" y="-194.8" font-family="SimSun" font-size="14.00">10秒</text>
<polyline fill="none" stroke="black" points="506,-187 506,-210 "/>
<text text-anchor="middle" x="562" y="-194.8" font-family="SimSun" font-size="14.00">[10, 20] 黄金</text>
<polyline fill="none" stroke="black" points="460,-187 618,-187 "/>
<text text-anchor="start" x="468" y="-171.8" font-family="SimSun" font-size="14.00">提高科研速度</text>
<text text-anchor="start" x="468" y="-156.8" font-family="SimSun" font-size="14.00">提高单位生产力</text>
<text text-anchor="start" x="468" y="-141.8" font-family="SimSun" font-size="14.00">提高工人人口上限</text>
<text text-anchor="start" x="468" y="-126.8" font-family="SimSun" font-size="14.00">提高军事人口上限</text>
</g>
<!-- 0018.行政机构&#45;&gt;0021.教育 -->
<g id="edge12" class="edge">
<title>0018.行政机构:e&#45;&gt;0021.教育:w</title>
<path fill="none" stroke="black" d="M388,-176C416.38,-176 425.88,-176 449.98,-176"/>
<polygon fill="black" stroke="black" points="450,-179.5 460,-176 450,-172.5 450,-179.5"/>
</g>
<!-- 0023.历法 -->
<g id="node6" class="node">
<title>0023.历法</title>
<polygon fill="#ffaa00" stroke="black" points="690,-259.5 690,-328.5 848,-328.5 848,-259.5 690,-259.5"/>
<text text-anchor="middle" x="769" y="-313.3" font-family="SimSun" font-size="14.00">0023.历法</text>
<polyline fill="none" stroke="black" points="690,-305.5 848,-305.5 "/>
<text text-anchor="middle" x="713" y="-290.3" font-family="SimSun" font-size="14.00">10秒</text>
<polyline fill="none" stroke="black" points="736,-282.5 736,-305.5 "/>
<text text-anchor="middle" x="792" y="-290.3" font-family="SimSun" font-size="14.00">[10, 20] 黄金</text>
<polyline fill="none" stroke="black" points="690,-282.5 848,-282.5 "/>
<text text-anchor="start" x="698" y="-267.3" font-family="SimSun" font-size="14.00">提高食物采集量</text>
</g>
<!-- 0020.农学&#45;&gt;0023.历法 -->
<g id="edge6" class="edge">
<title>0020.农学:e&#45;&gt;0023.历法:w</title>
<path fill="none" stroke="black" d="M618,-294C646.38,-294 655.88,-294 679.98,-294"/>
<polygon fill="black" stroke="black" points="680,-297.5 690,-294 680,-290.5 680,-297.5"/>
</g>
<!-- 0034.农政全书 -->
<g id="node7" class="node">
<title>0034.农政全书</title>
<polygon fill="#ffaa00" stroke="black" points="920,-252 920,-336 1136,-336 1136,-252 920,-252"/>
<text text-anchor="middle" x="1028" y="-320.8" font-family="SimSun" font-size="14.00">0034.农政全书</text>
<polyline fill="none" stroke="black" points="920,-313 1136,-313 "/>
<text text-anchor="middle" x="957.5" y="-297.8" font-family="SimSun" font-size="14.00">10秒</text>
<polyline fill="none" stroke="black" points="995,-290 995,-313 "/>
<text text-anchor="middle" x="1065.5" y="-297.8" font-family="SimSun" font-size="14.00">[10, 20] 黄金</text>
<polyline fill="none" stroke="black" points="920,-290 1136,-290 "/>
<text text-anchor="start" x="928" y="-274.8" font-family="SimSun" font-size="14.00">提高食物采集量</text>
<text text-anchor="start" x="928" y="-259.8" font-family="SimSun" font-size="14.00">采集食物的工人全额提供生产力</text>
</g>
<!-- 0023.历法&#45;&gt;0034.农政全书 -->
<g id="edge7" class="edge">
<title>0023.历法:e&#45;&gt;0034.农政全书:w</title>
<path fill="none" stroke="black" d="M848,-294C876.38,-294 885.88,-294 909.98,-294"/>
<polygon fill="black" stroke="black" points="910,-297.5 920,-294 910,-290.5 910,-297.5"/>
</g>
<!-- 0037.资本主义萌芽 -->
<g id="node13" class="node">
<title>0037.资本主义萌芽</title>
<polygon fill="#ffaa00" stroke="black" points="1208.5,-111.5 1208.5,-240.5 1366.5,-240.5 1366.5,-111.5 1208.5,-111.5"/>
<text text-anchor="middle" x="1287.5" y="-225.3" font-family="SimSun" font-size="14.00">0037.资本主义萌芽</text>
<polyline fill="none" stroke="black" points="1208.5,-217.5 1366.5,-217.5 "/>
<text text-anchor="middle" x="1231.5" y="-202.3" font-family="SimSun" font-size="14.00">10秒</text>
<polyline fill="none" stroke="black" points="1254.5,-194.5 1254.5,-217.5 "/>
<text text-anchor="middle" x="1310.5" y="-202.3" font-family="SimSun" font-size="14.00">[10, 20] 黄金</text>
<polyline fill="none" stroke="black" points="1208.5,-194.5 1366.5,-194.5 "/>
<text text-anchor="start" x="1216.5" y="-179.3" font-family="SimSun" font-size="14.00">提高建筑速度</text>
<text text-anchor="start" x="1216.5" y="-164.3" font-family="SimSun" font-size="14.00">提高单位生产力</text>
<text text-anchor="start" x="1216.5" y="-149.3" font-family="SimSun" font-size="14.00">提高工人人口上限</text>
<text text-anchor="start" x="1216.5" y="-134.3" font-family="SimSun" font-size="14.00">提高军事人口上限</text>
<text text-anchor="start" x="1216.5" y="-119.3" font-family="SimSun" font-size="14.00">提高单位生产速度</text>
</g>
<!-- 0034.农政全书&#45;&gt;0037.资本主义萌芽 -->
<g id="edge15" class="edge">
<title>0034.农政全书:e&#45;&gt;0037.资本主义萌芽:w</title>
<path fill="none" stroke="black" d="M1136,-294C1193.72,-294 1152.31,-189.86 1198.03,-177.25"/>
<polygon fill="black" stroke="black" points="1198.51,-180.71 1208,-176 1197.64,-173.77 1198.51,-180.71"/>
</g>
<!-- 0025.化学 -->
<g id="node9" class="node">
<title>0025.化学</title>
<polygon fill="#ffaa00" stroke="black" points="690,-19.5 690,-88.5 848,-88.5 848,-19.5 690,-19.5"/>
<text text-anchor="middle" x="769" y="-73.3" font-family="SimSun" font-size="14.00">0025.化学</text>
<polyline fill="none" stroke="black" points="690,-65.5 848,-65.5 "/>
<text text-anchor="middle" x="713" y="-50.3" font-family="SimSun" font-size="14.00">10秒</text>
<polyline fill="none" stroke="black" points="736,-42.5 736,-65.5 "/>
<text text-anchor="middle" x="792" y="-50.3" font-family="SimSun" font-size="14.00">[10, 20] 黄金</text>
<polyline fill="none" stroke="black" points="690,-42.5 848,-42.5 "/>
<text text-anchor="start" x="698" y="-27.3" font-family="SimSun" font-size="14.00">提高矿物采集量</text>
</g>
<!-- 0022.矿井勘探&#45;&gt;0025.化学 -->
<g id="edge10" class="edge">
<title>0022.矿井勘探:e&#45;&gt;0025.化学:w</title>
<path fill="none" stroke="black" d="M618,-58C646.42,-58 655.85,-54.85 679.97,-54.14"/>
<polygon fill="black" stroke="black" points="680.05,-57.64 690,-54 679.95,-50.64 680.05,-57.64"/>
</g>
<!-- 0036.天工开物 -->
<g id="node10" class="node">
<title>0036.天工开物</title>
<polygon fill="#ffaa00" stroke="black" points="949,-0.5 949,-99.5 1107,-99.5 1107,-0.5 949,-0.5"/>
<text text-anchor="middle" x="1028" y="-84.3" font-family="SimSun" font-size="14.00">0036.天工开物</text>
<polyline fill="none" stroke="black" points="949,-76.5 1107,-76.5 "/>
<text text-anchor="middle" x="972" y="-61.3" font-family="SimSun" font-size="14.00">10秒</text>
<polyline fill="none" stroke="black" points="995,-53.5 995,-76.5 "/>
<text text-anchor="middle" x="1051" y="-61.3" font-family="SimSun" font-size="14.00">[10, 20] 黄金</text>
<polyline fill="none" stroke="black" points="949,-53.5 1107,-53.5 "/>
<text text-anchor="start" x="957" y="-38.3" font-family="SimSun" font-size="14.00">提高工人移动速度</text>
<text text-anchor="start" x="957" y="-23.3" font-family="SimSun" font-size="14.00">提高工人工作速度</text>
<text text-anchor="start" x="957" y="-8.3" font-family="SimSun" font-size="14.00">提高矿物采集量</text>
</g>
<!-- 0025.化学&#45;&gt;0036.天工开物 -->
<g id="edge11" class="edge">
<title>0025.化学:e&#45;&gt;0036.天工开物:w</title>
<path fill="none" stroke="black" d="M848,-54C888.83,-54 901.48,-50.63 937.69,-50.08"/>
<polygon fill="black" stroke="black" points="938.03,-53.57 948,-50 937.97,-46.57 938.03,-53.57"/>
</g>
<!-- 0036.天工开物&#45;&gt;0037.资本主义萌芽 -->
<g id="edge14" class="edge">
<title>0036.天工开物:e&#45;&gt;0037.资本主义萌芽:w</title>
<path fill="none" stroke="black" d="M1108,-50C1175.86,-50 1140.58,-163.53 1197.96,-175.06"/>
<polygon fill="black" stroke="black" points="1197.72,-178.55 1208,-176 1198.37,-171.58 1197.72,-178.55"/>
</g>
<!-- 0024.经济 -->
<g id="node12" class="node">
<title>0024.经济</title>
<polygon fill="#ffaa00" stroke="black" points="949,-119 949,-233 1107,-233 1107,-119 949,-119"/>
<text text-anchor="middle" x="1028" y="-217.8" font-family="SimSun" font-size="14.00">0024.经济</text>
<polyline fill="none" stroke="black" points="949,-210 1107,-210 "/>
<text text-anchor="middle" x="972" y="-194.8" font-family="SimSun" font-size="14.00">10秒</text>
<polyline fill="none" stroke="black" points="995,-187 995,-210 "/>
<text text-anchor="middle" x="1051" y="-194.8" font-family="SimSun" font-size="14.00">[10, 20] 黄金</text>
<polyline fill="none" stroke="black" points="949,-187 1107,-187 "/>
<text text-anchor="start" x="957" y="-171.8" font-family="SimSun" font-size="14.00">提高工人人口上限</text>
<text text-anchor="start" x="957" y="-156.8" font-family="SimSun" font-size="14.00">提高军事人口上限</text>
<text text-anchor="start" x="957" y="-141.8" font-family="SimSun" font-size="14.00">提高单位生产力</text>
<text text-anchor="start" x="957" y="-126.8" font-family="SimSun" font-size="14.00">+&gt;【市场】</text>
</g>
<!-- 0021.教育&#45;&gt;0024.经济 -->
<g id="edge13" class="edge">
<title>0021.教育:e&#45;&gt;0024.经济:w</title>
<path fill="none" stroke="black" d="M618,-176C761.23,-176 799.55,-176 937.87,-176"/>
<polygon fill="black" stroke="black" points="938,-179.5 948,-176 938,-172.5 938,-179.5"/>
</g>
<!-- 0024.经济&#45;&gt;0037.资本主义萌芽 -->
<g id="edge16" class="edge">
<title>0024.经济:e&#45;&gt;0037.资本主义萌芽:w</title>
<path fill="none" stroke="black" d="M1108,-176C1148.8,-176 1161.51,-176 1197.7,-176"/>
<polygon fill="black" stroke="black" points="1198,-179.5 1208,-176 1198,-172.5 1198,-179.5"/>
</g>
<!-- 0035.军事训练 -->
<g id="node14" class="node">
<title>0035.军事训练</title>
<polygon fill="#228dff" stroke="black" points="0,-414.5 0,-513.5 158,-513.5 158,-414.5 0,-414.5"/>
<text text-anchor="middle" x="79" y="-498.3" font-family="SimSun" font-size="14.00">0035.军事训练</text>
<polyline fill="none" stroke="black" points="0,-490.5 158,-490.5 "/>
<text text-anchor="middle" x="23" y="-475.3" font-family="SimSun" font-size="14.00">20秒</text>
<polyline fill="none" stroke="black" points="46,-467.5 46,-490.5 "/>
<text text-anchor="middle" x="102" y="-475.3" font-family="SimSun" font-size="14.00">[10, 20] 黄金</text>
<polyline fill="none" stroke="black" points="0,-467.5 158,-467.5 "/>
<text text-anchor="start" x="8" y="-452.3" font-family="SimSun" font-size="14.00">X&gt;【民兵】</text>
<text text-anchor="start" x="8" y="-437.3" font-family="SimSun" font-size="14.00">+&gt;【刀剑手】</text>
<text text-anchor="start" x="8" y="-422.3" font-family="SimSun" font-size="14.00">+&gt;【长矛兵】</text>
</g>
<!-- 0006.战术 -->
<g id="node15" class="node">
<title>0006.战术</title>
<polygon fill="#228dff" stroke="black" points="230,-481.5 230,-550.5 388,-550.5 388,-481.5 230,-481.5"/>
<text text-anchor="middle" x="309" y="-535.3" font-family="SimSun" font-size="14.00">0006.战术</text>
<polyline fill="none" stroke="black" points="230,-527.5 388,-527.5 "/>
<text text-anchor="middle" x="253" y="-512.3" font-family="SimSun" font-size="14.00">20秒</text>
<polyline fill="none" stroke="black" points="276,-504.5 276,-527.5 "/>
<text text-anchor="middle" x="332" y="-512.3" font-family="SimSun" font-size="14.00">[10, 20] 黄金</text>
<polyline fill="none" stroke="black" points="230,-504.5 388,-504.5 "/>
<text text-anchor="start" x="238" y="-489.3" font-family="SimSun" font-size="14.00">+&gt;【弓箭手】</text>
</g>
<!-- 0035.军事训练&#45;&gt;0006.战术 -->
<g id="edge17" class="edge">
<title>0035.军事训练:e&#45;&gt;0006.战术:w</title>
<path fill="none" stroke="black" d="M158,-464C193.77,-464 191.42,-506.71 220.05,-514.71"/>
<polygon fill="black" stroke="black" points="219.63,-518.19 230,-516 220.53,-511.25 219.63,-518.19"/>
</g>
<!-- 0007.常备军 -->
<g id="node23" class="node">
<title>0007.常备军</title>
<polygon fill="#228dff" stroke="black" points="230,-363.5 230,-462.5 388,-462.5 388,-363.5 230,-363.5"/>
<text text-anchor="middle" x="309" y="-447.3" font-family="SimSun" font-size="14.00">0007.常备军</text>
<polyline fill="none" stroke="black" points="230,-439.5 388,-439.5 "/>
<text text-anchor="middle" x="253" y="-424.3" font-family="SimSun" font-size="14.00">30秒</text>
<polyline fill="none" stroke="black" points="276,-416.5 276,-439.5 "/>
<text text-anchor="middle" x="332" y="-424.3" font-family="SimSun" font-size="14.00">[10, 20] 黄金</text>
<polyline fill="none" stroke="black" points="230,-416.5 388,-416.5 "/>
<text text-anchor="start" x="238" y="-401.3" font-family="SimSun" font-size="14.00">提高步兵攻击力</text>
<text text-anchor="start" x="238" y="-386.3" font-family="SimSun" font-size="14.00">提高步兵防御力</text>
<text text-anchor="start" x="238" y="-371.3" font-family="SimSun" font-size="14.00">+&gt;【兵营】</text>
</g>
<!-- 0035.军事训练&#45;&gt;0007.常备军 -->
<g id="edge25" class="edge">
<title>0035.军事训练:e&#45;&gt;0007.常备军:w</title>
<path fill="none" stroke="black" d="M158,-464C193.38,-464 191.61,-422.47 219.73,-414.36"/>
<polygon fill="black" stroke="black" points="220.55,-417.79 230,-413 219.63,-410.85 220.55,-417.79"/>
</g>
<!-- 0008.马镫 -->
<g id="node16" class="node">
<title>0008.马镫</title>
<polygon fill="#228dff" stroke="black" points="460,-580.5 460,-649.5 618,-649.5 618,-580.5 460,-580.5"/>
<text text-anchor="middle" x="539" y="-634.3" font-family="SimSun" font-size="14.00">0008.马镫</text>
<polyline fill="none" stroke="black" points="460,-626.5 618,-626.5 "/>
<text text-anchor="middle" x="483" y="-611.3" font-family="SimSun" font-size="14.00">20秒</text>
<polyline fill="none" stroke="black" points="506,-603.5 506,-626.5 "/>
<text text-anchor="middle" x="562" y="-611.3" font-family="SimSun" font-size="14.00">[10, 20] 黄金</text>
<polyline fill="none" stroke="black" points="460,-603.5 618,-603.5 "/>
<text text-anchor="start" x="468" y="-588.3" font-family="SimSun" font-size="14.00">+&gt;【骑兵】</text>
</g>
<!-- 0006.战术&#45;&gt;0008.马镫 -->
<g id="edge18" class="edge">
<title>0006.战术:e&#45;&gt;0008.马镫:w</title>
<path fill="none" stroke="black" d="M388,-516C438.69,-516 410.2,-601.93 450.06,-613.68"/>
<polygon fill="black" stroke="black" points="449.63,-617.15 460,-615 450.55,-610.21 449.63,-617.15"/>
</g>
<!-- 0029.火药 -->
<g id="node19" class="node">
<title>0029.火药</title>
<polygon fill="#228dff" stroke="black" points="460,-474 460,-558 618,-558 618,-474 460,-474"/>
<text text-anchor="middle" x="539" y="-542.8" font-family="SimSun" font-size="14.00">0029.火药</text>
<polyline fill="none" stroke="black" points="460,-535 618,-535 "/>
<text text-anchor="middle" x="483" y="-519.8" font-family="SimSun" font-size="14.00">20秒</text>
<polyline fill="none" stroke="black" points="506,-512 506,-535 "/>
<text text-anchor="middle" x="562" y="-519.8" font-family="SimSun" font-size="14.00">[10, 20] 黄金</text>
<polyline fill="none" stroke="black" points="460,-512 618,-512 "/>
<text text-anchor="start" x="468" y="-496.8" font-family="SimSun" font-size="14.00">X&gt;【长矛兵】</text>
<text text-anchor="start" x="468" y="-481.8" font-family="SimSun" font-size="14.00">+&gt;【梨花枪兵】</text>
</g>
<!-- 0006.战术&#45;&gt;0029.火药 -->
<g id="edge21" class="edge">
<title>0006.战术:e&#45;&gt;0029.火药:w</title>
<path fill="none" stroke="black" d="M388,-516C416.38,-516 425.88,-516 449.98,-516"/>
<polygon fill="black" stroke="black" points="450,-519.5 460,-516 450,-512.5 450,-519.5"/>
</g>
<!-- 0033.诸葛连弩 -->
<g id="node24" class="node">
<title>0033.诸葛连弩</title>
<polygon fill="#228dff" stroke="black" points="460,-367 460,-451 618,-451 618,-367 460,-367"/>
<text text-anchor="middle" x="539" y="-435.8" font-family="SimSun" font-size="14.00">0033.诸葛连弩</text>
<polyline fill="none" stroke="black" points="460,-428 618,-428 "/>
<text text-anchor="middle" x="483" y="-412.8" font-family="SimSun" font-size="14.00">30秒</text>
<polyline fill="none" stroke="black" points="506,-405 506,-428 "/>
<text text-anchor="middle" x="562" y="-412.8" font-family="SimSun" font-size="14.00">[10, 20] 黄金</text>
<polyline fill="none" stroke="black" points="460,-405 618,-405 "/>
<text text-anchor="start" x="468" y="-389.8" font-family="SimSun" font-size="14.00">X&gt;【弓箭手】</text>
<text text-anchor="start" x="468" y="-374.8" font-family="SimSun" font-size="14.00">+&gt;【诸葛连弩】</text>
</g>
<!-- 0006.战术&#45;&gt;0033.诸葛连弩 -->
<g id="edge26" class="edge">
<title>0006.战术:e&#45;&gt;0033.诸葛连弩:w</title>
<path fill="none" stroke="black" d="M388,-516C441.51,-516 407.9,-422.74 449.84,-410.35"/>
<polygon fill="black" stroke="black" points="450.55,-413.79 460,-409 449.63,-406.85 450.55,-413.79"/>
</g>
<!-- 0010.军事工程 -->
<g id="node17" class="node">
<title>0010.军事工程</title>
<polygon fill="#228dff" stroke="black" points="690,-582.5 690,-651.5 848,-651.5 848,-582.5 690,-582.5"/>
<text text-anchor="middle" x="769" y="-636.3" font-family="SimSun" font-size="14.00">0010.军事工程</text>
<polyline fill="none" stroke="black" points="690,-628.5 848,-628.5 "/>
<text text-anchor="middle" x="713" y="-613.3" font-family="SimSun" font-size="14.00">30秒</text>
<polyline fill="none" stroke="black" points="736,-605.5 736,-628.5 "/>
<text text-anchor="middle" x="792" y="-613.3" font-family="SimSun" font-size="14.00">[10, 20] 黄金</text>
<polyline fill="none" stroke="black" points="690,-605.5 848,-605.5 "/>
<text text-anchor="start" x="698" y="-590.3" font-family="SimSun" font-size="14.00">+&gt;【城墙】</text>
</g>
<!-- 0008.马镫&#45;&gt;0010.军事工程 -->
<g id="edge19" class="edge">
<title>0008.马镫:e&#45;&gt;0010.军事工程:w</title>
<path fill="none" stroke="black" d="M618,-615C646.39,-615 655.87,-616.57 679.98,-616.93"/>
<polygon fill="black" stroke="black" points="679.98,-620.43 690,-617 680.03,-613.43 679.98,-620.43"/>
</g>
<!-- 0012.攻城器械 -->
<g id="node18" class="node">
<title>0012.攻城器械</title>
<polygon fill="#228dff" stroke="black" points="949,-583.5 949,-652.5 1107,-652.5 1107,-583.5 949,-583.5"/>
<text text-anchor="middle" x="1028" y="-637.3" font-family="SimSun" font-size="14.00">0012.攻城器械</text>
<polyline fill="none" stroke="black" points="949,-629.5 1107,-629.5 "/>
<text text-anchor="middle" x="972" y="-614.3" font-family="SimSun" font-size="14.00">30秒</text>
<polyline fill="none" stroke="black" points="995,-606.5 995,-629.5 "/>
<text text-anchor="middle" x="1051" y="-614.3" font-family="SimSun" font-size="14.00">[10, 20] 黄金</text>
<polyline fill="none" stroke="black" points="949,-606.5 1107,-606.5 "/>
<text text-anchor="start" x="957" y="-591.3" font-family="SimSun" font-size="14.00">+&gt;【冲车】</text>
</g>
<!-- 0010.军事工程&#45;&gt;0012.攻城器械 -->
<g id="edge20" class="edge">
<title>0010.军事工程:e&#45;&gt;0012.攻城器械:w</title>
<path fill="none" stroke="black" d="M848,-617C888.8,-617 901.51,-617.84 937.7,-617.98"/>
<polygon fill="black" stroke="black" points="937.99,-621.48 948,-618 938.01,-614.48 937.99,-621.48"/>
</g>
<!-- 0014.军事技术 -->
<g id="node26" class="node">
<title>0014.军事技术</title>
<polygon fill="#228dff" stroke="black" points="1208,-568.5 1208,-667.5 1367,-667.5 1367,-568.5 1208,-568.5"/>
<text text-anchor="middle" x="1287.5" y="-652.3" font-family="SimSun" font-size="14.00">0014.军事技术</text>
<polyline fill="none" stroke="black" points="1208,-644.5 1367,-644.5 "/>
<text text-anchor="middle" x="1231" y="-629.3" font-family="SimSun" font-size="14.00">30秒</text>
<polyline fill="none" stroke="black" points="1254,-621.5 1254,-644.5 "/>
<text text-anchor="middle" x="1310.5" y="-629.3" font-family="SimSun" font-size="14.00">[10, 20] 黄金</text>
<polyline fill="none" stroke="black" points="1208,-621.5 1367,-621.5 "/>
<text text-anchor="start" x="1216" y="-606.3" font-family="SimSun" font-size="14.00">提高攻城器械生产速度</text>
<text text-anchor="start" x="1216" y="-591.3" font-family="SimSun" font-size="14.00">降低攻城器械价格</text>
<text text-anchor="start" x="1216" y="-576.3" font-family="SimSun" font-size="14.00">+&gt;【兵工厂】</text>
</g>
<!-- 0012.攻城器械&#45;&gt;0014.军事技术 -->
<g id="edge28" class="edge">
<title>0012.攻城器械:e&#45;&gt;0014.军事技术:w</title>
<path fill="none" stroke="black" d="M1108,-618C1148.8,-618 1161.51,-618 1197.7,-618"/>
<polygon fill="black" stroke="black" points="1198,-621.5 1208,-618 1198,-614.5 1198,-621.5"/>
</g>
<!-- 0030.神机营 -->
<g id="node20" class="node">
<title>0030.神机营</title>
<polygon fill="#228dff" stroke="black" points="690,-481.5 690,-550.5 848,-550.5 848,-481.5 690,-481.5"/>
<text text-anchor="middle" x="769" y="-535.3" font-family="SimSun" font-size="14.00">0030.神机营</text>
<polyline fill="none" stroke="black" points="690,-527.5 848,-527.5 "/>
<text text-anchor="middle" x="713" y="-512.3" font-family="SimSun" font-size="14.00">20秒</text>
<polyline fill="none" stroke="black" points="736,-504.5 736,-527.5 "/>
<text text-anchor="middle" x="792" y="-512.3" font-family="SimSun" font-size="14.00">[10, 20] 黄金</text>
<polyline fill="none" stroke="black" points="690,-504.5 848,-504.5 "/>
<text text-anchor="start" x="698" y="-489.3" font-family="SimSun" font-size="14.00">+&gt;【火门枪手】</text>
</g>
<!-- 0029.火药&#45;&gt;0030.神机营 -->
<g id="edge22" class="edge">
<title>0029.火药:e&#45;&gt;0030.神机营:w</title>
<path fill="none" stroke="black" d="M618,-516C646.38,-516 655.88,-516 679.98,-516"/>
<polygon fill="black" stroke="black" points="680,-519.5 690,-516 680,-512.5 680,-519.5"/>
</g>
<!-- 0031.纪效新书 -->
<g id="node21" class="node">
<title>0031.纪效新书</title>
<polygon fill="#228dff" stroke="black" points="949,-465.5 949,-564.5 1107,-564.5 1107,-465.5 949,-465.5"/>
<text text-anchor="middle" x="1028" y="-549.3" font-family="SimSun" font-size="14.00">0031.纪效新书</text>
<polyline fill="none" stroke="black" points="949,-541.5 1107,-541.5 "/>
<text text-anchor="middle" x="972" y="-526.3" font-family="SimSun" font-size="14.00">20秒</text>
<polyline fill="none" stroke="black" points="995,-518.5 995,-541.5 "/>
<text text-anchor="middle" x="1051" y="-526.3" font-family="SimSun" font-size="14.00">[10, 20] 黄金</text>
<polyline fill="none" stroke="black" points="949,-518.5 1107,-518.5 "/>
<text text-anchor="start" x="957" y="-503.3" font-family="SimSun" font-size="14.00">X&gt;【火门枪手】</text>
<text text-anchor="start" x="957" y="-488.3" font-family="SimSun" font-size="14.00">+&gt;【三眼铳兵】</text>
<text text-anchor="start" x="957" y="-473.3" font-family="SimSun" font-size="14.00">+&gt;【火枪手】</text>
</g>
<!-- 0030.神机营&#45;&gt;0031.纪效新书 -->
<g id="edge23" class="edge">
<title>0030.神机营:e&#45;&gt;0031.纪效新书:w</title>
<path fill="none" stroke="black" d="M848,-516C888.8,-516 901.51,-515.16 937.7,-515.02"/>
<polygon fill="black" stroke="black" points="938.01,-518.52 948,-515 937.99,-511.52 938.01,-518.52"/>
</g>
<!-- 0032.虎蹲炮 -->
<g id="node22" class="node">
<title>0032.虎蹲炮</title>
<polygon fill="#228dff" stroke="black" points="1208.5,-480.5 1208.5,-549.5 1366.5,-549.5 1366.5,-480.5 1208.5,-480.5"/>
<text text-anchor="middle" x="1287.5" y="-534.3" font-family="SimSun" font-size="14.00">0032.虎蹲炮</text>
<polyline fill="none" stroke="black" points="1208.5,-526.5 1366.5,-526.5 "/>
<text text-anchor="middle" x="1231.5" y="-511.3" font-family="SimSun" font-size="14.00">20秒</text>
<polyline fill="none" stroke="black" points="1254.5,-503.5 1254.5,-526.5 "/>
<text text-anchor="middle" x="1310.5" y="-511.3" font-family="SimSun" font-size="14.00">[10, 20] 黄金</text>
<polyline fill="none" stroke="black" points="1208.5,-503.5 1366.5,-503.5 "/>
<text text-anchor="start" x="1216.5" y="-488.3" font-family="SimSun" font-size="14.00">+&gt;【虎蹲炮】</text>
</g>
<!-- 0031.纪效新书&#45;&gt;0032.虎蹲炮 -->
<g id="edge24" class="edge">
<title>0031.纪效新书:e&#45;&gt;0032.虎蹲炮:w</title>
<path fill="none" stroke="black" d="M1108,-515C1148.8,-515 1161.51,-515 1197.7,-515"/>
<polygon fill="black" stroke="black" points="1198,-518.5 1208,-515 1198,-511.5 1198,-518.5"/>
</g>
<!-- 0009.复合弓 -->
<g id="node25" class="node">
<title>0009.复合弓</title>
<polygon fill="#228dff" stroke="black" points="690,-348 690,-462 848,-462 848,-348 690,-348"/>
<text text-anchor="middle" x="769" y="-446.8" font-family="SimSun" font-size="14.00">0009.复合弓</text>
<polyline fill="none" stroke="black" points="690,-439 848,-439 "/>
<text text-anchor="middle" x="713" y="-423.8" font-family="SimSun" font-size="14.00">30秒</text>
<polyline fill="none" stroke="black" points="736,-416 736,-439 "/>
<text text-anchor="middle" x="792" y="-423.8" font-family="SimSun" font-size="14.00">[10, 20] 黄金</text>
<polyline fill="none" stroke="black" points="690,-416 848,-416 "/>
<text text-anchor="start" x="698" y="-400.8" font-family="SimSun" font-size="14.00">提高远程单位攻击力</text>
<text text-anchor="start" x="698" y="-385.8" font-family="SimSun" font-size="14.00">提高射击距离</text>
<text text-anchor="start" x="698" y="-370.8" font-family="SimSun" font-size="14.00">+&gt;【靶场】</text>
<text text-anchor="start" x="698" y="-355.8" font-family="SimSun" font-size="14.00">+&gt;【驻防点】</text>
</g>
<!-- 0033.诸葛连弩&#45;&gt;0009.复合弓 -->
<g id="edge27" class="edge">
<title>0033.诸葛连弩:e&#45;&gt;0009.复合弓:w</title>
<path fill="none" stroke="black" d="M618,-409C646.42,-409 655.85,-405.85 679.97,-405.14"/>
<polygon fill="black" stroke="black" points="680.05,-408.64 690,-405 679.95,-401.64 680.05,-408.64"/>
</g>
<!-- 0000.手工业 -->
<g id="node27" class="node">
<title>0000.手工业</title>
<polygon fill="#65d84b" stroke="black" points="0,-602.5 0,-701.5 158,-701.5 158,-602.5 0,-602.5"/>
<text text-anchor="middle" x="79" y="-686.3" font-family="SimSun" font-size="14.00">0000.手工业</text>
<polyline fill="none" stroke="black" points="0,-678.5 158,-678.5 "/>
<text text-anchor="middle" x="23" y="-663.3" font-family="SimSun" font-size="14.00">30秒</text>
<polyline fill="none" stroke="black" points="46,-655.5 46,-678.5 "/>
<text text-anchor="middle" x="102" y="-663.3" font-family="SimSun" font-size="14.00">[10, 20] 黄金</text>
<polyline fill="none" stroke="black" points="0,-655.5 158,-655.5 "/>
<text text-anchor="start" x="8" y="-640.3" font-family="SimSun" font-size="14.00">提高攻击力</text>
<text text-anchor="start" x="8" y="-625.3" font-family="SimSun" font-size="14.00">提高防御力</text>
<text text-anchor="start" x="8" y="-610.3" font-family="SimSun" font-size="14.00">+&gt;【铁匠铺】</text>
</g>
<!-- 0001.铸造 -->
<g id="node28" class="node">
<title>0001.铸造</title>
<polygon fill="#65d84b" stroke="black" points="230,-658 230,-742 388,-742 388,-658 230,-658"/>
<text text-anchor="middle" x="309" y="-726.8" font-family="SimSun" font-size="14.00">0001.铸造</text>
<polyline fill="none" stroke="black" points="230,-719 388,-719 "/>
<text text-anchor="middle" x="253" y="-703.8" font-family="SimSun" font-size="14.00">30秒</text>
<polyline fill="none" stroke="black" points="276,-696 276,-719 "/>
<text text-anchor="middle" x="332" y="-703.8" font-family="SimSun" font-size="14.00">[10, 20] 黄金</text>
<polyline fill="none" stroke="black" points="230,-696 388,-696 "/>
<text text-anchor="start" x="238" y="-680.8" font-family="SimSun" font-size="14.00">提高攻击力</text>
<text text-anchor="start" x="238" y="-665.8" font-family="SimSun" font-size="14.00">提高攻击速度</text>
</g>
<!-- 0000.手工业&#45;&gt;0001.铸造 -->
<g id="edge29" class="edge">
<title>0000.手工业:e&#45;&gt;0001.铸造:w</title>
<path fill="none" stroke="black" d="M158,-652C192.7,-652 192.09,-691.08 219.89,-698.72"/>
<polygon fill="black" stroke="black" points="219.64,-702.21 230,-700 220.52,-695.27 219.64,-702.21"/>
</g>
<!-- 0028.棉甲 -->
<g id="node29" class="node">
<title>0028.棉甲</title>
<polygon fill="#65d84b" stroke="black" points="230,-569.5 230,-638.5 388,-638.5 388,-569.5 230,-569.5"/>
<text text-anchor="middle" x="309" y="-623.3" font-family="SimSun" font-size="14.00">0028.棉甲</text>
<polyline fill="none" stroke="black" points="230,-615.5 388,-615.5 "/>
<text text-anchor="middle" x="253" y="-600.3" font-family="SimSun" font-size="14.00">30秒</text>
<polyline fill="none" stroke="black" points="276,-592.5 276,-615.5 "/>
<text text-anchor="middle" x="332" y="-600.3" font-family="SimSun" font-size="14.00">[10, 20] 黄金</text>
<polyline fill="none" stroke="black" points="230,-592.5 388,-592.5 "/>
<text text-anchor="start" x="238" y="-577.3" font-family="SimSun" font-size="14.00">提高防御力</text>
</g>
<!-- 0000.手工业&#45;&gt;0028.棉甲 -->
<g id="edge30" class="edge">
<title>0000.手工业:e&#45;&gt;0028.棉甲:w</title>
<path fill="none" stroke="black" d="M158,-652C192.7,-652 192.09,-612.92 219.89,-605.28"/>
<polygon fill="black" stroke="black" points="220.52,-608.73 230,-604 219.64,-601.79 220.52,-608.73"/>
</g>
</g>
</svg>
